<svg xmlns="http://www.w3.org/2000/svg" width="3084" height="1823" fill="none" viewBox="0 0 3084 1823">
  <g clip-path="url(#a)">
    <path fill="#fff" d="M1537.76 1440.6h209.48c7.69 0 15.06 3.05 20.5 8.48 5.44 5.42 8.5 12.78 8.51 20.46v.18h-267.5v-.18c.01-7.68 3.07-15.04 8.51-20.46a29.013 29.013 0 0 1 20.5-8.48Z"/>
    <path fill="#154B77" fill-rule="evenodd" d="M1537.76 1442.42c-7.21 0-14.12 2.85-19.22 7.94-4.7 4.7-7.51 10.94-7.92 17.54h263.76c-.41-6.6-3.22-12.84-7.92-17.54a27.195 27.195 0 0 0-19.22-7.94h-209.48Zm-21.79 5.37c5.78-5.77 13.62-9 21.79-9h209.48a30.795 30.795 0 0 1 30.82 30.75v1.99h-271.12v-1.99c0-8.16 3.25-15.98 9.03-21.75Z" clip-rule="evenodd"/>
    <path fill="#000" fill-opacity=".2" fill-rule="evenodd" d="M1537.76 1442.42c-7.21 0-14.12 2.85-19.22 7.94-4.7 4.7-7.51 10.94-7.92 17.54h263.76c-.41-6.6-3.22-12.84-7.92-17.54a27.195 27.195 0 0 0-19.22-7.94h-209.48Zm-21.79 5.37c5.78-5.77 13.62-9 21.79-9h209.48a30.795 30.795 0 0 1 30.82 30.75v1.99h-271.12v-1.99c0-8.16 3.25-15.98 9.03-21.75Z" clip-rule="evenodd"/>
    <path fill="#000" fill-opacity=".2" fill-rule="evenodd" d="M1537.76 1442.42c-7.21 0-14.12 2.85-19.22 7.94-4.7 4.7-7.51 10.94-7.92 17.54h263.76c-.41-6.6-3.22-12.84-7.92-17.54a27.195 27.195 0 0 0-19.22-7.94h-209.48Zm-21.79 5.37c5.78-5.77 13.62-9 21.79-9h209.48a30.795 30.795 0 0 1 30.82 30.75v1.99h-271.12v-1.99c0-8.16 3.25-15.98 9.03-21.75Z" clip-rule="evenodd"/>
    <path fill="#154B77" fill-rule="evenodd" d="M1563.86 1469.1c1.06-.56 2.38-.15 2.94.92l155.26 295.65a2.181 2.181 0 1 1-3.86 2.03l-155.26-295.66c-.56-1.06-.15-2.38.92-2.94Z" clip-rule="evenodd"/>
    <path fill="#000" fill-opacity=".2" fill-rule="evenodd" d="M1563.86 1469.1c1.06-.56 2.38-.15 2.94.92l155.26 295.65a2.181 2.181 0 1 1-3.86 2.03l-155.26-295.66c-.56-1.06-.15-2.38.92-2.94Z" clip-rule="evenodd"/>
    <path fill="#000" fill-opacity=".2" fill-rule="evenodd" d="M1563.86 1469.1c1.06-.56 2.38-.15 2.94.92l155.26 295.65a2.181 2.181 0 1 1-3.86 2.03l-155.26-295.66c-.56-1.06-.15-2.38.92-2.94Z" clip-rule="evenodd"/>
    <path fill="#154B77" fill-rule="evenodd" d="M1721.14 1469.1c1.07.56 1.48 1.88.92 2.94L1566.8 1767.7c-.56 1.06-1.88 1.48-2.94.92a2.184 2.184 0 0 1-.92-2.95l155.26-295.65a2.172 2.172 0 0 1 2.94-.92Z" clip-rule="evenodd"/>
    <path fill="#000" fill-opacity=".2" fill-rule="evenodd" d="M1721.14 1469.1c1.07.56 1.48 1.88.92 2.94L1566.8 1767.7c-.56 1.06-1.88 1.48-2.94.92a2.184 2.184 0 0 1-.92-2.95l155.26-295.65a2.172 2.172 0 0 1 2.94-.92Z" clip-rule="evenodd"/>
    <path fill="#000" fill-opacity=".2" fill-rule="evenodd" d="M1721.14 1469.1c1.07.56 1.48 1.88.92 2.94L1566.8 1767.7c-.56 1.06-1.88 1.48-2.94.92a2.184 2.184 0 0 1-.92-2.95l155.26-295.65a2.172 2.172 0 0 1 2.94-.92Z" clip-rule="evenodd"/>
    <path fill="#DBDAFF" d="M1216.59 1762.79s45.63 0 67.09-.13c18.05-.12 53.59 3.58 54.14-5.04 1.12-17.36-10.47-27.01-9.03-37.96a87.175 87.175 0 0 1-41.23-9c-4.66 4.54-30.59 29-51.9 31.51-23.5 2.77-19.07 20.62-19.07 20.62Z"/>
    <path fill="#6562CF" fill-rule="evenodd" d="M1340.39 1764.1c.01 1.2-.96 2.18-2.16 2.19-10.74.06-41.33.1-69.24.11-13.95.01-27.23.01-37.03.02h-16.09c-.01 0-.01 0-.01-2.18s0-2.18.01-2.18h16.09c9.8 0 23.08-.01 37.03-.02 27.91-.01 58.49-.04 69.21-.11 1.2-.01 2.19.96 2.19 2.17Zm-126.71.14c0-1.2.98-2.18 2.18-2.18v4.36c-1.2 0-2.18-.98-2.18-2.18Zm60.17-33.22-1.1.95 1.1-.95c.53.61.46 1.52-.15 2.05-.6.52-1.52.46-2.05-.15m-15.75.37c.14-.59.32-1.22.54-1.89 1.08-3.25 2.51-4.43 3.77-4.8 1.34-.4 2.98-.04 4.77.9 1.76.92 3.43 2.26 4.68 3.41.62.57 1.12 1.08 1.47 1.45.17.18.31.32.4.42.04.05.07.09.1.11l.02.03m-17.97-2.44c-.2.6-.37 1.19-.52 1.75Zm-1.05 4.63c-.35 3.34.41 5.82 1.94 7.25 1.11 1.03 2.57 1.42 3.96 1.02 1.38-.4 2.48-1.48 3.1-2.97.36-.87.14-1.74-.16-2.37-.31-.64-.79-1.26-1.34-1.81-1.07-1.08-2.58-2.13-4.23-2.94m-3.27 1.82c-.9-.28-1.78-.44-2.6-.44-1.34-.01-2.38.38-3.1 1.23-1.02 1.21-1.43 2.36-1.59 3.18-.08.42-.1.75-.1.97v.23c.01.02.01.03.01.04v-.02l-1.44.2 1.44-.2m10.21-3.96c-.06 2.16.54 3.38 1.1 3.89.41.39.83.45 1.17.35.35-.09.82-.42 1.16-1.17-.01-.03-.03-.07-.05-.12-.12-.25-.36-.6-.78-1.02-.64-.64-1.55-1.33-2.6-1.93Zm3.44 3.13v-.01.01Zm14.95-8.45Zm0 0v-.01Zm0-.01-.01-.01Zm-.01-.01-.04-.03Zm-.04-.03c-.02-.04-.07-.08-.12-.14Zm-.12-.14c-.1-.11-.25-.28-.44-.48Zm-.44-.48c-.39-.4-.94-.95-1.61-1.57Zm-1.61-1.57c-1.34-1.23-3.22-2.77-5.3-3.85Zm-5.3-3.85c-2.05-1.07-4.54-1.84-6.95-1.12Zm-6.95-1.12c-2.5.75-4.45 2.93-5.7 6.67Z" clip-rule="evenodd"/>
    <path fill="#3ABEBE" d="M1343.83 1414.51c16.36-47.59 236.78-73.71 236.78-73.71l69.76 1.87c3.48 11.51 9.76 88.69-41.32 116.84-54.21 29.87-176.82-8.9-176.82-8.9s7.19 149.01-97.62 271.44l-68.39-7.26c29.28-115.1 61.79-254.35 77.61-300.28Z"/>
    <path fill="#DBDAFF" d="M1385.28 1762.79s45.63 0 67.09-.13c18.04-.12 53.58 3.58 54.14-5.04 1.12-17.36-10.47-27.01-9.03-37.96a87.241 87.241 0 0 1-41.24-9c-4.65 4.54-30.59 29-51.89 31.51-23.5 2.77-19.07 20.62-19.07 20.62Z"/>
    <path fill="#6562CF" fill-rule="evenodd" d="M1509.08 1764.1c.01 1.2-.96 2.18-2.17 2.19-10.73.06-41.33.1-69.23.11-13.95.01-27.24.01-37.03.02h-16.1v-4.36h16.1c9.79 0 23.08-.01 37.03-.02 27.91-.01 58.49-.04 69.21-.11 1.2-.01 2.18.96 2.19 2.17Zm-126.71.14c0-1.2.98-2.18 2.18-2.18v4.36c-1.2 0-2.18-.98-2.18-2.18Zm60.17-33.22-1.1.95 1.1-.95c.52.61.46 1.52-.15 2.05-.61.52-1.52.46-2.05-.15h-.01l-.02-.03c-.02-.02-.05-.06-.1-.11-.09-.1-.22-.24-.39-.42-.35-.37-.86-.88-1.47-1.45-1.26-1.15-2.92-2.49-4.68-3.41-1.8-.94-3.44-1.3-4.78-.9-1.25.37-2.68 1.55-3.76 4.8-.23.67-.41 1.3-.55 1.89 1.66.81 3.17 1.86 4.23 2.94.55.55 1.04 1.17 1.34 1.81.3.63.52 1.5.16 2.37-.62 1.49-1.72 2.57-3.09 2.97-1.4.4-2.86.01-3.97-1.02-1.52-1.43-2.28-3.91-1.93-7.25-.9-.28-1.79-.44-2.6-.44-1.34-.01-2.38.38-3.1 1.23-1.02 1.21-1.43 2.36-1.59 3.18-.09.42-.1.75-.11.97 0 .1.01.18.01.23v.04c.11.78-.44 1.51-1.23 1.62-.8.12-1.53-.44-1.65-1.23l1.44-.2-1.44.2v-.03c0-.01 0-.03-.01-.05 0-.03-.01-.08-.01-.14-.01-.11-.02-.27-.01-.46 0-.37.03-.89.15-1.51.25-1.24.85-2.86 2.22-4.49h.01c1.42-1.69 3.39-2.28 5.34-2.27 1.03.01 2.09.19 3.11.47.15-.56.32-1.15.52-1.75m1.77 5.86c-.06 2.16.55 3.38 1.1 3.89.42.39.83.45 1.18.35.34-.09.81-.42 1.16-1.17-.01-.03-.03-.07-.05-.12-.12-.25-.37-.6-.79-1.02-.63-.64-1.54-1.33-2.6-1.93Zm3.45 3.13v-.01.01Zm14.95-8.45Zm0 0-.01-.01Zm-.01-.01-.01-.01Zm-.01-.01-.03-.03Zm-.03-.03c-.03-.04-.07-.08-.12-.14Zm-.12-.14c-.11-.11-.26-.28-.45-.48Zm-.45-.48c-.38-.4-.93-.95-1.61-1.57Zm-1.61-1.57c-1.33-1.23-3.21-2.77-5.3-3.85Zm-5.3-3.85c-2.04-1.07-4.53-1.84-6.95-1.12Zm-6.95-1.12c-2.5.75-4.44 2.93-5.69 6.67Z" clip-rule="evenodd"/>
    <path fill="#3ABEBE" d="M1436.32 1414.07c10.13-32.62 172.73-72.35 172.73-72.35l138.26 3.12c3.47 11.5 16.8 79.25-34.28 107.4-54.2 29.87-194.55 16.37-194.55 16.37s51.74 92.06-13.54 253.46l-65.78-7.27c11.44-85.57-17.24-254.35-2.84-300.73Z"/>
    <path fill="#DBDAFF" d="M1589.44 1318.76s-21.53-76.53-39.23-158.6c0 0-43.82-14.89-69.07-43.04 0 0 40.53-71.69 71.72-82.54 26.85-9.33 65.53-18.33 65.53-18.33l87.08-6.46s63.72 17.34 86.39 35.24c26.36 20.81 39.47 89.04 39.47 89.04s-30.58 2.24-75.28 28.78l-10.5 155.91c3.02 19.96 10.26 46.71 10.26 46.71s-87.74 20.6-202.01-22.95c0 0 39.86-8.34 35.64-23.76Z"/>
    <path fill="#E49647" d="m1481.25 1117.65-28.76 43.47s-78.92-103.62-87.29-115.56l-25.96 8.64s61.5 188.98 111.43 188.98c39.7 0 98.64-83.02 98.64-83.02s-52.1-24.44-68.06-42.51Z"/>
    <path fill="#E49647" d="M1365.2 1045.64s-.09-26.53-5.99-35.37c-5.9-8.84-22.38-40.671-28.49-37.366-2.81 1.525 7.49 28.036 7.49 28.036s-5.68-2.712-9.8 1.71c-4.11 4.42-4.59.73-10.25 3.2s-3.45 7.01-10.33 7.51c-4.96.34-4.59 6.36-1.46 12.34 4.18 8.11 27.01 30.8 34.11 28.5 7.1-2.29 24.72-8.56 24.72-8.56Z"/>
    <path fill="#CB884B" fill-rule="evenodd" d="M1334.85 1029.44a4.164 4.164 0 0 1-2.3 2.38c-2.27.97-4.65.02-6.68-1.44-.94-.67-1.86-1.5-2.76-2.4.31 1.01.54 2 .63 2.92.12 1.15.06 2.28-.36 3.27-.44 1.03-1.24 1.82-2.4 2.25-2.11.78-4.1.43-5.82-.49-1.7-.91-3.17-2.38-4.38-3.92-2.28-2.88-3.83-6.24-4.32-7.31a2.45 2.45 0 0 1-.08-.17l1.98-.92c.02.05.05.11.08.17.49 1.07 1.94 4.22 4.05 6.88 1.12 1.42 2.37 2.64 3.7 3.35 1.29.69 2.62.89 4.03.37.6-.23.95-.59 1.15-1.06.22-.52.3-1.25.21-2.19-.2-1.9-1.09-4.31-2.25-6.74-.51-1.08-1.07-2.15-1.63-3.16-.82-1.19-1.54-2.32-2.13-3.28-.55-.89-1-1.65-1.3-2.18-.16-.27-.27-.48-.35-.62-.04-.07-.08-.13-.1-.17l-.02-.04-.01-.02.96-.52.89-.62.01.01.03.04c.03.04.06.09.11.16.1.14.24.34.41.6a88.26 88.26 0 0 1 3.36 5.49c.66.97 1.39 1.98 2.16 2.96 1.71 2.21 3.6 4.26 5.42 5.57 1.87 1.34 3.38 1.7 4.55 1.2.58-.24.92-.63 1.13-1.15.21-.57.28-1.33.17-2.31-.22-1.97-1.13-4.42-2.31-6.89-1.16-2.45-2.54-4.82-3.64-6.58-.54-.88-1.01-1.6-1.35-2.11-.17-.25-.3-.45-.39-.58-.05-.06-.08-.12-.1-.15l-.03-.04-.01-.01.9-.62c.89-.63.89-.62.89-.62l.01.01.03.04c.03.04.06.09.11.16.1.14.23.35.41.61.34.52.83 1.26 1.39 2.16 1.11 1.8 2.54 4.24 3.75 6.79 1.2 2.53 2.24 5.25 2.51 7.58.13 1.17.08 2.33-.31 3.34Zm-20.1-15.04.89-.62-1.85 1.14.96-.52Z" clip-rule="evenodd"/>
    <path fill="#CB884B" fill-rule="evenodd" d="M1354.89 1007.39c2.13.91 3.52 2.61 4.74 4.66l-1.88 1.11c-1.13-1.9-2.22-3.13-3.71-3.76-1.5-.64-3.61-.75-6.95.04-3.4.81-7.73 2.12-11.23 3.24-1.74.56-3.27 1.06-4.37 1.43-.31.11-.59.2-.83.28.03.11.07.23.11.36.24.77.63 1.75 1.25 2.69.62.93 1.45 1.77 2.56 2.32 1.09.53 2.53.81 4.45.48h.02c1.42-.24 2.51-.43 3.33-.55.8-.12 1.45-.18 1.94-.16.5.03 1.13.18 1.52.77.16.25.24.5.28.68.03.18.06.36.07.51l.01.02c.01.1.02.23.04.39.11.96.34 3.02.81 5.43.55 2.83 1.41 6.06 2.73 8.54l-1.92 1.02c-1.47-2.76-2.39-6.25-2.95-9.15-.49-2.51-.73-4.65-.84-5.6-.02-.16-.03-.28-.04-.37 0-.02-.01-.04-.01-.06-.26 0-.68.04-1.33.14-.79.11-1.85.29-3.29.54-2.33.4-4.24.08-5.79-.68-1.53-.75-2.63-1.9-3.4-3.07-.78-1.15-1.25-2.35-1.53-3.24-.13-.45-.23-.83-.29-1.11-.03-.13-.05-.24-.06-.32-.01-.04-.01-.07-.02-.09v-.05l1.08-.15-.36-1.03.12-.05c.08-.02.2-.06.35-.12.3-.1.75-.25 1.3-.43 1.1-.37 2.64-.88 4.4-1.45 3.5-1.12 7.9-2.45 11.38-3.28 3.55-.84 6.19-.82 8.31.07Zm-25.5 6.29-.36-1.03-.85.29.13.89 1.08-.15Z" clip-rule="evenodd"/>
    <path fill="#fff" d="M1470.06 1187.37h115.37c15.88 0 30.87 10.89 33.44 24.24l16.78 86.34c2.59 13.39 17.59 24.25 33.44 24.25h-115.33c-15.89 0-30.86-10.89-33.45-24.25l-16.61-85.43c-2.25-11.62-13.58-20.33-26.94-22.77l-6.41-.9-.29-1.48Z"/>
    <path fill="#154B77" fill-rule="evenodd" d="M1467.85 1185.55h117.58c16.55 0 32.45 11.33 35.23 25.72l16.77 86.34c2.4 12.35 16.47 22.78 31.66 22.78v3.63h-115.33c-16.56 0-32.45-11.33-35.23-25.72l-16.61-85.43c-2.06-10.63-12.57-18.96-25.45-21.32l-7.66-1.09-.96-4.91Zm185.01 134.84c-9.64-4.46-17.16-12.6-19-22.09l-16.77-86.34c-2.38-12.32-16.45-22.78-31.66-22.78h-103.36c11.66 3.58 21.28 11.94 23.41 23l16.62 85.43c2.38 12.32 16.44 22.78 31.66 22.78h99.1Z" clip-rule="evenodd"/>
    <path fill="#000" fill-opacity=".2" fill-rule="evenodd" d="M1467.85 1185.55h117.58c16.55 0 32.45 11.33 35.23 25.72l16.77 86.34c2.4 12.35 16.47 22.78 31.66 22.78v3.63h-115.33c-16.56 0-32.45-11.33-35.23-25.72l-16.61-85.43c-2.06-10.63-12.57-18.96-25.45-21.32l-7.66-1.09-.96-4.91Zm185.01 134.84c-9.64-4.46-17.16-12.6-19-22.09l-16.77-86.34c-2.38-12.32-16.45-22.78-31.66-22.78h-103.36c11.66 3.58 21.28 11.94 23.41 23l16.62 85.43c2.38 12.32 16.44 22.78 31.66 22.78h99.1Z" clip-rule="evenodd"/>
    <path fill="#000" fill-opacity=".2" fill-rule="evenodd" d="M1467.85 1185.55h117.58c16.55 0 32.45 11.33 35.23 25.72l16.77 86.34c2.4 12.35 16.47 22.78 31.66 22.78v3.63h-115.33c-16.56 0-32.45-11.33-35.23-25.72l-16.61-85.43c-2.06-10.63-12.57-18.96-25.45-21.32l-7.66-1.09-.96-4.91Zm185.01 134.84c-9.64-4.46-17.16-12.6-19-22.09l-16.77-86.34c-2.38-12.32-16.45-22.78-31.66-22.78h-103.36c11.66 3.58 21.28 11.94 23.41 23l16.62 85.43c2.38 12.32 16.44 22.78 31.66 22.78h99.1Z" clip-rule="evenodd"/>
    <path fill="#E49647" d="M1836.59 1268.12c-17.02 23.93-137.93 44.65-164.44 48.91-1.23.42-2.5.72-3.78.89-5.67.72-35.04 2.49-40.89.61-6.88-2.21-19.94-14.65-20.65-16.58-.7-1.92-4.2-18.1-4.2-18.1s9.13-1.34 14.15 8.41c4.51 8.78 14.31 7.83 20.36 7.31 2.51-.22 7.33-3.96 6.54-7.76-.79-3.81-5.46-2.51-7.92-4.15l-1.78-8.76 11.21-.12c2.74-.04 17.88 5.9 27.25 14.39 25.75-14.75 84.29-47.53 113.97-57.85l-30.39-72.49s27.77-23.84 74.89-29.05c.08 0 23.13 109.78 5.68 134.34Zm-156.9-321.013s-6.38 44.897 27.18 63.183c0 0-41.13 31.11-73 33.1-31.87 1.99-18.17-25.35-18.17-25.35s7.84-15.46 5.36-53.43l58.63-17.503Z"/>
    <path fill="#D48845" d="m1621.04 964.617 57.34-17.125c-.77 2.862-4.09 42.588-50.22 54.758-2.76.73-5.56-.09-8.11-1.18 1.25-8.528 2.04-20.504.99-36.453Z"/>
    <path fill="#E49647" d="M1679.32 947.369s-13.82 31.461-51.16 36.007c-33.29 4.06-49.66-88.667-.5-97.535 54.03-9.739 47.6 48.027 47.6 48.027s7.92-5.81 11.63-1.213c3.71 4.597-7.57 14.714-7.57 14.714Z"/>
    <path fill="#3F4D79" d="m1679.99 943.186-4.43-8.759c-10.35-3.435-9.09-17.561-5.34-25.215-2.45 1.452-7.12 2.774-15.23 2.084-4.51-.385 4.19-8.054.6-8.657-3.58-.603-11.06 7.466-22.12 8.359-11.06.894.84-7.509 1.52-11.932.6-3.878-6.74 1.227-10.57 3.631-14.24 9.028-26.26 6.842-27.27 20.335 0 0-11.42-17.749-11.42-26.145 0-21.199 38.49-41.142 54.42-39.544 13.97 1.424 24.33 13.414 26.67 16.348a11.442 11.442 0 0 1 4.67-3.987c3.57-1.83 7.14-2.012 7.99-.4.86 1.613-1.39 4.409-4.96 6.239-.22.109-.43.218-.65.312 5.39 1.533 13.03 4.358 18.63 9.274 18.69 16.312-12.51 58.057-12.51 58.057Z"/>
    <path fill="#E49647" d="M1675.26 934.754s6.07-6.638 11.63-2.113c5.56 4.524-9.36 16.515-9.36 16.515l-2.27-14.402Z"/>
  </g>
  <g clip-path="url(#b)">
    <path stroke="#154B77" stroke-linecap="round" stroke-miterlimit="10" stroke-width="6" d="M2354.7 1457.34v137.12c0 20.76 5.31 41.18 15.42 59.31a121.753 121.753 0 0 0 42.36 44.27l50.56 31.19"/>
    <path stroke="#000" stroke-linecap="round" stroke-miterlimit="10" stroke-opacity=".2" stroke-width="6" d="M2354.7 1457.34v137.12c0 20.76 5.31 41.18 15.42 59.31a121.753 121.753 0 0 0 42.36 44.27l50.56 31.19"/>
    <path stroke="#000" stroke-linecap="round" stroke-miterlimit="10" stroke-opacity=".2" stroke-width="6" d="M2354.7 1457.34v137.12c0 20.76 5.31 41.18 15.42 59.31a121.753 121.753 0 0 0 42.36 44.27l50.56 31.19"/>
    <path stroke="#154B77" stroke-linecap="round" stroke-miterlimit="10" stroke-width="6" d="M2327.28 1457.34v137.12c0 20.76-5.3 41.18-15.42 59.31a121.644 121.644 0 0 1-42.35 44.27l-50.57 31.19"/>
    <path stroke="#000" stroke-linecap="round" stroke-miterlimit="10" stroke-opacity=".2" stroke-width="6" d="M2327.28 1457.34v137.12c0 20.76-5.3 41.18-15.42 59.31a121.644 121.644 0 0 1-42.35 44.27l-50.57 31.19"/>
    <path stroke="#000" stroke-linecap="round" stroke-miterlimit="10" stroke-opacity=".2" stroke-width="6" d="M2327.28 1457.34v137.12c0 20.76-5.3 41.18-15.42 59.31a121.644 121.644 0 0 1-42.35 44.27l-50.57 31.19"/>
    <path fill="#fff" d="M2354.99 1457.33h-30.52c-6.74 0-13.2-2.67-17.96-7.44a25.383 25.383 0 0 1-7.44-17.97h81.34c0 3.34-.66 6.65-1.94 9.73a25.412 25.412 0 0 1-13.76 13.76 25.334 25.334 0 0 1-9.72 1.92Z"/>
    <path stroke="#154B77" stroke-miterlimit="10" stroke-width="5" d="M2354.99 1457.33h-30.52c-6.74 0-13.2-2.67-17.96-7.44a25.383 25.383 0 0 1-7.44-17.97h81.34c0 3.34-.66 6.65-1.94 9.73a25.412 25.412 0 0 1-13.76 13.76 25.334 25.334 0 0 1-9.72 1.92Z"/>
    <path stroke="#000" stroke-miterlimit="10" stroke-opacity=".2" stroke-width="5" d="M2354.99 1457.33h-30.52c-6.74 0-13.2-2.67-17.96-7.44a25.383 25.383 0 0 1-7.44-17.97h81.34c0 3.34-.66 6.65-1.94 9.73a25.412 25.412 0 0 1-13.76 13.76 25.334 25.334 0 0 1-9.72 1.92Z"/>
    <path stroke="#000" stroke-miterlimit="10" stroke-opacity=".2" stroke-width="5" d="M2354.99 1457.33h-30.52c-6.74 0-13.2-2.67-17.96-7.44a25.383 25.383 0 0 1-7.44-17.97h81.34c0 3.34-.66 6.65-1.94 9.73a25.412 25.412 0 0 1-13.76 13.76 25.334 25.334 0 0 1-9.72 1.92Z"/>
    <path fill="#fff" d="M2388.15 1388.01h24.6l9.59-53.46h-24.6l-9.59 53.46Z"/>
    <path stroke="#154B77" stroke-miterlimit="10" stroke-width="5" d="M2388.15 1388.01h24.6l9.59-53.46h-24.6l-9.59 53.46Z"/>
    <path stroke="#000" stroke-miterlimit="10" stroke-opacity=".2" stroke-width="5" d="M2388.15 1388.01h24.6l9.59-53.46h-24.6l-9.59 53.46Z"/>
    <path stroke="#000" stroke-miterlimit="10" stroke-opacity=".2" stroke-width="5" d="M2388.15 1388.01h24.6l9.59-53.46h-24.6l-9.59 53.46Z"/>
    <path fill="#D1D1FF" d="M2198.52 1397.81v20.72c0 2.74 7.5 5.3 20.54 7.49 25.05 4.2 70.53 7.01 122.49 7.01 78.98 0 143.02-6.5 143.02-14.5v-20.72c0 4.05-16.45 7.73-42.95 10.33-25.8 2.62-61.12 4.2-100.05 4.2s-74.28-1.58-100.08-4.14c-8.6-.86-16.14-1.82-22.41-2.87-13.06-2.21-20.56-4.78-20.56-7.52Z"/>
    <path stroke="#154B77" stroke-miterlimit="10" stroke-width="5" d="M2198.52 1397.81v20.72c0 2.74 7.5 5.3 20.54 7.49 25.05 4.2 70.53 7.01 122.49 7.01 78.98 0 143.02-6.5 143.02-14.5v-20.72c0 4.05-16.45 7.73-42.95 10.33-25.8 2.62-61.12 4.2-100.05 4.2s-74.28-1.58-100.08-4.14c-8.6-.86-16.14-1.82-22.41-2.87-13.06-2.21-20.56-4.78-20.56-7.52Z"/>
    <path stroke="#000" stroke-miterlimit="10" stroke-opacity=".2" stroke-width="5" d="M2198.52 1397.81v20.72c0 2.74 7.5 5.3 20.54 7.49 25.05 4.2 70.53 7.01 122.49 7.01 78.98 0 143.02-6.5 143.02-14.5v-20.72c0 4.05-16.45 7.73-42.95 10.33-25.8 2.62-61.12 4.2-100.05 4.2s-74.28-1.58-100.08-4.14c-8.6-.86-16.14-1.82-22.41-2.87-13.06-2.21-20.56-4.78-20.56-7.52Z"/>
    <path stroke="#000" stroke-miterlimit="10" stroke-opacity=".2" stroke-width="5" d="M2198.52 1397.81v20.72c0 2.74 7.5 5.3 20.54 7.49 25.05 4.2 70.53 7.01 122.49 7.01 78.98 0 143.02-6.5 143.02-14.5v-20.72c0 4.05-16.45 7.73-42.95 10.33-25.8 2.62-61.12 4.2-100.05 4.2s-74.28-1.58-100.08-4.14c-8.6-.86-16.14-1.82-22.41-2.87-13.06-2.21-20.56-4.78-20.56-7.52Z"/>
    <path fill="#fff" d="M2198.52 1397.81c0 2.74 7.5 5.31 20.54 7.49 6.26 1.05 13.8 2.01 22.41 2.87 25.79 2.59 61.11 4.17 100.1 4.17 38.99 0 74.28-1.58 100.07-4.14 26.51-2.63 42.95-6.31 42.95-10.32 0-8.02-64.03-14.52-143.02-14.52-62.8 0-116.15 4.11-135.38 9.82-4.98 1.41-7.67 2.99-7.67 4.63Z"/>
    <path stroke="#154B77" stroke-miterlimit="10" stroke-width="5" d="M2198.52 1397.81c0 2.74 7.5 5.31 20.54 7.49 6.26 1.05 13.8 2.01 22.41 2.87 25.79 2.59 61.11 4.17 100.1 4.17 38.99 0 74.28-1.58 100.07-4.14 26.51-2.63 42.95-6.31 42.95-10.32 0-8.02-64.03-14.52-143.02-14.52-62.8 0-116.15 4.11-135.38 9.82-4.98 1.41-7.67 2.99-7.67 4.63Z"/>
    <path stroke="#000" stroke-miterlimit="10" stroke-opacity=".2" stroke-width="5" d="M2198.52 1397.81c0 2.74 7.5 5.31 20.54 7.49 6.26 1.05 13.8 2.01 22.41 2.87 25.79 2.59 61.11 4.17 100.1 4.17 38.99 0 74.28-1.58 100.07-4.14 26.51-2.63 42.95-6.31 42.95-10.32 0-8.02-64.03-14.52-143.02-14.52-62.8 0-116.15 4.11-135.38 9.82-4.98 1.41-7.67 2.99-7.67 4.63Z"/>
    <path stroke="#000" stroke-miterlimit="10" stroke-opacity=".2" stroke-width="5" d="M2198.52 1397.81c0 2.74 7.5 5.31 20.54 7.49 6.26 1.05 13.8 2.01 22.41 2.87 25.79 2.59 61.11 4.17 100.1 4.17 38.99 0 74.28-1.58 100.07-4.14 26.51-2.63 42.95-6.31 42.95-10.32 0-8.02-64.03-14.52-143.02-14.52-62.8 0-116.15 4.11-135.38 9.82-4.98 1.41-7.67 2.99-7.67 4.63Z"/>
    <path fill="#D1D1FF" d="M2400.39 1336.31h28.2c24.93 0 51.5-31.95 59.34-71.36l17.89-89.93c7.84-39.42-6.01-71.36-30.96-71.36h-28.18c-24.92 0-51.48 31.94-59.33 71.36l-17.89 89.93c-7.85 39.41 6 71.36 30.93 71.36Z"/>
    <path stroke="#154B77" stroke-miterlimit="10" stroke-width="5" d="M2400.39 1336.31h28.2c24.93 0 51.5-31.95 59.34-71.36l17.89-89.93c7.84-39.42-6.01-71.36-30.96-71.36h-28.18c-24.92 0-51.48 31.94-59.33 71.36l-17.89 89.93c-7.85 39.41 6 71.36 30.93 71.36Z"/>
    <path stroke="#000" stroke-miterlimit="10" stroke-opacity=".2" stroke-width="5" d="M2400.39 1336.31h28.2c24.93 0 51.5-31.95 59.34-71.36l17.89-89.93c7.84-39.42-6.01-71.36-30.96-71.36h-28.18c-24.92 0-51.48 31.94-59.33 71.36l-17.89 89.93c-7.85 39.41 6 71.36 30.93 71.36Z"/>
    <path stroke="#000" stroke-miterlimit="10" stroke-opacity=".2" stroke-width="5" d="M2400.39 1336.31h28.2c24.93 0 51.5-31.95 59.34-71.36l17.89-89.93c7.84-39.42-6.01-71.36-30.96-71.36h-28.18c-24.92 0-51.48 31.94-59.33 71.36l-17.89 89.93c-7.85 39.41 6 71.36 30.93 71.36Z"/>
    <path fill="#fff" d="M2383.73 1336.31h28.19c24.93 0 51.5-31.95 59.34-71.36l17.89-89.93c7.84-39.42-6.01-71.36-30.96-71.36h-28.17c-24.93 0-51.49 31.94-59.33 71.36l-17.9 89.93c-7.85 39.41 6.01 71.36 30.94 71.36Z"/>
    <path stroke="#154B77" stroke-miterlimit="10" stroke-width="5" d="M2383.73 1336.31h28.19c24.93 0 51.5-31.95 59.34-71.36l17.89-89.93c7.84-39.42-6.01-71.36-30.96-71.36h-28.17c-24.93 0-51.49 31.94-59.33 71.36l-17.9 89.93c-7.85 39.41 6.01 71.36 30.94 71.36Z"/>
    <path stroke="#000" stroke-miterlimit="10" stroke-opacity=".2" stroke-width="5" d="M2383.73 1336.31h28.19c24.93 0 51.5-31.95 59.34-71.36l17.89-89.93c7.84-39.42-6.01-71.36-30.96-71.36h-28.17c-24.93 0-51.49 31.94-59.33 71.36l-17.9 89.93c-7.85 39.41 6.01 71.36 30.94 71.36Z"/>
    <path stroke="#000" stroke-miterlimit="10" stroke-opacity=".2" stroke-width="5" d="M2383.73 1336.31h28.19c24.93 0 51.5-31.95 59.34-71.36l17.89-89.93c7.84-39.42-6.01-71.36-30.96-71.36h-28.17c-24.93 0-51.49 31.94-59.33 71.36l-17.9 89.93c-7.85 39.41 6.01 71.36 30.94 71.36Z"/>
    <path fill="#D1D1FF" d="M2465.31 1767.02c12.5 0 22.64-10.15 22.64-22.66s-10.14-22.65-22.64-22.65c-12.51 0-22.65 10.14-22.65 22.65 0 12.51 10.14 22.66 22.65 22.66Z"/>
    <path stroke="#154B77" stroke-miterlimit="10" stroke-width="5" d="M2465.31 1767.02c12.5 0 22.64-10.15 22.64-22.66s-10.14-22.65-22.64-22.65c-12.51 0-22.65 10.14-22.65 22.65 0 12.51 10.14 22.66 22.65 22.66Z"/>
    <path stroke="#000" stroke-miterlimit="10" stroke-opacity=".2" stroke-width="5" d="M2465.31 1767.02c12.5 0 22.64-10.15 22.64-22.66s-10.14-22.65-22.64-22.65c-12.51 0-22.65 10.14-22.65 22.65 0 12.51 10.14 22.66 22.65 22.66Z"/>
    <path stroke="#000" stroke-miterlimit="10" stroke-opacity=".2" stroke-width="5" d="M2465.31 1767.02c12.5 0 22.64-10.15 22.64-22.66s-10.14-22.65-22.64-22.65c-12.51 0-22.65 10.14-22.65 22.65 0 12.51 10.14 22.66 22.65 22.66Z"/>
    <path fill="#D1D1FF" d="M2218.46 1767.02c12.5 0 22.64-10.15 22.64-22.66s-10.14-22.65-22.64-22.65c-12.51 0-22.65 10.14-22.65 22.65 0 12.51 10.14 22.66 22.65 22.66Z"/>
    <path stroke="#154B77" stroke-miterlimit="10" stroke-width="5" d="M2218.46 1767.02c12.5 0 22.64-10.15 22.64-22.66s-10.14-22.65-22.64-22.65c-12.51 0-22.65 10.14-22.65 22.65 0 12.51 10.14 22.66 22.65 22.66Z"/>
    <path stroke="#000" stroke-miterlimit="10" stroke-opacity=".2" stroke-width="5" d="M2218.46 1767.02c12.5 0 22.64-10.15 22.64-22.66s-10.14-22.65-22.64-22.65c-12.51 0-22.65 10.14-22.65 22.65 0 12.51 10.14 22.66 22.65 22.66Z"/>
    <path stroke="#000" stroke-miterlimit="10" stroke-opacity=".2" stroke-width="5" d="M2218.46 1767.02c12.5 0 22.64-10.15 22.64-22.66s-10.14-22.65-22.64-22.65c-12.51 0-22.65 10.14-22.65 22.65 0 12.51 10.14 22.66 22.65 22.66Z"/>
    <path stroke="#154B77" stroke-miterlimit="10" stroke-width="5" d="M2307.7 1660.73s29.32-21.53 66.62 0"/>
    <path stroke="#000" stroke-miterlimit="10" stroke-opacity=".2" stroke-width="5" d="M2307.7 1660.73s29.32-21.53 66.62 0"/>
    <path stroke="#000" stroke-miterlimit="10" stroke-opacity=".2" stroke-width="5" d="M2307.7 1660.73s29.32-21.53 66.62 0"/>
    <path fill="#6562CF" d="M2416.18 1331.93c-40.48 57.39-202.62 22.29-202.62 22.29-1.07-22.3.55-80.8-39-114.17l91.45 2.39c72.23 6.75 125.72-7.69 142.37-15.14 14.29 20.79 36.38 64.11 7.8 104.63Z"/>
    <path fill="#B65A18" d="M2150.51 1243.59s-111.91 6.82-121.49 30.72c-29.94 74.51 86.16 309.25 93.48 366.95 6.13 48.55-33.98 74.52-33.98 74.52s18.05 12.41 43.38 5.55c5.42-1.46 10.45-8.28 20.57-16.5 7.52-6.1 26.05-17.09 25.74-26.37-.53-15.27-22.78-27.06-22.16-36.6.63-9.54 19.14-136.94 12.7-191.72-7.14-61.14-53.18-94.55-53.18-94.55l98.35-1.19s-15.39-80.31-63.41-110.81Z"/>
    <path fill="#8382D8" d="M2215.46 1354.28s8.43-77.29-42.86-115.77c-4.05-3.04-15.37.68-21.88 1.97-2.38.47-3.01 3.17-1.59 5.18 34 48.89 34.69 90.81 32.35 115.59l33.98-6.97Z"/>
    <path fill="#333B63" d="M2176.87 1666.43a18.29 18.29 0 0 1 3.77 12.36c-.3 4.44-2.2 8.62-5.36 11.76l-35.44 35.01s-63.39 1.18-67.11 0c-3.73-1.18-.37-11.78 9.95-14.87 10.32-3.1 24.42-20.27 24.42-20.27s11.27-12.07 29.64 25.32l12.3-10.8s-2.91-31.87 1.89-48.39h-28.43c-.65 0-1.29-.12-1.9-.36-.6-.25-1.15-.61-1.61-1.07-.46-.46-.83-1-1.08-1.61-.25-.6-.38-1.24-.38-1.89.03-1.24.54-2.42 1.43-3.29.89-.87 2.09-1.35 3.33-1.35h35.25c.57 0 1.13.12 1.64.35.52.23.98.56 1.36.98l16.33 18.12Z"/>
    <path fill="#3ABEBE" d="M2439.99 1356.55c-17.2 49.77-158.66 43.2-182.77 41.45.01-.04.01-.07 0-.11-1.07-22.29-7.59-92.65-47.15-126.01l52.5-12.71 5.89-16.5c70.57 6.17 122.81-7.82 139.61-15.22 11.59 15.42 51.08 73.63 31.92 129.1Z"/>
    <path fill="#C36F0B" d="M2175.12 1279.32s-116.16 22.39-121.17 56.38c-5.01 33.98 68.55 296.99 60.61 345.27-7.93 48.27-60.17 81.65-60.17 81.65s43.23 8.25 66.4 0c5.28-1.89 14.88-14.61 23.74-19.67 8.41-4.81 26.06-13.13 25.74-22.4-.53-15.28-22.78-27.86-22.15-37.4.62-9.54 35.8-146.47 29.36-201.25-7.14-61.14-29.36-86.61-29.36-86.61l65-1.19s12.18-69-38-114.78Z"/>
    <path fill="#E5E6FF" d="m2218.59 1401.65 32.03 3.17c.89.01 1.78-.18 2.6-.53a6.574 6.574 0 0 0 3.59-3.77c.31-.84.45-1.73.4-2.63-1.08-22.44-7.68-93.62-47.97-126.71a13.426 13.426 0 0 0-5.64-2.73c-2.07-.46-4.21-.43-6.27.09l-26.98 6.95s54.54 37.27 41.72 118.48c-.15.95-.09 1.91.16 2.83a6.61 6.61 0 0 0 3.59 4.23c.87.41 1.81.62 2.77.62Z"/>
    <path fill="#3F4D79" d="M2168.06 1706.49a18.64 18.64 0 0 1 3.85 12.62c-.3 4.54-2.25 8.8-5.48 12l-36.16 35.73s-72.77 1.21-76.57 0c-3.8-1.21-.37-12.01 10.16-15.17s24.92-20.65 24.92-20.65 19.59-12.32 38.33 25.83l12.54-11.03s-2.96-32.55 1.93-49.36h-29.02c-.66 0-1.32-.12-1.93-.37-.62-.25-1.18-.62-1.65-1.09-.47-.46-.85-1.02-1.11-1.63a5.37 5.37 0 0 1-.39-1.94c.04-1.27.56-2.48 1.47-3.37a4.87 4.87 0 0 1 3.41-1.39h35.96c.58 0 1.15.12 1.67.35.53.23 1 .58 1.39 1l16.68 18.47Z"/>
    <path fill="#DBDAFF" d="M2344.94 930.778c10.97 5.773 36.96 18.914 53.26 46.927 16.29 28.015-19.43 129.905-18.95 160.305.48 30.39 29.28 83.04 34.3 85.42 5.01 2.38-58.9 28.58-153.19 18.47 0 0 7.46-42.51 2.01-60.99-5.44-18.47-30.67-72.07-30.67-72.07s-28.66-21.8-22.55-39.1c4.08-11.52 47.02-82.673 47.02-82.673l88.77-56.289Z"/>
    <path fill="#CECDF1" d="M2440.22 1082.82s-29.16 34.35-82.34 34.35c0 0-42.58-137.162 6.15-154.48 48.72-17.318 76.19 120.13 76.19 120.13Z"/>
    <path fill="#C36F0B" d="M2443.64 1173.07c-2.49 22.95-189.05 53.91-189.05 53.91l-.06-.11c-3.39 1.74-15.82 7.51-24.19 3.24-9.77-4.99-18.41-7.14-24.39-5.83-7.38 1.58-15.78 7.29-19.99 6.02-5.1-1.48-9.87-3.93-14.04-7.21 4.1-4.74 8.44-9.27 13-13.57-4.2 1.31-10.2 4.76-13.3 5.8-4.98 1.72-6.87-3.11-6.87-3.11s11.96-8.44 15.21-10.33c5.68-3.22 18.46-6.35 21.97-6.35 6.14.16 39.01 4.31 55.28 7.26 26.73-13.97 94.66-49.01 121.03-57.96l-8.97-28.94s37.85-3.69 64.44-27.79c0 .07 12.49 61.24 9.93 84.97Z"/>
    <path stroke="#A55F2B" stroke-linecap="round" stroke-miterlimit="10" stroke-width="4" d="M2177.27 1224.65s17.95-15.52 21.9-15.88c6.95-.67 16.03-1.59 16.03-1.59m-32.09 20.85s15.88-12.7 19.84-13.09c6.96-.67 16.04-1.59 16.04-1.59"/>
    <path fill="#B65A18" d="M2437.93 1111.17c-11.71 6.88-32.88 16.02-66.04 13.3l-2.63-8.48s37.86-3.69 64.45-27.79c0-.03 2 9.71 4.22 22.97Z"/>
    <path fill="#3F4D79" d="M2378.43 850.342s-6.13 85.391-185.53 108.608c0 0-23.41-19.017-9.53-38.209 13.89-19.191 29.25-26.25 16.14-39.257-13.11-13.006-31.43-39.963-4.97-64.809 26.46-24.845 86.95-57.774 130.89-33.722 43.95 24.051-9.94 68.152 53 67.389Z"/>
    <path stroke="#3F4D79" stroke-miterlimit="10" stroke-width="4" d="M2184.2 958.998s-23.41-19.017-9.53-38.201c13.89-19.184 27.72-26.251 14.6-39.257-13.12-13.006-26.66-44.252 3.22-64.849 34.7-23.916 71.18-34.786 114.05-18.263"/>
    <path fill="#C36F0B" d="M2298.71 856.29s7.29 51.374 46.1 74.48c0 0-25.4 50.922-90.18 59.156 0 0 18.49-33.675 18.44-44.403-.05-10.727-8.49-41.758-8.49-41.758l34.13-47.475Z"/>
    <path fill="#B65A18" d="M2300.71 875.442c.65 23.972-16.13 42.719-30.29 52.605-2.48-11.847-5.84-24.282-5.84-24.282l34.13-47.475a94.788 94.788 0 0 0 2.12 9.854c-.17 2.827-.22 5.939-.12 9.298Z"/>
    <path fill="#C36F0B" d="M2294.74 835.121c-13.21-15.087-33.14-25.759-51.28-19.93-27.9 8.972-31.61 55.193 4.21 97.15 4.25 4.97 45.48-10.593 49.65-43.625 2.18-17.254-2.58-33.595-2.58-33.595Z"/>
    <path stroke="#FFB000" stroke-linecap="round" stroke-miterlimit="10" stroke-width="5" d="m2296.33 838.408-13.83-56.289c-2.48-9.592-11.57-15.595-21-13.824l-27.26 5.82c-8.74 1.652-13.7 11.482-13.67 20.74"/>
    <path fill="#fff" d="m2297.32 834.125-2.4.577c-9.6 2.312-15.51 11.973-13.2 21.579l.58 2.401c2.31 9.606 11.97 15.519 21.57 13.207l2.4-.577c9.6-2.312 15.51-11.973 13.2-21.579l-.58-2.401c-2.31-9.606-11.96-15.519-21.57-13.207Z"/>
    <path stroke="#fff" stroke-linecap="round" stroke-miterlimit="10" stroke-width="5" d="M2308.52 869.113c6.35 19.057 28.92 62.125 0 111.538-28.92 49.409-65.74 86.359-37.54 138.609 24.48 45.35 22.86 115.04-42.86 115.04"/>
    <path fill="#fff" d="M2040.3 1229.38h-12.2c-2.73 0-5.4-.79-7.68-2.28a14 14 0 0 1-5.17-6.12l-78.89-181.33c-.92-2.14-1.31-4.47-1.11-6.78.2-2.32.97-4.56 2.24-6.5 1.28-1.95 3.02-3.55 5.06-4.65 2.05-1.11 4.34-1.69 6.67-1.68l91.08 209.34Z"/>
    <path stroke="#154B77" stroke-miterlimit="10" stroke-width="6" d="M2040.3 1229.38h-12.2c-2.73 0-5.4-.79-7.68-2.28a14 14 0 0 1-5.17-6.12l-78.89-181.33c-.92-2.14-1.31-4.47-1.11-6.78.2-2.32.97-4.56 2.24-6.5 1.28-1.95 3.02-3.55 5.06-4.65 2.05-1.11 4.34-1.69 6.67-1.68l91.08 209.34Z"/>
    <path stroke="#000" stroke-miterlimit="10" stroke-opacity=".2" stroke-width="6" d="M2040.3 1229.38h-12.2c-2.73 0-5.4-.79-7.68-2.28a14 14 0 0 1-5.17-6.12l-78.89-181.33c-.92-2.14-1.31-4.47-1.11-6.78.2-2.32.97-4.56 2.24-6.5 1.28-1.95 3.02-3.55 5.06-4.65 2.05-1.11 4.34-1.69 6.67-1.68l91.08 209.34Z"/>
    <path stroke="#000" stroke-miterlimit="10" stroke-opacity=".2" stroke-width="6" d="M2040.3 1229.38h-12.2c-2.73 0-5.4-.79-7.68-2.28a14 14 0 0 1-5.17-6.12l-78.89-181.33c-.92-2.14-1.31-4.47-1.11-6.78.2-2.32.97-4.56 2.24-6.5 1.28-1.95 3.02-3.55 5.06-4.65 2.05-1.11 4.34-1.69 6.67-1.68l91.08 209.34Z"/>
    <path fill="#fff" d="M2291.73 1249.46h-241.37c-2.63 0-5.24-.52-7.68-1.53a20.266 20.266 0 0 1-6.51-4.35 20.013 20.013 0 0 1-4.34-6.52 20.009 20.009 0 0 1-1.53-7.68h241.36c5.32 0 10.43 2.12 14.19 5.88 3.76 3.77 5.88 8.87 5.88 14.2Z"/>
    <path stroke="#154B77" stroke-miterlimit="10" stroke-width="6" d="M2291.73 1249.46h-241.37c-2.63 0-5.24-.52-7.68-1.53a20.266 20.266 0 0 1-6.51-4.35 20.013 20.013 0 0 1-4.34-6.52 20.009 20.009 0 0 1-1.53-7.68h241.36c5.32 0 10.43 2.12 14.19 5.88 3.76 3.77 5.88 8.87 5.88 14.2Z"/>
    <path stroke="#000" stroke-miterlimit="10" stroke-opacity=".2" stroke-width="6" d="M2291.73 1249.46h-241.37c-2.63 0-5.24-.52-7.68-1.53a20.266 20.266 0 0 1-6.51-4.35 20.013 20.013 0 0 1-4.34-6.52 20.009 20.009 0 0 1-1.53-7.68h241.36c5.32 0 10.43 2.12 14.19 5.88 3.76 3.77 5.88 8.87 5.88 14.2Z"/>
    <path stroke="#000" stroke-miterlimit="10" stroke-opacity=".2" stroke-width="6" d="M2291.73 1249.46h-241.37c-2.63 0-5.24-.52-7.68-1.53a20.266 20.266 0 0 1-6.51-4.35 20.013 20.013 0 0 1-4.34-6.52 20.009 20.009 0 0 1-1.53-7.68h241.36c5.32 0 10.43 2.12 14.19 5.88 3.76 3.77 5.88 8.87 5.88 14.2Z"/>
  </g>
  <g clip-path="url(#c)">
    <path stroke="#154B77" stroke-miterlimit="10" stroke-width="6" d="M706.426 1442.33v128.3l-117.551 196.62"/>
    <path stroke="#000" stroke-miterlimit="10" stroke-opacity=".2" stroke-width="6" d="M706.426 1442.33v128.3l-117.551 196.62"/>
    <path stroke="#000" stroke-miterlimit="10" stroke-opacity=".2" stroke-width="6" d="M706.426 1442.33v128.3l-117.551 196.62"/>
    <path stroke="#154B77" stroke-miterlimit="10" stroke-width="6" d="M750.795 1442.33v128.3l117.552 196.62"/>
    <path stroke="#000" stroke-miterlimit="10" stroke-opacity=".2" stroke-width="6" d="M750.795 1442.33v128.3l117.552 196.62"/>
    <path stroke="#000" stroke-miterlimit="10" stroke-opacity=".2" stroke-width="6" d="M750.795 1442.33v128.3l117.552 196.62"/>
    <path fill="#fff" stroke="#FFB000" stroke-miterlimit="10" stroke-width="5" d="M834.312 1398.66H622.918c-12.055 0-21.828 9.78-21.828 21.84s9.773 21.83 21.828 21.83h211.394c12.055 0 21.827-9.77 21.827-21.83 0-12.06-9.772-21.84-21.827-21.84Z"/>
    <path stroke="#154B77" stroke-miterlimit="10" stroke-width="6" d="M728.611 1444.38v323.17"/>
    <path stroke="#000" stroke-miterlimit="10" stroke-opacity=".2" stroke-width="6" d="M728.611 1444.38v323.17m0-323.17v323.17"/>
    <path fill="#B65A18" d="M855.711 1087.94s-4.437 43.49-1.151 43.73c40.702 2.92 87.564 7.94 94.803 10.56 9.874 2.95 38.599 11.42 42.567 15.09 5.009 4.63 7.454 19.85 7.454 21.72 0 1.87-2.39 11.77-2.39 11.77s-6.905.18-7-7.34c-.135-8.91-8.334-10.65-13.883-12.31-2.317-.69-7.937.46-8.508 3.89-.572 3.44 8.239 6.36 9.89 8.61 2.508 3.38.682 7.76.642 7.85l-16.12-6.12c-2.381-.89-14.494-11.8-20.359-22.02 0 0-114.694 35.56-143.213 17.66-10.779-6.75-8.731-28.4-4.341-61.62l61.609-31.47Z"/>
    <path fill="#3ABEBE" d="M683.623 1422.07c110.51.13 123.901 1.07 186.446-1.71 0 0-3.373-31.23 6.588-56.18 29.289-73.37 66.856-60.28 66.856-60.28-27.534-15.7-64.498-29.96-149.451-35.15-8.374-21.91-9.128-40.03-10.731-56.19l-140.601-.2s-18.907 34.23-37.575 103.37c-18.129 67.15 34.138 106.29 78.468 106.34Z"/>
    <path fill="#B65A18" d="M979.652 1448.5c4.881-26.41-.85-70.89-40.687-64.26-39.837 6.62-32.797 32.07-32.757 48.94.111 48.54-16.343 73.05-21.724 114.82-7.43 57.68 4.524 127.34 15.263 173.29l-8.802 19.5s15.295 14.29 50.584 16.67c35.289 2.39 10.144-13.04 10.144-13.04-17.256-17-26.717-29.24-22.272-61.57 3.183-23.16 42.742-193.71 50.251-234.35Z"/>
    <path fill="#3F4D79" d="M894.532 1732.15s-18.089 35.34 4.762 35.41c9.771 0 85.723-.23 85.723-.23s2.961-18.14-22.097-21.52c-3.485-.47-11.454-1.59-11.454-1.59s9.199 11.06-11.326 9.25c-34.329-3.05-34.662-24.95-45.608-21.32Z"/>
    <path fill="#C36F0B" d="M920.797 1306.46c36.376-17.53 40.988 28.38 35.336 49.8-2.309 8.85-26.605 79.11-34.051 102.86-7.445 23.75-63.553 162.92-69.316 245.53-.063.9-8.461 22.28-28.701-39.15-7.509-22.81 12.541-20.25 11.406-30.29-5.477-48.31-13.375-150.91-2.207-206.45 4.509-22.43 33.559-96.3 87.533-122.3Z"/>
    <path fill="#3F4D79" d="M834.867 1638.14s-37.892 3.56-26.78 23.53c4.762 8.53 45.346 78.87 45.346 78.87s15.668-6.35 6.35-29.82c-1.302-3.27-6.16-14.99-6.16-14.99s-5.556 13.14-13.263-5.97c-11.739-28.99 2.167-36.03-5.493-51.62Z"/>
    <path fill="#DBDAFF" d="M797.872 1204.79s9.39-51.17 26.32-100.68c0 0 6.016-3.02 46.885-23.82 0 0 .985-58.32-29.296-86.005-19.994-18.263-60.943-31.761-60.943-31.761l-78.706-4.201c-15.176.898-53.251 5.495-87.223 32.365-33.582 26.552-48.719 56.632-48.719 56.632s44.449 10.43 76.802 48.86l-22.638 108.61s26.186 14.6 87.049 16.19c74.34 1.91 90.469-16.19 90.469-16.19Z"/>
    <path fill="#C36F0B" d="M835.312 1142.75c-.246 9.18-23.018 2.21-23.169 5.76a4.565 4.565 0 0 0 .794 3.5c1.047 1.47 1.738 3.39.277 6.23-1.952 3.79 4.556 4.76 2.58 10.88-1.976 6.13 1.08 5.35 1.461 11.64.42 7.1-29.487 13.27-38.417 9.81a6.158 6.158 0 0 1-2.302-1.64c-12.461.45-191.86 6.42-206.044-14-16.287-23.42 16.938-120.08 16.938-120.08 31.654 11.74 58.006 41.34 58.006 41.34l-8.151 34.18c49.592 2.58 104.994 19.06 133.497 28.59.159-5.38 1.516-8.77 2.381-12.36.706-2.93 4.111-8.59 16.009-8.88 11.898-.29 46.275.23 46.14 5.03Z"/>
    <path fill="#B65A18" d="M587.43 1054.85s30.63 8.6 58.006 41.33l-3.024 12.84s-26.463-24.02-61.665-31.44l6.683-22.73Z"/>
    <path fill="#3F4D79" d="M862.314 866.612c-5.286 12.197-1.222 16.27-.412 19.923.793 3.525.15 24.225-28.924 23.765a12.789 12.789 0 0 0-2.326 11.498 9.925 9.925 0 0 0 12.248 6.812 7.611 7.611 0 0 0 5.222-9.361 5.75 5.75 0 0 0-2.746-3.471 5.766 5.766 0 0 0-4.397-.499 4.313 4.313 0 0 0-2.953 5.312 3.122 3.122 0 0 0 1.483 1.874 3.114 3.114 0 0 0 2.375.27 1.59 1.59 0 1 1 .873 3.057 6.302 6.302 0 0 1-7.779-4.328 7.475 7.475 0 0 1 5.136-9.242 8.943 8.943 0 0 1 11.048 6.153 10.782 10.782 0 0 1-7.357 13.292 13.353 13.353 0 0 1-3.604.501 13.07 13.07 0 0 1-12.557-9.529 15.894 15.894 0 0 1 1.643-12.53c-32.741-2.009-127.115 48.182-127.115 48.182s-20.32 5.892-26.424-7.146c0 0-32.114 1.675-38.614-18.263-2.58-7.9-1.905-13.752-.143-17.945a13.41 13.41 0 0 1-5.715 1.747h-.794a13.086 13.086 0 0 1-13.049-12.284 10.79 10.79 0 0 1 10.152-11.354 8.964 8.964 0 0 1 9.437 8.424 7.48 7.48 0 0 1-7.032 7.885 6.295 6.295 0 0 1-6.644-5.923 1.604 1.604 0 0 1 .401-1.15 1.591 1.591 0 0 1 2.619.366c.09.188.143.392.155.601a3.12 3.12 0 0 0 2.088 2.769c.387.135.797.192 1.206.169a4.3 4.3 0 0 0 4.048-4.534 5.762 5.762 0 0 0-6.095-5.431 7.587 7.587 0 0 0-7.144 8.027 9.907 9.907 0 0 0 10.461 9.306c4.548-.262 9.43-4.549 11.978-9.584-3.85-4.811-12.224-17.278-8.803-30.856 4.056-16.126 19.923-19.326 19.923-19.326s-14.287-30.055 12.699-44.522c7.184-3.851 13.645-5.177 19.288-5.034a14.48 14.48 0 0 1-1.754-2.303 8.476 8.476 0 0 1 2.341-11.315 6.404 6.404 0 0 1 4.993-.984 6.627 6.627 0 0 1 4.262 3.049 5.992 5.992 0 0 1-1.667 8.027 1.586 1.586 0 0 1-2.206-.42 1.59 1.59 0 0 1 .421-2.208 2.788 2.788 0 0 0 .746-3.732 3.455 3.455 0 0 0-2.223-1.588 3.306 3.306 0 0 0-2.54.508 5.259 5.259 0 0 0-1.42 7.051c.928 1.517 4.468 6.297 10.691 4.05a20.99 20.99 0 0 1 1.302-8.528 13.495 13.495 0 0 1 3.405-4.963 14.172 14.172 0 0 1 6.445-3.224 28.697 28.697 0 0 1 10.469-.158s1.167-9.83 12.2-13.824c16.787-6.083 32.543 5.097 32.543 5.097s14.446-16.881 35.178-9.155c17.97 6.71 20.018 19.414 20.248 22.638a11.29 11.29 0 0 0 7.374-2.009c5.349-3.899 3.373-9.528 2.643-11.116a5.262 5.262 0 0 0-6.636-2.78 3.274 3.274 0 0 0-1.841 1.827 3.452 3.452 0 0 0 .087 2.739 2.774 2.774 0 0 0 3.524 1.469 1.587 1.587 0 0 1 2.064.889 1.594 1.594 0 0 1-.889 2.065 5.991 5.991 0 0 1-7.58-3.129 6.612 6.612 0 0 1-.135-5.232 6.428 6.428 0 0 1 3.611-3.581 8.45 8.45 0 0 1 10.7 4.414c2.024 4.487 2.119 10.783-3.667 15.008-.191.143-.389.278-.596.413 3.064.452 6.207 1.421 8.049 3.43 4.468 4.883 0 11.386 0 11.386s11.175 2.033 14.731 10.577c3.556 8.544-2.135 13.014 4.374 19.112 6.508 6.098 12.199 16.675 6.897 28.879Z"/>
    <path fill="#fff" d="M752.74 904.869s.215-61.038 48.592-60.22c48.378.818 28.138 65.5 28.138 65.5l-76.73-5.28Z"/>
    <path fill="#C36F0B" d="M752.78 902.836s-9.485 30.34-50.648 55.479c0 0 46.362 20.129 84.135 5.495l-33.487-60.974Z"/>
    <path fill="#B65A18" d="M786.299 963.802a83.377 83.377 0 0 1-26.781 5.256c-20.541-17.905-10.001-57.925-7.397-64.189.19-.461.468-1.041.794-1.723l33.384 60.656Z"/>
    <path fill="#C36F0B" d="M752.74 904.869c-3.214 7.734 14.033 58.941 33.559 58.941 22.756 0 65.641-71.59 33.519-88.67-32.122-17.08-64.022 22.344-67.078 29.729Z"/>
    <path fill="#fff" d="M717.364 1191.19v-.01H1089.6v19.88H716.864a9.946 9.946 0 0 1-9.938-9.93c0-2.64 1.047-5.16 2.911-7.03a9.952 9.952 0 0 1 7.027-2.91h.5Z"/>
    <path stroke="#154B77" d="M717.364 1191.19v-.01H1089.6v19.88H716.864a9.946 9.946 0 0 1-9.938-9.93c0-2.64 1.047-5.16 2.911-7.03a9.952 9.952 0 0 1 7.027-2.91h.5Z"/>
    <path stroke="#000" stroke-opacity=".2" d="M717.364 1191.19v-.01H1089.6v19.88H716.864a9.946 9.946 0 0 1-9.938-9.93c0-2.64 1.047-5.16 2.911-7.03a9.952 9.952 0 0 1 7.027-2.91h.5Z"/>
    <path stroke="#000" stroke-opacity=".2" d="M717.364 1191.19v-.01H1089.6v19.88H716.864a9.946 9.946 0 0 1-9.938-9.93c0-2.64 1.047-5.16 2.911-7.03a9.952 9.952 0 0 1 7.027-2.91h.5Z"/>
    <path stroke="#154B77" stroke-miterlimit="10" stroke-width="5" d="M1090.1 1211.56H716.864c-2.767 0-5.421-1.09-7.378-3.05a10.45 10.45 0 0 1-3.06-7.38 10.44 10.44 0 0 1 10.438-10.44H1090.1"/>
    <path stroke="#000" stroke-miterlimit="10" stroke-opacity=".2" stroke-width="5" d="M1090.1 1211.56H716.864c-2.767 0-5.421-1.09-7.378-3.05a10.45 10.45 0 0 1-3.06-7.38 10.44 10.44 0 0 1 10.438-10.44H1090.1"/>
    <path stroke="#000" stroke-miterlimit="10" stroke-opacity=".2" stroke-width="5" d="M1090.1 1211.56H716.864c-2.767 0-5.421-1.09-7.378-3.05a10.45 10.45 0 0 1-3.06-7.38 10.44 10.44 0 0 1 10.438-10.44H1090.1"/>
    <path stroke="#000" stroke-miterlimit="10" d="M967.253 1190.01H787.347a5.752 5.752 0 0 1-4.86-2.67 5.756 5.756 0 0 1-.331-5.54l55.362-116.77a16.434 16.434 0 0 1 6.059-6.86 16.45 16.45 0 0 1 8.784-2.54h179.909c.97 0 1.93.24 2.78.71.86.47 1.58 1.14 2.1 1.97.52.82.82 1.76.88 2.73.06.98-.13 1.95-.56 2.83l-55.374 116.77a16.464 16.464 0 0 1-6.065 6.83 16.432 16.432 0 0 1-8.778 2.54Z"/>
    <path fill="#EAEEFF" d="M967.865 1190.01H787.958a5.749 5.749 0 0 1-4.859-2.67 5.747 5.747 0 0 1-.332-5.54l55.363-116.77a16.426 16.426 0 0 1 6.061-6.85 16.447 16.447 0 0 1 8.781-2.55h179.908c.97 0 1.92.25 2.77.72.85.46 1.57 1.14 2.09 1.96.52.82.82 1.76.88 2.73a5.8 5.8 0 0 1-.55 2.81l-55.363 116.79a16.472 16.472 0 0 1-6.063 6.84 16.341 16.341 0 0 1-8.779 2.53Z"/>
    <path stroke="#154B77" stroke-miterlimit="10" stroke-width="6" d="M967.865 1190.01H787.958a5.749 5.749 0 0 1-4.859-2.67 5.747 5.747 0 0 1-.332-5.54l55.363-116.77a16.426 16.426 0 0 1 6.061-6.85 16.447 16.447 0 0 1 8.781-2.55h179.908c.97 0 1.92.25 2.77.72.85.46 1.57 1.14 2.09 1.96.52.82.82 1.76.88 2.73a5.8 5.8 0 0 1-.55 2.81l-55.363 116.79a16.472 16.472 0 0 1-6.063 6.84 16.341 16.341 0 0 1-8.779 2.53Z"/>
    <path stroke="#000" stroke-miterlimit="10" stroke-opacity=".2" stroke-width="6" d="M967.865 1190.01H787.958a5.749 5.749 0 0 1-4.859-2.67 5.747 5.747 0 0 1-.332-5.54l55.363-116.77a16.426 16.426 0 0 1 6.061-6.85 16.447 16.447 0 0 1 8.781-2.55h179.908c.97 0 1.92.25 2.77.72.85.46 1.57 1.14 2.09 1.96.52.82.82 1.76.88 2.73a5.8 5.8 0 0 1-.55 2.81l-55.363 116.79a16.472 16.472 0 0 1-6.063 6.84 16.341 16.341 0 0 1-8.779 2.53Z"/>
    <path stroke="#000" stroke-miterlimit="10" stroke-opacity=".2" stroke-width="6" d="M967.865 1190.01H787.958a5.749 5.749 0 0 1-4.859-2.67 5.747 5.747 0 0 1-.332-5.54l55.363-116.77a16.426 16.426 0 0 1 6.061-6.85 16.447 16.447 0 0 1 8.781-2.55h179.908c.97 0 1.92.25 2.77.72.85.46 1.57 1.14 2.09 1.96.52.82.82 1.76.88 2.73a5.8 5.8 0 0 1-.55 2.81l-55.363 116.79a16.472 16.472 0 0 1-6.063 6.84 16.341 16.341 0 0 1-8.779 2.53Z"/>
    <path fill="#fff" d="m789.506 1187.08 54.251-114.45a16.14 16.14 0 0 1 5.943-6.71 16.084 16.084 0 0 1 8.606-2.49h167.584c.95 0 1.88.24 2.72.7.83.46 1.53 1.12 2.04 1.93a5.619 5.619 0 0 1 .32 5.43l-51.438 108.54a10.344 10.344 0 0 1-9.302 5.93l-180.724 1.12Z"/>
    <path fill="#EAEEFF" d="M873.657 1123.83v63.25h36.757l-36.757-63.25Z"/>
    <path stroke="#000" stroke-miterlimit="10" d="M1007.85 1189.7h-94.38l-36.757-63.23h94.382l36.755 63.23Z"/>
    <path fill="#C7BFFF" d="M1001.57 1189.7h-87.64l-36.757-63.23h87.643l36.754 63.23Z"/>
    <path fill="#fff" d="M1010.31 1189.7h-87.648l-36.758-63.23h87.644l36.762 63.23Z"/>
    <path stroke="#154B77" stroke-miterlimit="10" stroke-width="6" d="M1007.85 1190.03h-94.38l-36.757-63.24h94.382l36.755 63.24Z"/>
    <path stroke="#000" stroke-miterlimit="10" stroke-opacity=".2" stroke-width="6" d="M1007.85 1190.03h-94.38l-36.757-63.24h94.382l36.755 63.24Z"/>
    <path stroke="#000" stroke-miterlimit="10" stroke-opacity=".2" stroke-width="6" d="M1007.85 1190.03h-94.38l-36.757-63.24h94.382l36.755 63.24Z"/>
  </g>
  <path fill="#D8D8D8" d="M2895.82 834.117H2468.6c-1.99 0-3.6 1.611-3.6 3.599v2.224c0 1.988 1.61 3.6 3.6 3.6h427.22c1.99 0 3.6-1.612 3.6-3.6v-2.224a3.598 3.598 0 0 0-3.6-3.599Z"/>
  <path fill="#969696" d="M2649.06 647h-25.96a7.489 7.489 0 0 0-7.49 7.492v172.133a7.489 7.489 0 0 0 7.49 7.492h25.96c4.13 0 7.49-3.354 7.49-7.492V654.492a7.495 7.495 0 0 0-7.49-7.492Z"/>
  <path fill="#D8D8D8" d="M2670.8 690.868h-8.02c-3.44 0-6.23 2.79-6.23 6.233v130.783a6.232 6.232 0 0 0 6.23 6.233h8.02c3.44 0 6.23-2.791 6.23-6.233V697.101a6.232 6.232 0 0 0-6.23-6.233Z"/>
  <path fill="#969696" d="M2691.49 690.868h-8.43a6.03 6.03 0 0 0-6.03 6.028v131.193a6.03 6.03 0 0 0 6.03 6.028h8.43c3.32 0 6.02-2.699 6.02-6.028V696.896c0-3.329-2.7-6.028-6.02-6.028Z"/>
  <path fill="#D8D8D8" d="m2706.34 701.12-6.92 3.175c-3.23 1.483-4.64 5.306-3.16 8.537l54.39 118.483c1.48 3.231 5.31 4.648 8.54 3.165l6.91-3.175a6.444 6.444 0 0 0 3.17-8.537l-54.39-118.483a6.444 6.444 0 0 0-8.54-3.165Zm-70.28 85.647c6.32 0 11.45-5.123 11.45-11.442 0-6.32-5.13-11.443-11.45-11.443-6.32 0-11.44 5.123-11.44 11.443 0 6.319 5.12 11.442 11.44 11.442Zm10.36 6.848h-20.71a2.75 2.75 0 0 0-2.75 2.751 2.75 2.75 0 0 0 2.75 2.75h20.71a2.75 2.75 0 0 0 2.75-2.75 2.75 2.75 0 0 0-2.75-2.751Zm0 14.076h-20.71a2.75 2.75 0 0 0-2.75 2.751 2.75 2.75 0 0 0 2.75 2.751h20.71a2.75 2.75 0 0 0 2.75-2.751 2.75 2.75 0 0 0-2.75-2.751Z"/>
  <path fill="#969696" d="M2668.93 712.494a2.14 2.14 0 0 0-4.28 0v99.967c0 1.18.96 2.136 2.14 2.136 1.18 0 2.14-.956 2.14-2.136v-99.967Z"/>
  <path fill="#D8D8D8" d="M2579.06 838.829h-18.32a7.283 7.283 0 0 0-7.28 7.286 7.284 7.284 0 0 0 7.28 7.287h18.32c4.03 0 7.29-3.262 7.29-7.287a7.286 7.286 0 0 0-7.29-7.286Zm224.62 0h-18.32a7.286 7.286 0 0 0-7.29 7.286 7.286 7.286 0 0 0 7.29 7.287h18.32c4.02 0 7.28-3.262 7.28-7.287a7.283 7.283 0 0 0-7.28-7.286Z"/>
  <path fill="#78E5E1" d="M1942.61 727.408h-150.87c-4.9 0-8.87 3.97-8.87 8.867v49.282a8.868 8.868 0 0 0 8.87 8.867h150.87c4.9 0 8.87-3.97 8.87-8.867v-49.282a8.868 8.868 0 0 0-8.87-8.867Z"/>
  <path fill="#78E5E1" d="m1867.14 840.369 20.31-61.514h-40.61l20.3 61.514Z"/>
  <path fill="#fff" d="m1826.91 745.26-17.03 29.469h34.03l-17-29.469Zm80.5 29.469 17.03-29.469h-34.06l17.03 29.469Zm-40.27-1.931c7.07 0 12.79-5.726 12.79-12.789s-5.72-12.788-12.79-12.788c-7.06 0-12.78 5.725-12.78 12.788 0 7.063 5.72 12.789 12.78 12.789Z"/>
  <path fill="#D8D8D8" d="M1854.01 585.388h-99.03a7.753 7.753 0 0 0-7.75 7.755v59.875a7.753 7.753 0 0 0 7.75 7.755h99.03c4.28 0 7.75-3.472 7.75-7.755v-59.875a7.753 7.753 0 0 0-7.75-7.755Z"/>
  <path stroke="#969696" stroke-linecap="round" stroke-linejoin="round" stroke-width=".82" d="m1750.83 587.759 53.66 35.322m57.27-37.693-57.27 37.693"/>
  <path fill="#FBDC8E" d="M1861.76 601.776c9.05 0 16.39-7.337 16.39-16.388 0-9.051-7.34-16.388-16.39-16.388s-16.39 7.337-16.39 16.388c0 9.051 7.34 16.388 16.39 16.388Z"/>
  <path fill="#fff" d="M1859.44 572.037v5.309h-.65v-4.635h-.03l-1.29.861v-.654l1.32-.881h.65Z"/>
  <path fill="#FBDC8E" d="M1466.71 560.04h17.56a7.003 7.003 0 0 0 4.92-2.049 7.024 7.024 0 0 0 2.05-4.916V445.147c0-.914-.18-1.82-.53-2.664a7.03 7.03 0 0 0-1.52-2.252l-22.18-22.182a6.943 6.943 0 0 0-2.26-1.515 6.922 6.922 0 0 0-2.66-.534h-65.52a6.983 6.983 0 0 0-4.91 2.048 6.984 6.984 0 0 0-2.05 4.917v10.418"/>
  <path fill="#D8D8D8" d="M1437.22 433.383h-64.38c-1.03 0-2.05.204-3.01.6-.95.396-1.81.976-2.54 1.708a7.783 7.783 0 0 0-1.7 2.554 7.963 7.963 0 0 0-.59 3.01v128.179a7.879 7.879 0 0 0 7.84 7.872h86a7.886 7.886 0 0 0 5.55-2.316 7.869 7.869 0 0 0 2.29-5.556V462.911a7.75 7.75 0 0 0-.58-3.007 7.789 7.789 0 0 0-1.7-2.553l-21.65-21.656a7.866 7.866 0 0 0-5.53-2.312Z"/>
  <path fill="#969696" d="M1466.71 459.838h-21.85c-1.17 0-2.29-.462-3.11-1.285a4.4 4.4 0 0 1-1.28-3.104v-22.066"/>
  <path fill="#64CCC4" d="M1491.32 442.484h-21.86a4.435 4.435 0 0 1-3.11-1.302 4.404 4.404 0 0 1-1.3-3.117V416"/>
  <path fill="#969696" d="M1399.97 446.611h-20.72a2.75 2.75 0 0 0-2.75 2.751 2.75 2.75 0 0 0 2.75 2.751h20.72a2.75 2.75 0 0 0 2.75-2.751 2.75 2.75 0 0 0-2.75-2.751Zm0 13.227h-20.72a2.75 2.75 0 0 0-2.75 2.751 2.75 2.75 0 0 0 2.75 2.751h20.72a2.75 2.75 0 0 0 2.75-2.751 2.75 2.75 0 0 0-2.75-2.751Zm53.72 22.621h-75.64a2.75 2.75 0 0 0-2.75 2.751 2.75 2.75 0 0 0 2.75 2.751h75.64a2.75 2.75 0 0 0 2.75-2.751 2.75 2.75 0 0 0-2.75-2.751Zm0 12.994h-75.64a2.75 2.75 0 0 0-2.75 2.751 2.75 2.75 0 0 0 2.75 2.751h75.64a2.75 2.75 0 0 0 2.75-2.751 2.75 2.75 0 0 0-2.75-2.751Zm0 12.994h-75.64a2.75 2.75 0 0 0-2.75 2.751 2.75 2.75 0 0 0 2.75 2.751h75.64a2.75 2.75 0 0 0 2.75-2.751 2.75 2.75 0 0 0-2.75-2.751Z"/>
  <path fill="#D8D8D8" d="M1652.95 650.326h-106.84c-19.39 0-35.11 15.723-35.11 35.118v52.119c0 19.395 15.72 35.118 35.11 35.118h106.84c19.39 0 35.11-15.723 35.11-35.118v-52.119c0-19.395-15.72-35.118-35.11-35.118Z"/>
  <path fill="#AB8DE5" d="M1574.26 670.021h-26.62v82.964h26.62v-82.964Zm38.6 55.193h-26.63v27.801h26.63v-27.801Zm38.57-23.412h-26.63v51.183h26.63v-51.183Z"/>
  <path fill="#000" d="M1115.6 404.732c0-10.231-8.3-18.524-18.53-18.524s-18.52 8.293-18.52 18.524v63.943c0 10.231 8.29 18.524 18.52 18.524s18.53-8.293 18.53-18.524v-63.943Z"/>
  <path fill="#FBDC8E" d="M1097.07 594.687c20.53 0 37.16-16.639 37.16-37.165 0-20.527-16.63-37.166-37.16-37.166-20.52 0-37.16 16.639-37.16 37.166 0 20.526 16.64 37.165 37.16 37.165Z"/>
  <path fill="#AB8DE5" d="M1097.07 445.468a112.007 112.007 0 0 0-42.88 8.521 111.94 111.94 0 0 0-36.36 24.289A112.054 112.054 0 0 0 985 557.522h224.14a111.92 111.92 0 0 0-8.53-42.888 112.106 112.106 0 0 0-24.29-36.356 112.046 112.046 0 0 0-79.25-32.81Z"/>
  <path stroke="#000" stroke-linecap="round" stroke-linejoin="round" stroke-width="2" d="M1097.07 407.542V1"/>
  <path fill="#000" d="M314.951 1416.72c38.396 7.27 31.546 236.46-42.155 222.6-69.598-13.22-4.688-231.51 42.155-222.6Z"/>
  <path fill="#FBDC8E" d="M146.372 1445.01c30.555-17.3 158.455 143.66 99.951 176.76-55.27 31.41-137.155-155.66-99.951-176.76Z"/>
  <path fill="#969696" d="M302.078 1750.03h-77.156c-3.108 0-6.106-1.15-8.421-3.22a12.656 12.656 0 0 1-4.128-8.02l-9.741-87.47c-.211-1.77-.044-3.57.49-5.28.534-1.7 1.423-3.27 2.609-4.61a12.55 12.55 0 0 1 4.269-3.14 12.849 12.849 0 0 1 5.182-1.12h96.233c1.772 0 3.524.38 5.142 1.1 1.618.72 3.066 1.78 4.25 3.1a12.624 12.624 0 0 1 3.157 9.79l-9.316 87.47a12.657 12.657 0 0 1-12.57 11.4Z"/>
  <path fill="#AB8DE5" d="M336.635 1327.47c29.242 8.49 6.831 185.39-49.167 169.1-52.866-15.36 13.58-179.45 49.167-169.1Z"/>
  <path fill="#FBDC8E" d="M384.852 1468.21c20.209 17.43-62 150.69-100.84 117.22-36.679-31.46 76.166-138.4 100.84-117.22Z"/>
  <path fill="#78E5E1" d="M263.702 1345.86c43.772 0 83.845 279.51 0 279.51-79.177 0-53.29-279.51 0-279.51Z"/>
  <path fill="#D8D8D8" d="M340.515 1618.26H186.526a8.181 8.181 0 0 0-8.185 8.18v14.92c0 4.52 3.665 8.18 8.185 8.18h153.989a8.18 8.18 0 0 0 8.184-8.18v-14.92a8.18 8.18 0 0 0-8.184-8.18Z"/>
  <path fill="#78E5E1" d="M2066 647.93c44.97 0 81.43-36.457 81.43-81.43 0-44.972-36.46-81.43-81.43-81.43-44.97 0-81.43 36.458-81.43 81.43 0 44.973 36.46 81.43 81.43 81.43Z"/>
  <path stroke="#fff" stroke-linecap="round" stroke-miterlimit="10" stroke-width="2" d="m2078.03 559.65-12.21-6.95-12.11 7.1.08 14.05 12.21 6.94 12.12-7.1-.09-14.04Zm-11.76 7.1V478m0 88.75h56.23"/>
  <path fill="#fff" d="M1996.5 569.5c1.66 0 3-1.343 3-3s-1.34-3-3-3-3 1.343-3 3 1.34 3 3 3Zm138.81 0c1.66 0 3-1.343 3-3s-1.34-3-3-3-3 1.343-3 3 1.34 3 3 3Zm-69.4 71.5c1.66 0 3-1.343 3-3s-1.34-3-3-3-3 1.343-3 3 1.34 3 3 3Zm0-144.1c1.66 0 3-1.343 3-3s-1.34-3-3-3-3 1.343-3 3 1.34 3 3 3Z"/>
  <g clip-path="url(#d)">
    <path fill="#1F161E" d="M2921.72 1650.13v-1.78l-4.24-5.32-9.72-11.96-10.43-12.66s-10.04-6.97-12.62-8.17c-9.4-4.37-18.66-7.7-29.73-7.7-6.8 0-32.24 1.03-32.29 5.32 0 6.36 35.62 30.46 61.74 42.16 11.38.11 37.29.11 37.29.11Z"/>
    <path fill="#FBDC8E" d="M2916.33 1650.13c-36.25-27.93-110.24-180.57-91.27-237.13 40.4 20.65 84.73 91.87 105.64 152.01 1.11 3.91 1.99 7.88 2.65 11.9l8.49 39 2.12 34.22h-27.63Z"/>
    <path fill="#73E5E2" d="M2941.08 1650.13c-12.23-9.97-16.14-39.47-16.25-50.48-.19-20.55 2.96-35.69 20.47-58.29 17.52-22.61 12.8-60.12 36.13-85.4 23.33-25.28 38.67-32.32 66.28-32.32s36.36 44.89 36.29 56.18c-.32 45.53-28.93 51.96-46.36 73.72-12.68 15.78-13.66 28.68-17.5 36.06-20.61 39.69-37.3 54.69-49.67 60.53"/>
    <path stroke="#fff" stroke-linecap="round" stroke-linejoin="round" stroke-width=".4" d="M2947.76 1646.83c.35-77.71 81.99-194.42 99.44-211.92"/>
    <path stroke="#fff" stroke-linecap="round" stroke-linejoin="round" stroke-width=".4" d="M2952.23 1611.57c-9.03-9.88-17.25-37.87-16.01-45.14m-7.13 77.05c-12.79-22.8-73.51-133.71-96.22-215.43"/>
    <path fill="#B37361" d="M2970.47 1650.13h38L2976.66 1769h-85.07l-31.31-118.87h110.19Z"/>
    <path stroke="#fff" stroke-linecap="round" stroke-linejoin="round" stroke-width=".4" d="M2835.04 1610.29c18.55 1.28 41.88 2.13 58.42 13.38"/>
  </g>
  <defs>
    <clipPath id="a">
      <path fill="#fff" d="M0 0h629.427v911.551H0z" transform="translate(1213.68 857.314)"/>
    </clipPath>
    <clipPath id="b">
      <path fill="#fff" d="M0 0h577.199v1003H0z" transform="translate(1932.8 766)"/>
    </clipPath>
    <clipPath id="c">
      <path fill="#fff" d="M0 0h524.099v1000.89H0z" transform="translate(566 767.588)"/>
    </clipPath>
    <clipPath id="d">
      <path fill="#fff" d="M0 0h262v356H0z" transform="translate(2822 1413)"/>
    </clipPath>
  </defs>
</svg>
