<svg xmlns="http://www.w3.org/2000/svg" width="4111" height="2308" fill="none" viewBox="0 0 4111 2308">
  <path fill="#CEECF2" fill-opacity=".33" d="M3647.68 1510.75c-1.63-55.24-9.8-110.48-25.59-163.87-38.11-133.03-129.03-249.49-173.14-380.219-42.46-126.125-44.1-258.234-67.51-387.121-34.84-190.569-128.49-386.201-318.51-492.533-139.92-78.253-317.42-98.506-483.48-79.173-259.16 29.92-476.95 177.68-735.57 197.933-199.27 15.651-380.58-63.983-575.49-63.522-164.97.46-337.569 25.317-476.951 105.411-127.404 73.649-223.229 186.426-264.608 312.091-18.512 56.157-26.679 114.617-43.012 171.235-53.358 183.664-203.084 294.138-318.51 446.038-86.025 113.24-145.916 242.13-161.705 377-25.59 223.71 86.025 466.29 305.443 575.39 79.491 39.58 168.238 60.76 257.53 77.79 375.678 72.73 762.793 82.86 1146.633 92.52 344.65 8.75 689.29 17.49 1032.85-14.27 181.85-16.57 364.78-53.39 523.22-134.87 255.9-132.57 386.03-378.83 378.4-639.83Z"/>
  <path fill="#fff" d="M1460.22 1542.36h-234.96c-17.7 0-32.04 14.36-32.04 32.07s14.34 32.07 32.04 32.07h234.96c17.69 0 32.04-14.36 32.04-32.07s-14.35-32.07-32.04-32.07Z"/>
  <path stroke="#154B77" stroke-miterlimit="10" stroke-width="6" d="M1460.22 1542.36h-234.96c-17.7 0-32.04 14.36-32.04 32.07s14.34 32.07 32.04 32.07h234.96c17.69 0 32.04-14.36 32.04-32.07s-14.35-32.07-32.04-32.07Z"/>
  <path stroke="#000" stroke-miterlimit="10" stroke-opacity=".2" stroke-width="6" d="M1460.22 1542.36h-234.96c-17.7 0-32.04 14.36-32.04 32.07s14.34 32.07 32.04 32.07h234.96c17.69 0 32.04-14.36 32.04-32.07s-14.35-32.07-32.04-32.07Z"/>
  <path stroke="#000" stroke-miterlimit="10" stroke-opacity=".2" stroke-width="6" d="M1460.22 1542.36h-234.96c-17.7 0-32.04 14.36-32.04 32.07s14.34 32.07 32.04 32.07h234.96c17.69 0 32.04-14.36 32.04-32.07s-14.35-32.07-32.04-32.07Z"/>
  <path stroke="#154B77" stroke-miterlimit="10" stroke-width="6" d="M1212.55 1951.61c-.28.01-.55-.05-.81-.16s-.49-.28-.68-.48a2.07 2.07 0 0 1-.41-.72 2.12 2.12 0 0 1-.08-.83l48.22-342.92h157.13l-201.62 344.13c-.18.3-.44.55-.74.72-.31.18-.65.27-1.01.26Z"/>
  <path stroke="#000" stroke-miterlimit="10" stroke-opacity=".2" stroke-width="6" d="M1212.55 1951.61c-.28.01-.55-.05-.81-.16s-.49-.28-.68-.48a2.07 2.07 0 0 1-.41-.72 2.12 2.12 0 0 1-.08-.83l48.22-342.92h157.13l-201.62 344.13c-.18.3-.44.55-.74.72-.31.18-.65.27-1.01.26Z"/>
  <path stroke="#000" stroke-miterlimit="10" stroke-opacity=".2" stroke-width="6" d="M1212.55 1951.61c-.28.01-.55-.05-.81-.16s-.49-.28-.68-.48a2.07 2.07 0 0 1-.41-.72 2.12 2.12 0 0 1-.08-.83l48.22-342.92h157.13l-201.62 344.13c-.18.3-.44.55-.74.72-.31.18-.65.27-1.01.26Z"/>
  <path stroke="#154B77" stroke-miterlimit="10" stroke-width="6" d="M1471.01 1951.61c.29.01.57-.05.82-.16a1.941 1.941 0 0 0 1.09-1.22c.08-.27.1-.56.06-.84l-56.25-342.89H1259.6l209.7 344.16c.18.3.43.54.73.7.3.17.64.25.98.25Z"/>
  <path stroke="#000" stroke-miterlimit="10" stroke-opacity=".2" stroke-width="6" d="M1471.01 1951.61c.29.01.57-.05.82-.16a1.941 1.941 0 0 0 1.09-1.22c.08-.27.1-.56.06-.84l-56.25-342.89H1259.6l209.7 344.16c.18.3.43.54.73.7.3.17.64.25.98.25Z"/>
  <path stroke="#000" stroke-miterlimit="10" stroke-opacity=".2" stroke-width="6" d="M1471.01 1951.61c.29.01.57-.05.82-.16a1.941 1.941 0 0 0 1.09-1.22c.08-.27.1-.56.06-.84l-56.25-342.89H1259.6l209.7 344.16c.18.3.43.54.73.7.3.17.64.25.98.25Z"/>
  <path fill="#B65A18" d="M1523.12 1822.56c10.91 1.09 28.55 3.24 49.61 1.24-5.41 20.87-7.89 40.82-11.82 58.54-2.54 11.42 12.94 26.87 17.63 38.05-.12-.07-.24-.12-.36-.17-21.47-3.43-50.21 16.89-47.25-14.82 2.84-31.75-4.3-55.03-7.81-82.84Z"/>
  <path fill="#642648" d="M1531.58 1882.05c-7.39 0-20.98 13.35-19.8 34.72.67 12.6 2.75 25.09 6.22 37.23h86.13c4.04-30.54-25.95-33.83-25.95-33.83-21.48-3.43-49.14 16.89-46.18-14.81l-.42-23.31Z"/>
  <path fill="#C36F0B" d="M1463.27 1823.37c10.91 1.09 34.22 2.43 55.27.43-5.4 20.87-8.58 58.55-8.58 58.55-2.54 11.41 12.94 26.86 17.63 38.04-.12-.07-.24-.12-.37-.17-21.46-3.43-50.2 16.89-47.24-14.82 2.83-31.75-16.71-82.03-16.71-82.03Z"/>
  <path fill="#722D54" d="M1479 1882.05c-7.38 0-19.36 13.35-18.17 34.72.66 12.6 2.75 25.09 6.21 37.23h86.14c4.04-30.54-25.96-33.83-25.96-33.83-21.47-3.43-49.13 16.89-46.17-14.81l-2.05-23.31Z"/>
  <path fill="#3ABEBE" d="M1290.2 1363.34s-74.01 89.64-68.75 149.42c5.27 59.78 66.62 77.46 179.55 76.14 0 0 3.31 89.67 61.95 234.72 0 0 27.22 5.26 60.66 0 0 0 28.31 2.86 49.33-.13 0 0 44.84-293.29 39.39-323.03-7.22-39.42-149.95-74.98-186.89-83.51l-30.89-53.61s-62.01 7.88-104.35 0Z"/>
  <path fill="#3ABEBE" d="M1373.15 1451.62s118.37 31.08 132.83 69.18c14.45 38.1 15.19 306.06 15.19 306.06"/>
  <path stroke="#fff" stroke-miterlimit="10" stroke-width="4" d="M1373.15 1451.62s118.37 31.08 132.83 69.18c14.45 38.1 15.19 306.06 15.19 306.06"/>
  <path fill="#F0E1D4" d="M1432.99 1251.17s-4.59 64.04-38.74 112.32c0 0-55.8 9.53-104.33 0 0 0-48.08-50.6-61.86-105.44 0 0-45.79-92.94-25.07-108.7 20.71-15.77 72.24-42.9 72.24-42.9l104.83 5.15c12.94 7.86 40.53 20.72 68.1 35.17l-15.17 104.4Z"/>
  <path fill="#F0E1D4" stroke="#fff" stroke-linejoin="round" stroke-width="5" d="M1348.05 1229.9a7.56 7.56 0 0 0 7.56-7.56c0-4.18-3.39-7.57-7.56-7.57-4.18 0-7.56 3.39-7.56 7.57s3.38 7.56 7.56 7.56Zm0 30.63c4.17 0 7.56-3.39 7.56-7.57a7.56 7.56 0 0 0-7.56-7.56c-4.18 0-7.56 3.38-7.56 7.56s3.38 7.57 7.56 7.57Zm0 30.62c4.17 0 7.56-3.39 7.56-7.57s-3.39-7.57-7.56-7.57c-4.18 0-7.56 3.39-7.56 7.57s3.38 7.57 7.56 7.57Z"/>
  <path fill="#F0E1D4" d="M1448.09 1146.76c27.57 14.46 108.67 200.49 74.92 220.16-70.09 40.9-90.02-115.75-90.02-115.75l15.1-104.41Z"/>
  <path fill="#B65A18" d="M1493.52 1372.72c9.47 4.05 33.88-3.41 61.02-21.2 27.13-17.79-3.65-29.53-3.65-29.53s-36.07-14.49-58.08-4.05c-22.01 10.44-17.41 46.97.71 54.78Z"/>
  <path fill="#fff" stroke="#3F4D79" stroke-linejoin="round" stroke-width="5" d="M1640 1281.96h-148.15l-162.57 106.5h148.15l162.57-106.5Z"/>
  <path fill="#C36F0B" d="M1585.22 1325.9c0-3.87-24.57-26.63-33.97-18.04-3.94 3.6-4.16 34.46-3.8 40.03 1.15 17.72 37.57-2.15 37.77-21.99Z"/>
  <path fill="#F0E1D4" d="M1202.92 1149.35c-8.42 6.68-97.8 142.87-66.17 205.58 35.68 70.79 180.65 12.01 180.65 12.01s-18.4-5.66-6.58-29.31c0 0-59.98-31.94-108.22-22.42 0 0 37.41-62.08 41.35-86.38 3.94-24.31-10.83-103.46-41.03-79.48Z"/>
  <path stroke="#722D54" stroke-miterlimit="10" stroke-width="6" d="m1348.73 1296.18 26.41 59.05"/>
  <path fill="#C36F0B" d="M1310.86 1335.73s26.58-15.17 37.2-9.48c11.64 6.21 25.6 25.9 26.88 29.21 1.28 3.31.91 6.75.71 10.29-.2 3.55-24.26 3.34-28.89 3.08-4.62-.27-29.45 2.68-33.79-1.57-15.91-15.59-2.11-31.53-2.11-31.53Z"/>
  <path fill="#B65A18" d="M1346.75 1368.83c4.66.26 25.93.53 28.64-1.99 5.38-5 2.3-12.46-.39-15.38-2.47-2.69-15.6-19-26.94-25.19 0 0 13.15 22.91-1.31 42.58"/>
  <path fill="#154B77" d="M1303.02 935.853s-11.81-19.053 0-28.903c11.82-9.851 16.68-25.844 38.07-25.95 22.1-.105 30.91 17.135 41.03 15.436 13.75-2.307 23.39-6.743 40.85 2.476 13.98 7.382 14.56 35.055 28.73 33.655 11.28-1.109 23.8-.397 30.19 12.141 4.86 9.494-.32 35.143 6.89 42.039 7.22 6.896 24.27 9.146 25.61 26.933 1.78 24.03-23.29 27.56-16.74 46.64 8.62 25.09-3.54 40.84-24.95 43.71-15.05 2-41.49-20.4-51.19-4.93-8.27 13.18-25.61 19.05-46.91 10.52-21.3-8.53-34.46-5.92-47.59-.33-13.12 5.58-29.21 13.46-40.04 3.93-10.83-9.52-23.9-9.79-38.32-3.83-20.01 8.28-41.48-5.33-38.82-23.42 2.21-14.95-18.3-16.84-20.67-33.83-3.11-22.2 29.53-27.92 20.01-37.44-9.52-9.53-9.18-37.382 19.03-41.073 26.75-3.48 21.02-20.162 28.57-31.566 6.36-9.535 26.24-21.643 46.25-6.208Z"/>
  <path fill="#000" fill-opacity=".2" d="M1303.02 935.853s-11.81-19.053 0-28.903c11.82-9.851 16.68-25.844 38.07-25.95 22.1-.105 30.91 17.135 41.03 15.436 13.75-2.307 23.39-6.743 40.85 2.476 13.98 7.382 14.56 35.055 28.73 33.655 11.28-1.109 23.8-.397 30.19 12.141 4.86 9.494-.32 35.143 6.89 42.039 7.22 6.896 24.27 9.146 25.61 26.933 1.78 24.03-23.29 27.56-16.74 46.64 8.62 25.09-3.54 40.84-24.95 43.71-15.05 2-41.49-20.4-51.19-4.93-8.27 13.18-25.61 19.05-46.91 10.52-21.3-8.53-34.46-5.92-47.59-.33-13.12 5.58-29.21 13.46-40.04 3.93-10.83-9.52-23.9-9.79-38.32-3.83-20.01 8.28-41.48-5.33-38.82-23.42 2.21-14.95-18.3-16.84-20.67-33.83-3.11-22.2 29.53-27.92 20.01-37.44-9.52-9.53-9.18-37.382 19.03-41.073 26.75-3.48 21.02-20.162 28.57-31.566 6.36-9.535 26.24-21.643 46.25-6.208Z"/>
  <path fill="#000" fill-opacity=".2" d="M1303.02 935.853s-11.81-19.053 0-28.903c11.82-9.851 16.68-25.844 38.07-25.95 22.1-.105 30.91 17.135 41.03 15.436 13.75-2.307 23.39-6.743 40.85 2.476 13.98 7.382 14.56 35.055 28.73 33.655 11.28-1.109 23.8-.397 30.19 12.141 4.86 9.494-.32 35.143 6.89 42.039 7.22 6.896 24.27 9.146 25.61 26.933 1.78 24.03-23.29 27.56-16.74 46.64 8.62 25.09-3.54 40.84-24.95 43.71-15.05 2-41.49-20.4-51.19-4.93-8.27 13.18-25.61 19.05-46.91 10.52-21.3-8.53-34.46-5.92-47.59-.33-13.12 5.58-29.21 13.46-40.04 3.93-10.83-9.52-23.9-9.79-38.32-3.83-20.01 8.28-41.48-5.33-38.82-23.42 2.21-14.95-18.3-16.84-20.67-33.83-3.11-22.2 29.53-27.92 20.01-37.44-9.52-9.53-9.18-37.382 19.03-41.073 26.75-3.48 21.02-20.162 28.57-31.566 6.36-9.535 26.24-21.643 46.25-6.208Z"/>
  <path stroke="#154B77" stroke-miterlimit="10" stroke-width="3" d="M1197.71 1009.47c-8.89-10.088-6.05-41.12 22.32-43.055 26.91-1.829 22.21-18.834 30.45-29.72 6.94-9.155 30.2-20.081 52.21-.964"/>
  <path stroke="#000" stroke-miterlimit="10" stroke-opacity=".2" stroke-width="3" d="M1197.71 1009.47c-8.89-10.088-6.05-41.12 22.32-43.055 26.91-1.829 22.21-18.834 30.45-29.72 6.94-9.155 30.2-20.081 52.21-.964"/>
  <path stroke="#000" stroke-miterlimit="10" stroke-opacity=".2" stroke-width="3" d="M1197.71 1009.47c-8.89-10.088-6.05-41.12 22.32-43.055 26.91-1.829 22.21-18.834 30.45-29.72 6.94-9.155 30.2-20.081 52.21-.964"/>
  <path fill="#C36F0B" d="M1306.84 1017.73c-.2 17 .86 63.87-31.67 88.71 0 0 58.41 29.36 71.59 94.39 0 0 9.28-68.55 33.23-89.24 0 0-28.38-16.11-22.15-93.89l-51 .03Z"/>
  <path fill="#B65A18" d="M1363.19 1085.09c-4.05 3.66-8.61 5.74-13.56 5.74-20.49 0-40.9-31.24-42.86-64.64.06-3.29.06-6.15.1-8.46h51c-2.57 31.62.63 53.06 5.32 67.36Z"/>
  <path fill="#C36F0B" d="M1305 1002.35c.22-8.545 3.23-53.207 39.38-51.564 36.14 1.643 42 38.098 38.77 67.334-3.24 29.23-21.03 48.93-33.48 47.62-12.44-1.31-45.66-27.26-44.67-63.39Z"/>
  <path fill="#fff" stroke="#D8BAA3" stroke-miterlimit="10" stroke-width="6" d="M766.28 1795.05h-261a92.265 92.265 0 0 1-65.252-27.03A92.272 92.272 0 0 1 413 1702.77v-153.63c0-10.23 4.064-20.04 11.297-27.27a38.545 38.545 0 0 1 27.273-11.3h197c3.341 0 6.65.65 9.738 1.93a25.16 25.16 0 0 1 8.255 5.51 25.307 25.307 0 0 1 5.512 8.25A25.42 25.42 0 0 1 674 1536v166.77c0 24.47 9.722 47.95 27.028 65.25a92.265 92.265 0 0 0 65.252 27.03Z"/>
  <path fill="#BDBDBD" d="M805.87 1775.45c0 5.2-2.064 10.18-5.737 13.86a19.608 19.608 0 0 1-13.853 5.74h-281a92.418 92.418 0 0 1-35.314-7.02 92.321 92.321 0 0 1-49.942-49.95 92.24 92.24 0 0 1-7.024-35.31v-153.63c0-10.23 4.064-20.04 11.297-27.27a38.545 38.545 0 0 1 27.273-11.3h3a38.483 38.483 0 0 0-8.575 12.61 38.479 38.479 0 0 0-2.995 14.96v153.63a92.13 92.13 0 0 0 4.7 29.14 51.126 51.126 0 0 0 48.53 35h290c2.573-.01 5.121.49 7.501 1.47a19.69 19.69 0 0 1 6.366 4.23 19.614 19.614 0 0 1 5.773 13.84Z"/>
  <path stroke="#154B77" stroke-miterlimit="10" stroke-width="6" d="M805.87 1775.45c0 5.2-2.064 10.18-5.737 13.86a19.608 19.608 0 0 1-13.853 5.74h-281a92.418 92.418 0 0 1-35.314-7.02 92.321 92.321 0 0 1-49.942-49.95 92.24 92.24 0 0 1-7.024-35.31v-153.63c0-10.23 4.064-20.04 11.297-27.27a38.545 38.545 0 0 1 27.273-11.3h3a38.483 38.483 0 0 0-8.575 12.61 38.479 38.479 0 0 0-2.995 14.96v153.63a92.13 92.13 0 0 0 4.7 29.14 51.126 51.126 0 0 0 48.53 35h290c2.573-.01 5.121.49 7.501 1.47a19.69 19.69 0 0 1 6.366 4.23 19.614 19.614 0 0 1 5.773 13.84Z"/>
  <path stroke="#000" stroke-miterlimit="10" stroke-opacity=".2" stroke-width="6" d="M805.87 1775.45c0 5.2-2.064 10.18-5.737 13.86a19.608 19.608 0 0 1-13.853 5.74h-281a92.418 92.418 0 0 1-35.314-7.02 92.321 92.321 0 0 1-49.942-49.95 92.24 92.24 0 0 1-7.024-35.31v-153.63c0-10.23 4.064-20.04 11.297-27.27a38.545 38.545 0 0 1 27.273-11.3h3a38.483 38.483 0 0 0-8.575 12.61 38.479 38.479 0 0 0-2.995 14.96v153.63a92.13 92.13 0 0 0 4.7 29.14 51.126 51.126 0 0 0 48.53 35h290c2.573-.01 5.121.49 7.501 1.47a19.69 19.69 0 0 1 6.366 4.23 19.614 19.614 0 0 1 5.773 13.84Z"/>
  <path stroke="#000" stroke-miterlimit="10" stroke-opacity=".2" stroke-width="6" d="M805.87 1775.45c0 5.2-2.064 10.18-5.737 13.86a19.608 19.608 0 0 1-13.853 5.74h-281a92.418 92.418 0 0 1-35.314-7.02 92.321 92.321 0 0 1-49.942-49.95 92.24 92.24 0 0 1-7.024-35.31v-153.63c0-10.23 4.064-20.04 11.297-27.27a38.545 38.545 0 0 1 27.273-11.3h3a38.483 38.483 0 0 0-8.575 12.61 38.479 38.479 0 0 0-2.995 14.96v153.63a92.13 92.13 0 0 0 4.7 29.14 51.126 51.126 0 0 0 48.53 35h290c2.573-.01 5.121.49 7.501 1.47a19.69 19.69 0 0 1 6.366 4.23 19.614 19.614 0 0 1 5.773 13.84Z"/>
  <path fill="#fff" d="M557.1 1795h142.46v17.43c0 3.76-1.492 7.36-4.147 10.01a14.144 14.144 0 0 1-10.013 4.15H571.25c-3.755 0-7.357-1.49-10.013-4.15a14.138 14.138 0 0 1-4.147-10.01V1795h.01Z"/>
  <path stroke="#154B77" stroke-miterlimit="10" stroke-width="6" d="M557.1 1795h142.46v17.43c0 3.76-1.492 7.36-4.147 10.01a14.144 14.144 0 0 1-10.013 4.15H571.25c-3.755 0-7.357-1.49-10.013-4.15a14.138 14.138 0 0 1-4.147-10.01V1795h.01Z"/>
  <path stroke="#000" stroke-miterlimit="10" stroke-opacity=".2" stroke-width="6" d="M557.1 1795h142.46v17.43c0 3.76-1.492 7.36-4.147 10.01a14.144 14.144 0 0 1-10.013 4.15H571.25c-3.755 0-7.357-1.49-10.013-4.15a14.138 14.138 0 0 1-4.147-10.01V1795h.01Z"/>
  <path stroke="#000" stroke-miterlimit="10" stroke-opacity=".2" stroke-width="6" d="M557.1 1795h142.46v17.43c0 3.76-1.492 7.36-4.147 10.01a14.144 14.144 0 0 1-10.013 4.15H571.25c-3.755 0-7.357-1.49-10.013-4.15a14.138 14.138 0 0 1-4.147-10.01V1795h.01Z"/>
  <path fill="#F0E1D4" d="M643.33 1826.63h-30v240.22h30v-240.22Z"/>
  <path stroke="#154B77" stroke-miterlimit="10" stroke-width="6" d="M643.33 1826.63h-30v240.22h30v-240.22Z"/>
  <path stroke="#000" stroke-miterlimit="10" stroke-opacity=".2" stroke-width="6" d="M643.33 1826.63h-30v240.22h30v-240.22Z"/>
  <path stroke="#000" stroke-miterlimit="10" stroke-opacity=".2" stroke-width="6" d="M643.33 1826.63h-30v240.22h30v-240.22Z"/>
  <path fill="#fff" d="M645.09 2066.85h-33.52c-6.76 0-12.24 5.48-12.24 12.24v37.49c0 6.76 5.48 12.24 12.24 12.24h33.52c6.76 0 12.24-5.48 12.24-12.24v-37.49c0-6.76-5.48-12.24-12.24-12.24Z"/>
  <path stroke="#154B77" stroke-miterlimit="10" stroke-width="6" d="M645.09 2066.85h-33.52c-6.76 0-12.24 5.48-12.24 12.24v37.49c0 6.76 5.48 12.24 12.24 12.24h33.52c6.76 0 12.24-5.48 12.24-12.24v-37.49c0-6.76-5.48-12.24-12.24-12.24Z"/>
  <path stroke="#000" stroke-miterlimit="10" stroke-opacity=".2" stroke-width="6" d="M645.09 2066.85h-33.52c-6.76 0-12.24 5.48-12.24 12.24v37.49c0 6.76 5.48 12.24 12.24 12.24h33.52c6.76 0 12.24-5.48 12.24-12.24v-37.49c0-6.76-5.48-12.24-12.24-12.24Z"/>
  <path stroke="#000" stroke-miterlimit="10" stroke-opacity=".2" stroke-width="6" d="M645.09 2066.85h-33.52c-6.76 0-12.24 5.48-12.24 12.24v37.49c0 6.76 5.48 12.24 12.24 12.24h33.52c6.76 0 12.24-5.48 12.24-12.24v-37.49c0-6.76-5.48-12.24-12.24-12.24Z"/>
  <path stroke="#154B77" stroke-miterlimit="10" stroke-width="6" d="M495.55 2184.63c0-14.8 5.88-29 16.346-39.46a55.8 55.8 0 0 1 39.464-16.35H705.3a55.8 55.8 0 0 1 39.464 16.35 55.795 55.795 0 0 1 16.346 39.46"/>
  <path stroke="#000" stroke-miterlimit="10" stroke-opacity=".2" stroke-width="6" d="M495.55 2184.63c0-14.8 5.88-29 16.346-39.46a55.8 55.8 0 0 1 39.464-16.35H705.3a55.8 55.8 0 0 1 39.464 16.35 55.795 55.795 0 0 1 16.346 39.46"/>
  <path stroke="#000" stroke-miterlimit="10" stroke-opacity=".2" stroke-width="6" d="M495.55 2184.63c0-14.8 5.88-29 16.346-39.46a55.8 55.8 0 0 1 39.464-16.35H705.3a55.8 55.8 0 0 1 39.464 16.35 55.795 55.795 0 0 1 16.346 39.46"/>
  <path stroke="#154B77" stroke-miterlimit="10" stroke-width="6" d="M576.68 2184.63v-24.77c0-8.22 3.266-16.11 9.08-21.92a31.013 31.013 0 0 1 21.92-9.08H649c8.222 0 16.107 3.27 21.92 9.08a30.995 30.995 0 0 1 9.08 21.92v24.77"/>
  <path stroke="#000" stroke-miterlimit="10" stroke-opacity=".2" stroke-width="6" d="M576.68 2184.63v-24.77c0-8.22 3.266-16.11 9.08-21.92a31.013 31.013 0 0 1 21.92-9.08H649c8.222 0 16.107 3.27 21.92 9.08a30.995 30.995 0 0 1 9.08 21.92v24.77"/>
  <path stroke="#000" stroke-miterlimit="10" stroke-opacity=".2" stroke-width="6" d="M576.68 2184.63v-24.77c0-8.22 3.266-16.11 9.08-21.92a31.013 31.013 0 0 1 21.92-9.08H649c8.222 0 16.107 3.27 21.92 9.08a30.995 30.995 0 0 1 9.08 21.92v24.77"/>
  <path fill="#3ABEBE" d="M541.69 1510.81S413.8 1694.06 546 1741.3c75.81 27.1 217.54 28.61 324.65 25 40.623-1.4 79.8-15.42 112.081-40.12a195.525 195.525 0 0 0 68.029-97.69l3.91-12.66s-21.73-74.74-355.92-105.27c0 0-70.6 14.27-157.06.25Z"/>
  <path fill="#722D54" d="M1286.94 2184.63h-74.13c-9.23 0-27-37.38-33.41-37.06-6.41.32-12.08 37.06-12.08 37.06h-5.7c-25.48-73 9.27-85.89 9.27-85.89l.2.13c6.65 35 55.92 42 66 43.08l1.8 1.17s23.54 23.54 35 25.13c11.46 1.59 13.05 16.38 13.05 16.38Z"/>
  <path fill="#B65A18" d="M1047.06 1608.61c46.08 14.11 68.72 333.36 191.84 534.51 0 0-61.56-4.3-68-44.38 0 0-186.88-188.26-191.87-300.65-4.99-112.39 39.69-198.16 68.03-189.48Z"/>
  <path fill="#722D54" d="M1087 2184.63h-74.11c-9.23 0-27-37.38-33.4-37.06-6.4.32-12.09 37.06-12.09 37.06h-5.7c-25.48-73 9.27-85.89 9.27-85.89l.15.1.06.19c-11.47 36.24 63.92 45.36 69.79 46 5.91 5.68 23.56 21.9 33 23.21 11.46 1.6 13.03 16.39 13.03 16.39Z"/>
  <path fill="#C36F0B" d="M971.18 2099s-76.18-240.38-55.82-334.61c24.8-114.71 91.57-176.78 123.54-155.78 31.97 21-54.84 344.16-23.1 490.39 3.91 18 25.53 46 25.53 46s-82.08-8.27-70.15-46Z"/>
  <path fill="#F0E1D4" d="M700.75 1149.24s3.57 59.78 63.09 166.25c25.27 45.21-27.84 76-29.33 81.44-1.49 5.44-33.76 118.63-33.76 118.63s-69 20.85-161.32 0c0 0-27.3-270.44-9.93-310.23 15.39-35.24 90.35-78.43 90.35-78.43s35.24 22.83 80.9 22.34Z"/>
  <path stroke="#D8BAA3" stroke-linecap="round" stroke-linejoin="round" stroke-width="5" d="M596.63 1145.21c30.89 43.11 64.91 34.8 64.91 34.8l21.8-28.69s13.42 27.05 21.89 33"/>
  <path stroke="#D8BAA3" stroke-linecap="round" stroke-miterlimit="10" stroke-width="5" d="M631.84 1361.28c21.09 36.93 70.54 22 70.54 22"/>
  <path fill="#C36F0B" d="M850.39 1492.56a7.392 7.392 0 0 1-9.13-.83c-2.91-2.51-7.86-8.52-11.85-11.81a182.239 182.239 0 0 1 7.65 18.36c-6.383.69-12.834.35-19.11-1-5.28-1.06-12-11.05-18.75-16.81-6.75-5.76-19.38-1.2-32.67-1.89-13.29-.69-24.53-18.73-24.53-18.73s-212.76 47.74-246.22 12c-8.24-8.79-11.84-17.14-11.24-24.52-2.39-26.64.27-60.86 5.56-93.53 17.37 6.1 49.13 16.08 80.88 20.09-2.72 17.19-5.53 32.84-7.67 44.21 32.69 2.47 169.05 12.9 187.87 16.14 20.18 3.44 60.53 23.59 67.42 26.61 5.84 2.07 16.47 11.25 19.74 14.71 3.27 3.46 12.05 17 12.05 17Z"/>
  <path fill="#B65A18" d="M571 1373.88c-.51 3.26-1 6.46-1.55 9.58-36-5.54-68.22-1.37-83.47 1.41 1.07-10.32 2.48-20.78 4.15-31.08 17.33 6.1 49.08 16.08 80.87 20.09Z"/>
  <path fill="#F0E1D4" d="M543 1185.52c-20 18.57-45.07 85.33-66.41 163.26 0 0 51.43 20.85 100.57 25.81 0 0 22.83-102.25 22.33-154.87-.5-52.62-30.06-58.66-56.49-34.2Z"/>
  <path stroke="#D8BAA3" stroke-linecap="round" stroke-miterlimit="10" stroke-width="5" d="M578.09 1374.59s8.78-36.63 17.56-81.42"/>
  <path stroke="#B65A18" stroke-linecap="round" stroke-miterlimit="10" stroke-width="3" d="M830.57 1496.19S818.21 1474.31 814 1472c-7.36-4.13-17-9.56-17-9.56m24.91 33.3s-10.94-18-15.12-20.35c-7.36-4.13-17-9.56-17-9.56"/>
  <path fill="#C36F0B" d="M648.14 1053.44s4.47 46.66-28.29 73.46c0 0 41.69 27.8 80.9 22.34l13.9-59.07-66.51-36.73Z"/>
  <path fill="#B65A18" d="m714.66 1090.17-13.9 59.07-1.72.21c-45.1-21.36-50.27-74.9-50.83-84.81a84.23 84.23 0 0 0-.07-11.2l66.52 36.73Z"/>
  <path fill="#C36F0B" d="M648.14 1053.44s6.73 61.05 84.17 70.73c0 0 38.34-22.72 33.89-97.31-3.6-60.43-72.61-74.72-98.67-41.21-26.06 33.51-19.39 67.79-19.39 67.79Z"/>
  <path fill="#154B77" d="M744.16 941.68c19.13 4.14 61.48 29.17 40.37 81Z"/>
  <path fill="#000" fill-opacity=".2" d="M744.16 941.68c19.13 4.14 61.48 29.17 40.37 81Z"/>
  <path fill="#000" fill-opacity=".2" d="M744.16 941.68c19.13 4.14 61.48 29.17 40.37 81Z"/>
  <path stroke="#154B77" stroke-miterlimit="10" stroke-width="3" d="M744.16 941.68c19.13 4.14 61.48 29.17 40.37 81"/>
  <path stroke="#000" stroke-miterlimit="10" stroke-opacity=".2" stroke-width="3" d="M744.16 941.68c19.13 4.14 61.48 29.17 40.37 81"/>
  <path stroke="#000" stroke-miterlimit="10" stroke-opacity=".2" stroke-width="3" d="M744.16 941.68c19.13 4.14 61.48 29.17 40.37 81"/>
  <path fill="#154B77" d="M649.57 940.48s17.68-43.68-13.74-58.12Z"/>
  <path fill="#000" fill-opacity=".2" d="M649.57 940.48s17.68-43.68-13.74-58.12Z"/>
  <path fill="#000" fill-opacity=".2" d="M649.57 940.48s17.68-43.68-13.74-58.12Z"/>
  <path stroke="#154B77" stroke-miterlimit="10" stroke-width="3" d="M649.57 940.48s17.68-43.68-13.74-58.12"/>
  <path stroke="#000" stroke-miterlimit="10" stroke-opacity=".2" stroke-width="3" d="M649.57 940.48s17.68-43.68-13.74-58.12"/>
  <path stroke="#000" stroke-miterlimit="10" stroke-opacity=".2" stroke-width="3" d="M649.57 940.48s17.68-43.68-13.74-58.12"/>
  <path fill="#154B77" d="M702.9 1012.94c-17.2-11-24.45-33.669-22.22-42.089Z"/>
  <path fill="#000" fill-opacity=".2" d="M702.9 1012.94c-17.2-11-24.45-33.669-22.22-42.089Z"/>
  <path fill="#000" fill-opacity=".2" d="M702.9 1012.94c-17.2-11-24.45-33.669-22.22-42.089Z"/>
  <path stroke="#154B77" stroke-miterlimit="10" stroke-width="3" d="M702.9 1012.94c-17.2-11-24.45-33.669-22.22-42.089"/>
  <path stroke="#000" stroke-miterlimit="10" stroke-opacity=".2" stroke-width="3" d="M702.9 1012.94c-17.2-11-24.45-33.669-22.22-42.089"/>
  <path stroke="#000" stroke-miterlimit="10" stroke-opacity=".2" stroke-width="3" d="M702.9 1012.94c-17.2-11-24.45-33.669-22.22-42.089"/>
  <path fill="#154B77" d="M649.182 935.692a55.454 55.454 0 0 1 7.274-2.448c15.539-4.016 35.011-3.577 52.642-1.097 17.634 2.48 33.345 6.989 41.355 11.059 8.653 4.396 21.056 14.452 27.384 28.878 6.31 14.383 6.61 33.176-9.025 55.166-.616.87-1.264 1.72-1.942 2.54-.026-.62-.065-1.24-.104-1.86-.023-.37-.046-.73-.067-1.1a75.06 75.06 0 0 0-1.59-11.64l-.063-.28-.281-.09c-17.553-5.31-36.997-3.81-49.073-2.88-.755.06-1.482.12-2.178.17-15.044-9.29-25.541-28.09-31.183-38.606l-.233-.434-.438.226a40.95 40.95 0 0 0-3.482 2.025l-.223.144-.005.266.062.001h-.062v.006l-.001.022-.002.089-.012.358c-.013.316-.036.785-.075 1.392a92.89 92.89 0 0 1-.496 5.193 119.392 119.392 0 0 1-3.552 17.628c-3.953 14.06-11.667 31.5-26.698 45.11l-.169.15.005.23c.059 2.53.296 5.06.708 7.56l-.855 15.65a31.93 31.93 0 0 1-1.322-.76 73.258 73.258 0 0 1-5.25-3.46 83.108 83.108 0 0 1-15.342-14.42c-10.744-13.07-20.379-33.29-15.915-61.911a64.619 64.619 0 0 1 3.344-12.512l.271-.719-.767.043c-7.072.397-35.103-.1-47.457-31.156h-.001c-6.085-15.277-2.399-33.065 8.606-45.354 10.986-12.268 29.294-19.075 52.51-12.321 11.027 3.209 16.895 12.229 19.954 22.077 3.059 9.85 3.276 20.437 3.056 26.585l-.027.779.719-.299Z"/>
  <path fill="#000" fill-opacity=".2" d="M649.182 935.692a55.454 55.454 0 0 1 7.274-2.448c15.539-4.016 35.011-3.577 52.642-1.097 17.634 2.48 33.345 6.989 41.355 11.059 8.653 4.396 21.056 14.452 27.384 28.878 6.31 14.383 6.61 33.176-9.025 55.166-.616.87-1.264 1.72-1.942 2.54-.026-.62-.065-1.24-.104-1.86-.023-.37-.046-.73-.067-1.1a75.06 75.06 0 0 0-1.59-11.64l-.063-.28-.281-.09c-17.553-5.31-36.997-3.81-49.073-2.88-.755.06-1.482.12-2.178.17-15.044-9.29-25.541-28.09-31.183-38.606l-.233-.434-.438.226a40.95 40.95 0 0 0-3.482 2.025l-.223.144-.005.266.062.001h-.062v.006l-.001.022-.002.089-.012.358c-.013.316-.036.785-.075 1.392a92.89 92.89 0 0 1-.496 5.193 119.392 119.392 0 0 1-3.552 17.628c-3.953 14.06-11.667 31.5-26.698 45.11l-.169.15.005.23c.059 2.53.296 5.06.708 7.56l-.855 15.65a31.93 31.93 0 0 1-1.322-.76 73.258 73.258 0 0 1-5.25-3.46 83.108 83.108 0 0 1-15.342-14.42c-10.744-13.07-20.379-33.29-15.915-61.911a64.619 64.619 0 0 1 3.344-12.512l.271-.719-.767.043c-7.072.397-35.103-.1-47.457-31.156h-.001c-6.085-15.277-2.399-33.065 8.606-45.354 10.986-12.268 29.294-19.075 52.51-12.321 11.027 3.209 16.895 12.229 19.954 22.077 3.059 9.85 3.276 20.437 3.056 26.585l-.027.779.719-.299Z"/>
  <path fill="#000" fill-opacity=".2" d="M649.182 935.692a55.454 55.454 0 0 1 7.274-2.448c15.539-4.016 35.011-3.577 52.642-1.097 17.634 2.48 33.345 6.989 41.355 11.059 8.653 4.396 21.056 14.452 27.384 28.878 6.31 14.383 6.61 33.176-9.025 55.166-.616.87-1.264 1.72-1.942 2.54-.026-.62-.065-1.24-.104-1.86-.023-.37-.046-.73-.067-1.1a75.06 75.06 0 0 0-1.59-11.64l-.063-.28-.281-.09c-17.553-5.31-36.997-3.81-49.073-2.88-.755.06-1.482.12-2.178.17-15.044-9.29-25.541-28.09-31.183-38.606l-.233-.434-.438.226a40.95 40.95 0 0 0-3.482 2.025l-.223.144-.005.266.062.001h-.062v.006l-.001.022-.002.089-.012.358c-.013.316-.036.785-.075 1.392a92.89 92.89 0 0 1-.496 5.193 119.392 119.392 0 0 1-3.552 17.628c-3.953 14.06-11.667 31.5-26.698 45.11l-.169.15.005.23c.059 2.53.296 5.06.708 7.56l-.855 15.65a31.93 31.93 0 0 1-1.322-.76 73.258 73.258 0 0 1-5.25-3.46 83.108 83.108 0 0 1-15.342-14.42c-10.744-13.07-20.379-33.29-15.915-61.911a64.619 64.619 0 0 1 3.344-12.512l.271-.719-.767.043c-7.072.397-35.103-.1-47.457-31.156h-.001c-6.085-15.277-2.399-33.065 8.606-45.354 10.986-12.268 29.294-19.075 52.51-12.321 11.027 3.209 16.895 12.229 19.954 22.077 3.059 9.85 3.276 20.437 3.056 26.585l-.027.779.719-.299Z"/>
  <path stroke="#154B77" d="M649.182 935.692a55.454 55.454 0 0 1 7.274-2.448c15.539-4.016 35.011-3.577 52.642-1.097 17.634 2.48 33.345 6.989 41.355 11.059 8.653 4.396 21.056 14.452 27.384 28.878 6.31 14.383 6.61 33.176-9.025 55.166-.616.87-1.264 1.72-1.942 2.54-.026-.62-.065-1.24-.104-1.86-.023-.37-.046-.73-.067-1.1a75.06 75.06 0 0 0-1.59-11.64l-.063-.28-.281-.09c-17.553-5.31-36.997-3.81-49.073-2.88-.755.06-1.482.12-2.178.17-15.044-9.29-25.541-28.09-31.183-38.606l-.233-.434-.438.226a40.95 40.95 0 0 0-3.482 2.025l-.223.144-.005.266.062.001h-.062v.006l-.001.022-.002.089-.012.358c-.013.316-.036.785-.075 1.392a92.89 92.89 0 0 1-.496 5.193 119.392 119.392 0 0 1-3.552 17.628c-3.953 14.06-11.667 31.5-26.698 45.11l-.169.15.005.23c.059 2.53.296 5.06.708 7.56l-.855 15.65a31.93 31.93 0 0 1-1.322-.76 73.258 73.258 0 0 1-5.25-3.46 83.108 83.108 0 0 1-15.342-14.42c-10.744-13.07-20.379-33.29-15.915-61.911a64.619 64.619 0 0 1 3.344-12.512l.271-.719-.767.043c-7.072.397-35.103-.1-47.457-31.156h-.001c-6.085-15.277-2.399-33.065 8.606-45.354 10.986-12.268 29.294-19.075 52.51-12.321 11.027 3.209 16.895 12.229 19.954 22.077 3.059 9.85 3.276 20.437 3.056 26.585l-.027.779.719-.299Z"/>
  <path stroke="#000" stroke-opacity=".2" d="M649.182 935.692a55.454 55.454 0 0 1 7.274-2.448c15.539-4.016 35.011-3.577 52.642-1.097 17.634 2.48 33.345 6.989 41.355 11.059 8.653 4.396 21.056 14.452 27.384 28.878 6.31 14.383 6.61 33.176-9.025 55.166-.616.87-1.264 1.72-1.942 2.54-.026-.62-.065-1.24-.104-1.86-.023-.37-.046-.73-.067-1.1a75.06 75.06 0 0 0-1.59-11.64l-.063-.28-.281-.09c-17.553-5.31-36.997-3.81-49.073-2.88-.755.06-1.482.12-2.178.17-15.044-9.29-25.541-28.09-31.183-38.606l-.233-.434-.438.226a40.95 40.95 0 0 0-3.482 2.025l-.223.144-.005.266.062.001h-.062v.006l-.001.022-.002.089-.012.358c-.013.316-.036.785-.075 1.392a92.89 92.89 0 0 1-.496 5.193 119.392 119.392 0 0 1-3.552 17.628c-3.953 14.06-11.667 31.5-26.698 45.11l-.169.15.005.23c.059 2.53.296 5.06.708 7.56l-.855 15.65a31.93 31.93 0 0 1-1.322-.76 73.258 73.258 0 0 1-5.25-3.46 83.108 83.108 0 0 1-15.342-14.42c-10.744-13.07-20.379-33.29-15.915-61.911a64.619 64.619 0 0 1 3.344-12.512l.271-.719-.767.043c-7.072.397-35.103-.1-47.457-31.156h-.001c-6.085-15.277-2.399-33.065 8.606-45.354 10.986-12.268 29.294-19.075 52.51-12.321 11.027 3.209 16.895 12.229 19.954 22.077 3.059 9.85 3.276 20.437 3.056 26.585l-.027.779.719-.299Z"/>
  <path stroke="#000" stroke-opacity=".2" d="M649.182 935.692a55.454 55.454 0 0 1 7.274-2.448c15.539-4.016 35.011-3.577 52.642-1.097 17.634 2.48 33.345 6.989 41.355 11.059 8.653 4.396 21.056 14.452 27.384 28.878 6.31 14.383 6.61 33.176-9.025 55.166-.616.87-1.264 1.72-1.942 2.54-.026-.62-.065-1.24-.104-1.86-.023-.37-.046-.73-.067-1.1a75.06 75.06 0 0 0-1.59-11.64l-.063-.28-.281-.09c-17.553-5.31-36.997-3.81-49.073-2.88-.755.06-1.482.12-2.178.17-15.044-9.29-25.541-28.09-31.183-38.606l-.233-.434-.438.226a40.95 40.95 0 0 0-3.482 2.025l-.223.144-.005.266.062.001h-.062v.006l-.001.022-.002.089-.012.358c-.013.316-.036.785-.075 1.392a92.89 92.89 0 0 1-.496 5.193 119.392 119.392 0 0 1-3.552 17.628c-3.953 14.06-11.667 31.5-26.698 45.11l-.169.15.005.23c.059 2.53.296 5.06.708 7.56l-.855 15.65a31.93 31.93 0 0 1-1.322-.76 73.258 73.258 0 0 1-5.25-3.46 83.108 83.108 0 0 1-15.342-14.42c-10.744-13.07-20.379-33.29-15.915-61.911a64.619 64.619 0 0 1 3.344-12.512l.271-.719-.767.043c-7.072.397-35.103-.1-47.457-31.156h-.001c-6.085-15.277-2.399-33.065 8.606-45.354 10.986-12.268 29.294-19.075 52.51-12.321 11.027 3.209 16.895 12.229 19.954 22.077 3.059 9.85 3.276 20.437 3.056 26.585l-.027.779.719-.299Z"/>
  <path stroke="#F0E1D4" stroke-miterlimit="10" stroke-width="5" d="M758.04 1063.99c11.692 0 21.17-9.48 21.17-21.17 0-11.69-9.478-21.17-21.17-21.17-11.692 0-21.17 9.48-21.17 21.17 0 11.69 9.478 21.17 21.17 21.17Zm-52.79 0c11.692 0 21.17-9.48 21.17-21.17 0-11.69-9.478-21.17-21.17-21.17-11.692 0-21.17 9.48-21.17 21.17 0 11.69 9.478 21.17 21.17 21.17Zm31.63-21.17h-10.47m-42.33-3.5-26.63-6.4"/>
  <path stroke="#F2F2F2" stroke-linecap="round" stroke-miterlimit="10" stroke-width="4" d="M647.16 1034.52 664 934.941a22.792 22.792 0 0 1 9.416-14.7 22.809 22.809 0 0 1 17.054-3.73l36.35 6.93a8.687 8.687 0 0 1 6.87 10.1M647 1055.4l-.8 15.74c-.15 8.45 4.32 17.39 13.21 19l72 13.58"/>
  <path fill="#F2F2F2" stroke="#F2F2F2" d="M661.609 1043.23c.061 10.35-6.921 18.63-15.42 18.68-8.499.05-15.578-8.14-15.64-18.49-.061-10.35 6.921-18.62 15.42-18.67 8.499-.05 15.578 8.14 15.64 18.48Zm78.341 61.23c.022 3.67-3.536 6.81-8.139 6.84-4.603.02-8.199-3.07-8.22-6.74-.022-3.68 3.536-6.82 8.139-6.84 4.603-.03 8.199 3.07 8.22 6.74Z"/>
  <path fill="#fff" d="M980.25 1512.12h16.49c3.69 0 7.3-1.08 10.39-3.1a18.97 18.97 0 0 0 6.98-8.29l106.65-245c1.24-2.88 1.75-6.03 1.48-9.16-.28-3.13-1.32-6.14-3.04-8.77a19.062 19.062 0 0 0-6.83-6.28c-2.76-1.5-5.85-2.29-8.99-2.3l-123.13 282.9Z"/>
  <path stroke="#154B77" stroke-miterlimit="10" stroke-width="6" d="M980.25 1512.12h16.49c3.69 0 7.3-1.08 10.39-3.1a18.97 18.97 0 0 0 6.98-8.29l106.65-245c1.24-2.88 1.75-6.03 1.48-9.16-.28-3.13-1.32-6.14-3.04-8.77a19.062 19.062 0 0 0-6.83-6.28c-2.76-1.5-5.85-2.29-8.99-2.3l-123.13 282.9Z"/>
  <path stroke="#000" stroke-miterlimit="10" stroke-opacity=".2" stroke-width="6" d="M980.25 1512.12h16.49c3.69 0 7.3-1.08 10.39-3.1a18.97 18.97 0 0 0 6.98-8.29l106.65-245c1.24-2.88 1.75-6.03 1.48-9.16-.28-3.13-1.32-6.14-3.04-8.77a19.062 19.062 0 0 0-6.83-6.28c-2.76-1.5-5.85-2.29-8.99-2.3l-123.13 282.9Z"/>
  <path stroke="#000" stroke-miterlimit="10" stroke-opacity=".2" stroke-width="6" d="M980.25 1512.12h16.49c3.69 0 7.3-1.08 10.39-3.1a18.97 18.97 0 0 0 6.98-8.29l106.65-245c1.24-2.88 1.75-6.03 1.48-9.16-.28-3.13-1.32-6.14-3.04-8.77a19.062 19.062 0 0 0-6.83-6.28c-2.76-1.5-5.85-2.29-8.99-2.3l-123.13 282.9Z"/>
  <path fill="#fff" d="M681.4 1539.24h288.39c13.24 0 24-12.14 24-27.12H705.37c-13.24 0-24 12.14-24 27.12h.03Z"/>
  <path stroke="#154B77" stroke-miterlimit="10" stroke-width="6" d="M681.4 1539.24h288.39c13.24 0 24-12.14 24-27.12H705.37c-13.24 0-24 12.14-24 27.12h.03Z"/>
  <path stroke="#000" stroke-miterlimit="10" stroke-opacity=".2" stroke-width="6" d="M681.4 1539.24h288.39c13.24 0 24-12.14 24-27.12H705.37c-13.24 0-24 12.14-24 27.12h.03Z"/>
  <path stroke="#000" stroke-miterlimit="10" stroke-opacity=".2" stroke-width="6" d="M681.4 1539.24h288.39c13.24 0 24-12.14 24-27.12H705.37c-13.24 0-24 12.14-24 27.12h.03Z"/>
  <g clip-path="url(#a)">
    <path stroke="#424D76" stroke-linecap="round" stroke-miterlimit="10" stroke-width="5" d="M2088.46 1851.47h131.94m-177.68-289.32 231.86 377.25m-8.44-377.25-231.86 377.25"/>
    <path fill="#fff" stroke="#FFB000" stroke-miterlimit="10" stroke-width="5" d="M2314.18 1530.77c0 3.21-7.2 6.23-19.85 8.86-27.22 5.65-79.67 9.48-139.9 9.48-60.23 0-112.68-3.83-139.88-9.49-12.66-2.62-19.85-5.65-19.85-8.86 0-10.13 71.52-18.34 159.75-18.34s159.73 8.21 159.73 18.35Z"/>
    <path fill="#FFD880" stroke="#FFB000" stroke-miterlimit="10" stroke-width="5" d="M2314.18 1530.77v17.72c0 10.12-71.53 18.34-159.75 18.34s-159.75-8.21-159.75-18.34v-17.72c0 3.21 7.2 6.23 19.85 8.86 27.22 5.65 79.66 9.48 139.9 9.48 60.24 0 112.68-3.83 139.9-9.49 12.65-2.62 19.85-5.64 19.85-8.85Z"/>
    <path fill="#FFB000" d="M2128.67 1809.23c7.06 4.03 22.17 4.48 24.87 14.83 2.69 10.35-12.11 51.34-9.75 65.81 2.35 14.48 2.14 45.37-21.84 48.72-26.54 3.69-46.7-5.38-46.7-15.46 0-10.09 15.46-21.53 17.78-38.66 2.32-17.12 8.44-54.08 8.44-54.08l27.2-21.16Z"/>
    <path stroke="#fff" stroke-linecap="round" stroke-linejoin="round" stroke-width="4" d="M2094.82 1854.35s11.2-9.7 28.37 0m-30.9 11.81s11.2-9.7 28.37 0m-30.9 11.82s11.19-9.71 28.37 0"/>
    <path fill="#FFB000" d="M2219.17 1860.11c-4.49 6.56-30.38 22.68-29.02 30.08 1.36 7.39 25.2 28.89 26.88 40.3 1.68 11.42-.67 28.56 9.41 33.6 10.07 5.05 63.5 5.38 72.24 0 8.73-5.37-.68-22.51-10.09-26.2-9.41-3.7-34.6-45.69-33.15-71.56l-36.27-6.22Z"/>
    <path stroke="#fff" stroke-linecap="round" stroke-linejoin="round" stroke-width="4" d="M2266.51 1890.42s-11.2-9.7-28.37 0m32.59 11.82s-11.2-9.71-28.38 0m33.44 11.81s-11.2-9.7-28.37 0"/>
    <path fill="#3ABEBE" d="M2058.64 1406.16S1904 1467.72 1904 1520.68c0 94.45 131.87 268.33 158.86 265.72 26.99-2.61 45.16-24.37 44.12-35.78-1.04-11.42-49.79-158.33-84.63-208.16 0 0 106.43-27 120.45-27.5 14.02-.51 86.17 38.4 87.21 39.96 1.04 1.55-37.3 106.79-15.06 243.94 3.12 19.2 61.25 23.35 66.97 15.57 5.71-7.78 70.04-278.72 61.24-300.51-8.79-21.8-82.7-81.45-127.36-105.23-32.19-17.13-157.16-2.53-157.16-2.53Z"/>
    <path fill="#C36F0B" d="M2264.08 1841.98c-.97 2.97-5.53 16.95-8.64 24.35-2.97 7.06-39.97 4.67-36.28-6.23 3.14-9.28 3.19-21.94 3.14-25.5 6.05 2.4 23.24 8.44 41.78 7.38Z"/>
    <path fill="#6562CF" d="m2264.78 1841.94 10.34-24.62s-33.56 4.17-55.95-11.3l.85 27.61s23.27 10.6 44.76 8.31Z"/>
    <path fill="#C36F0B" d="M2113.41 1780.17s12.24 25.36 15.26 29.06c3.02 3.69-13.78 22.5-27.21 21.16l-21.47-28.94s23.03-4.3 33.42-21.28Z"/>
    <path fill="#6562CF" d="m2105.61 1757.93 8.64 22.24s-13.41 18.61-35.95 22.13l-15.44-15.9s28.92-3.48 42.75-28.47Z"/>
    <path fill="#EAEAFF" d="M2204.7 1089.04c13.65 10.03 50.75 27.57 73.84 43.73 18.62 13.04 35.24 70.04 35.24 70.04s-25.93 26.44-69.49 36.81c0 0-24.9 76.78-34.23 166.46 0 0-79.87 29.53-151.96 0 0 0-29.05-164.38-32.67-165.38-3.63-1-57.46-17.51-75.11-43.96 0 0 20.82-59.97 49.2-71.72 30.83-12.78 71.92-30.29 86.22-37.97 7.29-3.99 118.96 1.99 118.96 1.99Z"/>
    <path fill="#fff" d="m2013.86 1118.98-60.54 81.67c-.66-.79-1.29-1.58-1.88-2.39l57.14-77.06 5.28-2.22Zm29.6-12.58-78.19 105.47c-.78-.6-1.55-1.2-2.3-1.81l75.11-101.32 5.38-2.34Zm30.25-13.49-94.82 127.89c-.85-.49-1.69-.97-2.54-1.49l91.81-123.83c1.95-.9 3.77-1.75 5.55-2.57Zm25.59-7.19-105.77 142.65c-.9-.41-1.79-.84-2.69-1.27l104.72-141.28c1.18-.04 2.42-.08 3.74-.1Zm20.22.04-110.55 149.16-2.86-1.11 109.81-148.1 3.6.05Zm19.92.5-114.41 154.27c-.58-.18-1.6-.49-2.95-.93l113.77-153.44c1.19.03 2.37.06 3.59.1Zm19.71.7-128.5 173.29c-.28-1.32-.55-2.58-.84-3.8l125.78-169.6 3.56.11Zm19.63.83-143.73 193.86c-.27-1.31-.52-2.6-.77-3.87l140.99-190.15 3.51.16Zm19.57.93-159.08 214.56c-.26-1.3-.51-2.6-.76-3.89l156.33-210.84 3.51.17Zm15.59 6.31-170.57 230.04c-.24-1.31-.48-2.62-.73-3.92l168.78-227.65c.81.5 1.65 1.01 2.52 1.53Zm14.24 8.11-180.72 243.78c-.24-1.3-.48-2.61-.73-3.94l178.86-241.28c.86.48 1.72.97 2.59 1.44Zm14.36 7.95-191.12 257.76c-.23-1.3-.47-2.61-.71-3.94l189.26-255.25 2.57 1.43Zm14.27 8.07-201.43 271.7c-.22-1.26-.45-2.53-.7-3.96l199.58-269.17 2.55 1.43Zm13.97 8.46-207.85 280.37-2.81-1.12 208.21-280.81 2.45 1.56Zm12.97 9.9-204.38 275.59a54.49 54.49 0 0 1-3.03-.84l205.31-276.92c.7.7 1.38 1.4 2.1 2.17Zm9.62 14.29-196.43 264.95c-1.08-.16-2.17-.34-3.25-.54l198.1-267.19c.53.9 1.05 1.84 1.58 2.78Zm-49.54 89.21c-.49 1.57-1.36 4.39-2.53 8.31l-125.61 169.45c-1.16-.07-2.31-.15-3.47-.25l131.61-177.51Zm57.52-72.67-51.81 69.89c-1.49.41-3 .84-4.52 1.18l54.97-74.15c.46 1.04.91 2.07 1.36 3.08Zm-69.54 116.22c-.6 2.36-1.19 4.81-1.78 7.31l-94.34 127.25c-1.23 0-2.45.05-3.69.06l99.81-134.62Zm76.52-98.3-30.49 41.15c-1.81.89-3.67 1.78-5.61 2.65l34.92-47.1c.4 1.13.8 2.26 1.18 3.3Zm-85.43 137.64c-.45 2.21-.91 4.46-1.36 6.75l-64.49 86.99c-1.31.14-2.62.29-3.95.41l69.8-94.15Zm-6.66 36.34c-.33 2.06-.67 4.14-.99 6.23l-35.3 47.59c-1.38.27-2.79.55-4.22.85l40.51-54.67Z"/>
    <path fill="#C36F0B" d="M2338.6 1339.05c-1.91 35.44-69.13 68.35-104.58 83.28-1.18 7.34-5.99 10.56-15.26 12.95-19.32 4.98-17.5 17.72-18.5 20.15-1.56 3.87-20.61 8.28-25.2 5.06-2.72-1.93 4.97-26.2 9.35-34.73 2.73-5.31 20.99-15.36 32.97-19.69 0 0 60.76-73.63 69.08-77.79 0 0-22.48-61.59-31.88-83.76-1.34-3.18-2.42-5.54-3.12-6.8 0 0 33.76-10.12 56.59-29.78 0 0 2.07 5.15 5.11 13.63 9.18 25.53 27.37 81.27 25.44 117.48Z"/>
    <path fill="#B65A18" d="M2313.16 1221.56c-4.73 5.02-19.09 15.9-58.59 22.95-1.35-3.17-2.43-5.54-3.13-6.8 0 0 33.76-10.12 56.6-29.78 0 0 2.06 5.14 5.12 13.63Z"/>
    <path fill="#C36F0B" d="M2095.43 1459.64c-5.12 2.26-20.42-1.98-21.82-4.22-1.4-2.25-3.37-16.2-18.49-20.99-10.82-3.44-15.73-6.86-15.54-17.53-31.45-10.74-115.09-42.6-118.88-78.78-2.53-24.13 22.71-93.16 33.25-120.66 2.76-7.18 4.51-11.53 4.51-11.53 24.31 20.25 55.86 30.81 55.86 30.81l-2.61 7.15-30.44 83.35c13.86 5.26 64.33 67.22 72.19 76.95 16.4 3.17 33.96 14.57 36.01 20.72 2.15 6.44 11.24 32.39 5.96 34.73Z"/>
    <path fill="#B65A18" d="M1958.46 1205.91c24.31 20.25 55.87 30.82 55.87 30.82l-2.61 7.13c-16.66-2.63-44.04-9.07-57.76-26.42 2.75-7.17 4.5-11.53 4.5-11.53Z"/>
    <path fill="#fff" d="M2257.92 1482.77h-244.34l-41.13-161.65c-.64-2.2-.75-4.53-.33-6.78.42-2.26 1.35-4.39 2.74-6.22a14.81 14.81 0 0 1 5.22-4.34 14.79 14.79 0 0 1 6.62-1.54h298.14c2.29 0 4.55.53 6.6 1.55a14.81 14.81 0 0 1 5.22 4.34c1.38 1.83 2.31 3.96 2.73 6.21.41 2.26.3 4.58-.34 6.78l-41.13 161.65Z"/>
    <path stroke="#154B77" stroke-miterlimit="10" stroke-width="7" d="M2257.92 1482.77h-244.34l-41.13-161.65c-.64-2.2-.75-4.53-.33-6.78.42-2.26 1.35-4.39 2.74-6.22a14.81 14.81 0 0 1 5.22-4.34 14.79 14.79 0 0 1 6.62-1.54h298.14c2.29 0 4.55.53 6.6 1.55a14.81 14.81 0 0 1 5.22 4.34c1.38 1.83 2.31 3.96 2.73 6.21.41 2.26.3 4.58-.34 6.78l-41.13 161.65Z"/>
    <path stroke="#000" stroke-miterlimit="10" stroke-opacity=".2" stroke-width="7" d="M2257.92 1482.77h-244.34l-41.13-161.65c-.64-2.2-.75-4.53-.33-6.78.42-2.26 1.35-4.39 2.74-6.22a14.81 14.81 0 0 1 5.22-4.34 14.79 14.79 0 0 1 6.62-1.54h298.14c2.29 0 4.55.53 6.6 1.55a14.81 14.81 0 0 1 5.22 4.34c1.38 1.83 2.31 3.96 2.73 6.21.41 2.26.3 4.58-.34 6.78l-41.13 161.65Z"/>
    <path stroke="#000" stroke-miterlimit="10" stroke-opacity=".2" stroke-width="7" d="M2257.92 1482.77h-244.34l-41.13-161.65c-.64-2.2-.75-4.53-.33-6.78.42-2.26 1.35-4.39 2.74-6.22a14.81 14.81 0 0 1 5.22-4.34 14.79 14.79 0 0 1 6.62-1.54h298.14c2.29 0 4.55.53 6.6 1.55a14.81 14.81 0 0 1 5.22 4.34c1.38 1.83 2.31 3.96 2.73 6.21.41 2.26.3 4.58-.34 6.78l-41.13 161.65Z"/>
    <path fill="#154B77" d="M2250.51 1481.25h-229.53l-38.64-151.88c-2.53-8.88-4.32-19.4 4.92-19.4h296.98c9.24 0 7.47 10.54 4.92 19.4l-38.65 151.88Z"/>
    <path fill="#000" fill-opacity=".2" d="M2250.51 1481.25h-229.53l-38.64-151.88c-2.53-8.88-4.32-19.4 4.92-19.4h296.98c9.24 0 7.47 10.54 4.92 19.4l-38.65 151.88Z"/>
    <path fill="#000" fill-opacity=".2" d="M2250.51 1481.25h-229.53l-38.64-151.88c-2.53-8.88-4.32-19.4 4.92-19.4h296.98c9.24 0 7.47 10.54 4.92 19.4l-38.65 151.88Z"/>
    <path stroke="#fff" stroke-linejoin="round" stroke-width="6" d="M2149.72 1408.61h-27.94c-.94 0-1.85-.31-2.59-.89a4.174 4.174 0 0 1-1.49-2.29l-3.34-18a2.01 2.01 0 0 1-.04-.88c.06-.3.18-.58.36-.82s.41-.43.68-.56c.27-.14.57-.21.87-.21h39.04c.3 0 .6.07.87.21.27.13.5.32.68.56.18.24.31.52.36.82.06.29.04.6-.04.88l-3.35 18.03c-.24.9-.76 1.7-1.5 2.27-.73.57-1.64.88-2.57.88Z"/>
    <path fill="#B65A18" d="M2172.89 1039.25s-1.39 30.38 31.81 49.79c0 0-32.91 23.96-60.16 54.74 0 0-29.2-35.7-58.78-56.81 0 0 29.04-22.82 29.04-47.71l58.09-.01Z"/>
    <path fill="#C36F0B" d="M2201.14 1022.53c-3.33 4.37-9.35 12.57-12.25 18.45-5.17 28-22.79 46.53-45.13 46.53-19.35 0-32.44-21.7-38.46-41.88-.14-.36-.26-.74-.35-1.12-1.5-5.56-9.59-16.62-13.66-21.94-.32-.42-.55-.91-.67-1.42-.12-.52-.12-1.06-.02-1.58.11-.52.33-1.02.64-1.45.31-.43.71-.79 1.17-1.05 4.97-2.84 7.54-.77 8.89 1.93-.72-20.179.12-41.35 11.86-41.468 13.51-.126 58.41-1.012 66.19 1.587 6.69 2.227 11.11 11.602 11.12 41.561 1.06-3.37 3.59-7.03 9.55-3.61.45.27.85.62 1.16 1.05.3.43.52.91.62 1.43.11.52.11 1.05-.01 1.56-.11.52-.34 1-.65 1.42Z"/>
    <path fill="#154B77" d="M2177.97 982.745c-1.94.053-4.33.767-7.01 1.741-1.29.47-2.67 1.007-4.11 1.57l-.17.068c-1.51.588-3.09 1.203-4.74 1.802-6.57 2.401-14.1 4.537-21.78 3.707-3.14-.341-6.52-1.67-9.95-3.329-1.71-.827-3.42-1.732-5.12-2.628l-.03-.019c-1.69-.888-3.36-1.769-4.98-2.552-3.25-1.567-6.38-2.776-9.15-2.832-1.4-.028-2.72.235-3.92.903-1.19.667-2.24 1.72-3.1 3.219l-.02.027-.01.03c-1.88 4.48-2.74 10.202-3.07 16.548-.25 4.9-.19 10.2-.02 15.63-3.93-14.44-10.38-24.642-14.58-31.3-.36-.57-.7-1.114-1.03-1.633l-.07-.116-.12-.063c-9.36-4.856-16.61-15.2-14.52-25.615 1.79-8.916 6.1-13.06 9.9-14.998a16.027 16.027 0 0 1 5.05-1.584c.66-.091 1.2-.121 1.57-.128a7.866 7.866 0 0 1 .53.005l.02.001c5.91.611 9.58.221 12.17-.982 2.61-1.212 4.06-3.217 5.6-5.596.17-.257.34-.52.51-.787 1.41-2.207 3.03-4.732 5.75-7.432 3.04-3.025 7.49-6.283 14.58-9.505 14.15-6.431 29.29-6.602 41.22-3.23 5.97 1.687 11.12 4.254 14.94 7.349 3.82 3.098 6.28 6.698 6.95 10.449v.001c.49 2.726 1.29 4.512 2.44 5.691 1.15 1.186 2.6 1.696 4.23 2.002.88.165 1.82.273 2.82.389 2.73.316 5.9.684 9.63 2.408 6.99 3.261 9.73 10.779 9.39 19.264-.34 8.475-3.78 17.76-8.95 24.287-4.51 5.661-9.4 15.013-13.16 22.903-1.89 3.96-3.49 7.56-4.62 10.18-.23.52-.43 1-.62 1.44.05-.93.1-2.03.14-3.27.12-3.78.11-8.81-.38-13.84-.5-5.019-1.48-10.077-3.35-13.867-1.87-3.798-4.7-6.425-8.86-6.308Zm0 0 .01.5-.01-.5Z"/>
    <path fill="#000" fill-opacity=".2" d="M2177.97 982.745c-1.94.053-4.33.767-7.01 1.741-1.29.47-2.67 1.007-4.11 1.57l-.17.068c-1.51.588-3.09 1.203-4.74 1.802-6.57 2.401-14.1 4.537-21.78 3.707-3.14-.341-6.52-1.67-9.95-3.329-1.71-.827-3.42-1.732-5.12-2.628l-.03-.019c-1.69-.888-3.36-1.769-4.98-2.552-3.25-1.567-6.38-2.776-9.15-2.832-1.4-.028-2.72.235-3.92.903-1.19.667-2.24 1.72-3.1 3.219l-.02.027-.01.03c-1.88 4.48-2.74 10.202-3.07 16.548-.25 4.9-.19 10.2-.02 15.63-3.93-14.44-10.38-24.642-14.58-31.3-.36-.57-.7-1.114-1.03-1.633l-.07-.116-.12-.063c-9.36-4.856-16.61-15.2-14.52-25.615 1.79-8.916 6.1-13.06 9.9-14.998a16.027 16.027 0 0 1 5.05-1.584c.66-.091 1.2-.121 1.57-.128a7.866 7.866 0 0 1 .53.005l.02.001c5.91.611 9.58.221 12.17-.982 2.61-1.212 4.06-3.217 5.6-5.596.17-.257.34-.52.51-.787 1.41-2.207 3.03-4.732 5.75-7.432 3.04-3.025 7.49-6.283 14.58-9.505 14.15-6.431 29.29-6.602 41.22-3.23 5.97 1.687 11.12 4.254 14.94 7.349 3.82 3.098 6.28 6.698 6.95 10.449v.001c.49 2.726 1.29 4.512 2.44 5.691 1.15 1.186 2.6 1.696 4.23 2.002.88.165 1.82.273 2.82.389 2.73.316 5.9.684 9.63 2.408 6.99 3.261 9.73 10.779 9.39 19.264-.34 8.475-3.78 17.76-8.95 24.287-4.51 5.661-9.4 15.013-13.16 22.903-1.89 3.96-3.49 7.56-4.62 10.18-.23.52-.43 1-.62 1.44.05-.93.1-2.03.14-3.27.12-3.78.11-8.81-.38-13.84-.5-5.019-1.48-10.077-3.35-13.867-1.87-3.798-4.7-6.425-8.86-6.308Zm0 0 .01.5-.01-.5Z"/>
    <path fill="#000" fill-opacity=".2" d="M2177.97 982.745c-1.94.053-4.33.767-7.01 1.741-1.29.47-2.67 1.007-4.11 1.57l-.17.068c-1.51.588-3.09 1.203-4.74 1.802-6.57 2.401-14.1 4.537-21.78 3.707-3.14-.341-6.52-1.67-9.95-3.329-1.71-.827-3.42-1.732-5.12-2.628l-.03-.019c-1.69-.888-3.36-1.769-4.98-2.552-3.25-1.567-6.38-2.776-9.15-2.832-1.4-.028-2.72.235-3.92.903-1.19.667-2.24 1.72-3.1 3.219l-.02.027-.01.03c-1.88 4.48-2.74 10.202-3.07 16.548-.25 4.9-.19 10.2-.02 15.63-3.93-14.44-10.38-24.642-14.58-31.3-.36-.57-.7-1.114-1.03-1.633l-.07-.116-.12-.063c-9.36-4.856-16.61-15.2-14.52-25.615 1.79-8.916 6.1-13.06 9.9-14.998a16.027 16.027 0 0 1 5.05-1.584c.66-.091 1.2-.121 1.57-.128a7.866 7.866 0 0 1 .53.005l.02.001c5.91.611 9.58.221 12.17-.982 2.61-1.212 4.06-3.217 5.6-5.596.17-.257.34-.52.51-.787 1.41-2.207 3.03-4.732 5.75-7.432 3.04-3.025 7.49-6.283 14.58-9.505 14.15-6.431 29.29-6.602 41.22-3.23 5.97 1.687 11.12 4.254 14.94 7.349 3.82 3.098 6.28 6.698 6.95 10.449v.001c.49 2.726 1.29 4.512 2.44 5.691 1.15 1.186 2.6 1.696 4.23 2.002.88.165 1.82.273 2.82.389 2.73.316 5.9.684 9.63 2.408 6.99 3.261 9.73 10.779 9.39 19.264-.34 8.475-3.78 17.76-8.95 24.287-4.51 5.661-9.4 15.013-13.16 22.903-1.89 3.96-3.49 7.56-4.62 10.18-.23.52-.43 1-.62 1.44.05-.93.1-2.03.14-3.27.12-3.78.11-8.81-.38-13.84-.5-5.019-1.48-10.077-3.35-13.867-1.87-3.798-4.7-6.425-8.86-6.308Zm0 0 .01.5-.01-.5Z"/>
    <path stroke="#154B77" d="M2177.97 982.745c-1.94.053-4.33.767-7.01 1.741-1.29.47-2.67 1.007-4.11 1.57l-.17.068c-1.51.588-3.09 1.203-4.74 1.802-6.57 2.401-14.1 4.537-21.78 3.707-3.14-.341-6.52-1.67-9.95-3.329-1.71-.827-3.42-1.732-5.12-2.628l-.03-.019c-1.69-.888-3.36-1.769-4.98-2.552-3.25-1.567-6.38-2.776-9.15-2.832-1.4-.028-2.72.235-3.92.903-1.19.667-2.24 1.72-3.1 3.219l-.02.027-.01.03c-1.88 4.48-2.74 10.202-3.07 16.548-.25 4.9-.19 10.2-.02 15.63-3.93-14.44-10.38-24.642-14.58-31.3-.36-.57-.7-1.114-1.03-1.633l-.07-.116-.12-.063c-9.36-4.856-16.61-15.2-14.52-25.615 1.79-8.916 6.1-13.06 9.9-14.998a16.027 16.027 0 0 1 5.05-1.584c.66-.091 1.2-.121 1.57-.128a7.866 7.866 0 0 1 .53.005l.02.001c5.91.611 9.58.221 12.17-.982 2.61-1.212 4.06-3.217 5.6-5.596.17-.257.34-.52.51-.787 1.41-2.207 3.03-4.732 5.75-7.432 3.04-3.025 7.49-6.283 14.58-9.505 14.15-6.431 29.29-6.602 41.22-3.23 5.97 1.687 11.12 4.254 14.94 7.349 3.82 3.098 6.28 6.698 6.95 10.449v.001c.49 2.726 1.29 4.512 2.44 5.691 1.15 1.186 2.6 1.696 4.23 2.002.88.165 1.82.273 2.82.389 2.73.316 5.9.684 9.63 2.408 6.99 3.261 9.73 10.779 9.39 19.264-.34 8.475-3.78 17.76-8.95 24.287-4.51 5.661-9.4 15.013-13.16 22.903-1.89 3.96-3.49 7.56-4.62 10.18-.23.52-.43 1-.62 1.44.05-.93.1-2.03.14-3.27.12-3.78.11-8.81-.38-13.84-.5-5.019-1.48-10.077-3.35-13.867-1.87-3.798-4.7-6.425-8.86-6.308Zm0 0 .01.5-.01-.5Z"/>
    <path stroke="#000" stroke-opacity=".2" d="M2177.97 982.745c-1.94.053-4.33.767-7.01 1.741-1.29.47-2.67 1.007-4.11 1.57l-.17.068c-1.51.588-3.09 1.203-4.74 1.802-6.57 2.401-14.1 4.537-21.78 3.707-3.14-.341-6.52-1.67-9.95-3.329-1.71-.827-3.42-1.732-5.12-2.628l-.03-.019c-1.69-.888-3.36-1.769-4.98-2.552-3.25-1.567-6.38-2.776-9.15-2.832-1.4-.028-2.72.235-3.92.903-1.19.667-2.24 1.72-3.1 3.219l-.02.027-.01.03c-1.88 4.48-2.74 10.202-3.07 16.548-.25 4.9-.19 10.2-.02 15.63-3.93-14.44-10.38-24.642-14.58-31.3-.36-.57-.7-1.114-1.03-1.633l-.07-.116-.12-.063c-9.36-4.856-16.61-15.2-14.52-25.615 1.79-8.916 6.1-13.06 9.9-14.998a16.027 16.027 0 0 1 5.05-1.584c.66-.091 1.2-.121 1.57-.128a7.866 7.866 0 0 1 .53.005l.02.001c5.91.611 9.58.221 12.17-.982 2.61-1.212 4.06-3.217 5.6-5.596.17-.257.34-.52.51-.787 1.41-2.207 3.03-4.732 5.75-7.432 3.04-3.025 7.49-6.283 14.58-9.505 14.15-6.431 29.29-6.602 41.22-3.23 5.97 1.687 11.12 4.254 14.94 7.349 3.82 3.098 6.28 6.698 6.95 10.449v.001c.49 2.726 1.29 4.512 2.44 5.691 1.15 1.186 2.6 1.696 4.23 2.002.88.165 1.82.273 2.82.389 2.73.316 5.9.684 9.63 2.408 6.99 3.261 9.73 10.779 9.39 19.264-.34 8.475-3.78 17.76-8.95 24.287-4.51 5.661-9.4 15.013-13.16 22.903-1.89 3.96-3.49 7.56-4.62 10.18-.23.52-.43 1-.62 1.44.05-.93.1-2.03.14-3.27.12-3.78.11-8.81-.38-13.84-.5-5.019-1.48-10.077-3.35-13.867-1.87-3.798-4.7-6.425-8.86-6.308Zm0 0 .01.5-.01-.5Z"/>
    <path stroke="#000" stroke-opacity=".2" d="M2177.97 982.745c-1.94.053-4.33.767-7.01 1.741-1.29.47-2.67 1.007-4.11 1.57l-.17.068c-1.51.588-3.09 1.203-4.74 1.802-6.57 2.401-14.1 4.537-21.78 3.707-3.14-.341-6.52-1.67-9.95-3.329-1.71-.827-3.42-1.732-5.12-2.628l-.03-.019c-1.69-.888-3.36-1.769-4.98-2.552-3.25-1.567-6.38-2.776-9.15-2.832-1.4-.028-2.72.235-3.92.903-1.19.667-2.24 1.72-3.1 3.219l-.02.027-.01.03c-1.88 4.48-2.74 10.202-3.07 16.548-.25 4.9-.19 10.2-.02 15.63-3.93-14.44-10.38-24.642-14.58-31.3-.36-.57-.7-1.114-1.03-1.633l-.07-.116-.12-.063c-9.36-4.856-16.61-15.2-14.52-25.615 1.79-8.916 6.1-13.06 9.9-14.998a16.027 16.027 0 0 1 5.05-1.584c.66-.091 1.2-.121 1.57-.128a7.866 7.866 0 0 1 .53.005l.02.001c5.91.611 9.58.221 12.17-.982 2.61-1.212 4.06-3.217 5.6-5.596.17-.257.34-.52.51-.787 1.41-2.207 3.03-4.732 5.75-7.432 3.04-3.025 7.49-6.283 14.58-9.505 14.15-6.431 29.29-6.602 41.22-3.23 5.97 1.687 11.12 4.254 14.94 7.349 3.82 3.098 6.28 6.698 6.95 10.449v.001c.49 2.726 1.29 4.512 2.44 5.691 1.15 1.186 2.6 1.696 4.23 2.002.88.165 1.82.273 2.82.389 2.73.316 5.9.684 9.63 2.408 6.99 3.261 9.73 10.779 9.39 19.264-.34 8.475-3.78 17.76-8.95 24.287-4.51 5.661-9.4 15.013-13.16 22.903-1.89 3.96-3.49 7.56-4.62 10.18-.23.52-.43 1-.62 1.44.05-.93.1-2.03.14-3.27.12-3.78.11-8.81-.38-13.84-.5-5.019-1.48-10.077-3.35-13.867-1.87-3.798-4.7-6.425-8.86-6.308Zm0 0 .01.5-.01-.5Z"/>
    <path fill="#154B77" d="M2124.15 997.977c39.97 5.063 43.93-16.631 61.14-14.007Z"/>
    <path fill="#000" fill-opacity=".2" d="M2124.15 997.977c39.97 5.063 43.93-16.631 61.14-14.007Z"/>
    <path fill="#000" fill-opacity=".2" d="M2124.15 997.977c39.97 5.063 43.93-16.631 61.14-14.007Z"/>
    <path stroke="#154B77" stroke-miterlimit="10" stroke-width="3" d="M2124.15 997.977c39.97 5.063 43.93-16.631 61.14-14.007"/>
    <path stroke="#000" stroke-miterlimit="10" stroke-opacity=".2" stroke-width="3" d="M2124.15 997.977c39.97 5.063 43.93-16.631 61.14-14.007"/>
    <path stroke="#000" stroke-miterlimit="10" stroke-opacity=".2" stroke-width="3" d="M2124.15 997.977c39.97 5.063 43.93-16.631 61.14-14.007"/>
  </g>
  <path fill="#BDBDBD" d="M2874.06 1849.74h-28.13v183.63h28.13v-183.63Z"/>
  <path stroke="#154B77" stroke-linecap="round" stroke-miterlimit="10" stroke-width="5" d="M2874.06 1849.74h-28.13v183.63h28.13v-183.63Z"/>
  <path stroke="#000" stroke-linecap="round" stroke-miterlimit="10" stroke-opacity=".2" stroke-width="5" d="M2874.06 1849.74h-28.13v183.63h28.13v-183.63Z"/>
  <path stroke="#000" stroke-linecap="round" stroke-miterlimit="10" stroke-opacity=".2" stroke-width="5" d="M2874.06 1849.74h-28.13v183.63h28.13v-183.63Z"/>
  <path fill="#fff" d="M2831.87 1713.88h56.26v128.91c-.01 3.52-1.41 6.9-3.91 9.39-2.49 2.5-5.88 3.89-9.4 3.89h-29.66c-3.53 0-6.92-1.4-9.41-3.9a13.29 13.29 0 0 1-3.89-9.4v-128.89h.01Z"/>
  <path stroke="#154B77" stroke-linecap="round" stroke-miterlimit="10" stroke-width="5" d="M2831.87 1713.88h56.26v128.91c-.01 3.52-1.41 6.9-3.91 9.39-2.49 2.5-5.88 3.89-9.4 3.89h-29.66c-3.53 0-6.92-1.4-9.41-3.9a13.29 13.29 0 0 1-3.89-9.4v-128.89h.01Z"/>
  <path stroke="#000" stroke-linecap="round" stroke-miterlimit="10" stroke-opacity=".2" stroke-width="5" d="M2831.87 1713.88h56.26v128.91c-.01 3.52-1.41 6.9-3.91 9.39-2.49 2.5-5.88 3.89-9.4 3.89h-29.66c-3.53 0-6.92-1.4-9.41-3.9a13.29 13.29 0 0 1-3.89-9.4v-128.89h.01Z"/>
  <path stroke="#000" stroke-linecap="round" stroke-miterlimit="10" stroke-opacity=".2" stroke-width="5" d="M2831.87 1713.88h56.26v128.91c-.01 3.52-1.41 6.9-3.91 9.39-2.49 2.5-5.88 3.89-9.4 3.89h-29.66c-3.53 0-6.92-1.4-9.41-3.9a13.29 13.29 0 0 1-3.89-9.4v-128.89h.01Z"/>
  <path fill="#F0E1D4" d="M2956.71 2064.78v41.97h-26.86v-16.96c0-8.34-3.31-16.33-9.21-22.22a31.385 31.385 0 0 0-22.22-9.21h-76.54c-8.33 0-16.33 3.31-22.22 9.21a31.418 31.418 0 0 0-9.2 22.22v16.96h-26.86v-41.97c0-8.33 3.31-16.33 9.2-22.22 5.89-5.89 13.88-9.2 22.22-9.2h130.28c8.33 0 16.32 3.31 22.21 9.2 5.89 5.9 9.2 13.89 9.2 22.22Z"/>
  <path stroke="#154B77" stroke-linecap="round" stroke-miterlimit="10" stroke-width="5" d="M2956.71 2064.78v41.97h-26.86v-16.96c0-8.34-3.31-16.33-9.21-22.22a31.385 31.385 0 0 0-22.22-9.21h-76.54c-8.33 0-16.33 3.31-22.22 9.21a31.418 31.418 0 0 0-9.2 22.22v16.96h-26.86v-41.97c0-8.33 3.31-16.33 9.2-22.22 5.89-5.89 13.88-9.2 22.22-9.2h130.28c8.33 0 16.32 3.31 22.21 9.2 5.89 5.9 9.2 13.89 9.2 22.22Z"/>
  <path stroke="#000" stroke-linecap="round" stroke-miterlimit="10" stroke-opacity=".2" stroke-width="5" d="M2956.71 2064.78v41.97h-26.86v-16.96c0-8.34-3.31-16.33-9.21-22.22a31.385 31.385 0 0 0-22.22-9.21h-76.54c-8.33 0-16.33 3.31-22.22 9.21a31.418 31.418 0 0 0-9.2 22.22v16.96h-26.86v-41.97c0-8.33 3.31-16.33 9.2-22.22 5.89-5.89 13.88-9.2 22.22-9.2h130.28c8.33 0 16.32 3.31 22.21 9.2 5.89 5.9 9.2 13.89 9.2 22.22Z"/>
  <path stroke="#000" stroke-linecap="round" stroke-miterlimit="10" stroke-opacity=".2" stroke-width="5" d="M2956.71 2064.78v41.97h-26.86v-16.96c0-8.34-3.31-16.33-9.21-22.22a31.385 31.385 0 0 0-22.22-9.21h-76.54c-8.33 0-16.33 3.31-22.22 9.21a31.418 31.418 0 0 0-9.2 22.22v16.96h-26.86v-41.97c0-8.33 3.31-16.33 9.2-22.22 5.89-5.89 13.88-9.2 22.22-9.2h130.28c8.33 0 16.32 3.31 22.21 9.2 5.89 5.9 9.2 13.89 9.2 22.22Z"/>
  <path fill="#fff" d="M2943.14 2147.08c15.41 0 27.9-12.49 27.9-27.9 0-15.41-12.49-27.91-27.9-27.91-15.41 0-27.91 12.5-27.91 27.91s12.5 27.9 27.91 27.9Z"/>
  <path stroke="#154B77" stroke-linecap="round" stroke-miterlimit="10" stroke-width="5" d="M2943.14 2147.08c15.41 0 27.9-12.49 27.9-27.9 0-15.41-12.49-27.91-27.9-27.91-15.41 0-27.91 12.5-27.91 27.91s12.5 27.9 27.91 27.9Z"/>
  <path stroke="#000" stroke-linecap="round" stroke-miterlimit="10" stroke-opacity=".2" stroke-width="5" d="M2943.14 2147.08c15.41 0 27.9-12.49 27.9-27.9 0-15.41-12.49-27.91-27.9-27.91-15.41 0-27.91 12.5-27.91 27.91s12.5 27.9 27.91 27.9Z"/>
  <path stroke="#000" stroke-linecap="round" stroke-miterlimit="10" stroke-opacity=".2" stroke-width="5" d="M2943.14 2147.08c15.41 0 27.9-12.49 27.9-27.9 0-15.41-12.49-27.91-27.9-27.91-15.41 0-27.91 12.5-27.91 27.91s12.5 27.9 27.91 27.9Z"/>
  <path fill="#fff" stroke="#D8BAA3" stroke-linecap="round" stroke-miterlimit="10" stroke-width="5" d="M2775.91 2147.08c15.41 0 27.91-12.49 27.91-27.9 0-15.41-12.5-27.91-27.91-27.91s-27.9 12.5-27.9 27.91 12.49 27.9 27.9 27.9Z"/>
  <path fill="#F0E1D4" stroke="#D8BAA3" stroke-linecap="round" stroke-miterlimit="10" stroke-width="5" d="m2925.13 1649.47 69.35-203.82h49.58l-69.35 203.82h-49.58Z"/>
  <path fill="#fff" stroke="#D8BAA3" stroke-linecap="round" stroke-miterlimit="10" stroke-width="5" d="m2911.52 1649.47 69.35-203.82h49.58l-69.35 203.82h-49.58Z"/>
  <path fill="#fff" stroke="#D8BAA3" stroke-linecap="round" stroke-miterlimit="10" stroke-width="5" d="M3079.82 1672.78c0 3.97-5.99 7.78-16.82 11.19-32.02 10.15-106.32 17.26-192.87 17.26-79.65 0-148.92-6.02-184.43-14.9-3.07-.77-5.89-1.55-8.45-2.36-10.83-3.44-16.82-7.22-16.82-11.19 0-3.36 4.29-6.58 12.17-9.57 28.98-11.01 106.48-18.88 197.53-18.88 115.81 0 209.69 12.74 209.69 28.45Z"/>
  <path fill="#154B77" d="M3079.82 1672.79v22.36c0 15.71-93.88 28.45-209.69 28.45-79.65 0-148.92-6.03-184.43-14.91-16.12-4.02-25.28-8.63-25.28-13.54v-22.36c0 3.96 5.99 7.77 16.82 11.18 2.56.81 5.37 1.59 8.45 2.36 35.51 8.88 104.78 14.9 184.43 14.9 86.53 0 160.85-7.11 192.87-17.26 10.84-3.44 16.83-7.22 16.83-11.18Z"/>
  <path fill="#000" fill-opacity=".2" d="M3079.82 1672.79v22.36c0 15.71-93.88 28.45-209.69 28.45-79.65 0-148.92-6.03-184.43-14.91-16.12-4.02-25.28-8.63-25.28-13.54v-22.36c0 3.96 5.99 7.77 16.82 11.18 2.56.81 5.37 1.59 8.45 2.36 35.51 8.88 104.78 14.9 184.43 14.9 86.53 0 160.85-7.11 192.87-17.26 10.84-3.44 16.83-7.22 16.83-11.18Z"/>
  <path fill="#000" fill-opacity=".2" d="M3079.82 1672.79v22.36c0 15.71-93.88 28.45-209.69 28.45-79.65 0-148.92-6.03-184.43-14.91-16.12-4.02-25.28-8.63-25.28-13.54v-22.36c0 3.96 5.99 7.77 16.82 11.18 2.56.81 5.37 1.59 8.45 2.36 35.51 8.88 104.78 14.9 184.43 14.9 86.53 0 160.85-7.11 192.87-17.26 10.84-3.44 16.83-7.22 16.83-11.18Z"/>
  <path stroke="#D8BAA3" stroke-linecap="round" stroke-miterlimit="10" stroke-width="5" d="M3079.82 1672.79v22.36c0 15.71-93.88 28.45-209.69 28.45-79.65 0-148.92-6.03-184.43-14.91-16.12-4.02-25.28-8.63-25.28-13.54v-22.36c0 3.96 5.99 7.77 16.82 11.18 2.56.81 5.37 1.59 8.45 2.36 35.51 8.88 104.78 14.9 184.43 14.9 86.53 0 160.85-7.11 192.87-17.26 10.84-3.44 16.83-7.22 16.83-11.18Z"/>
  <path fill="#BDBDBD" d="M3181.79 1317.21H2917.1c-6.76 0-12.91 4.74-15.8 12.17l-70.73 207.47c-2.91 7.41 1.58 15.95 8.32 15.95h261.34c8.75 0 16.78-6.16 20.52-15.82l69.36-203.82c2.88-7.42-1.57-15.95-8.32-15.95Z"/>
  <path stroke="#154B77" stroke-linecap="round" stroke-miterlimit="10" stroke-width="5" d="M3181.79 1317.21H2917.1c-6.76 0-12.91 4.74-15.8 12.17l-70.73 207.47c-2.91 7.41 1.58 15.95 8.32 15.95h261.34c8.75 0 16.78-6.16 20.52-15.82l69.36-203.82c2.88-7.42-1.57-15.95-8.32-15.95Z"/>
  <path stroke="#000" stroke-linecap="round" stroke-miterlimit="10" stroke-opacity=".2" stroke-width="5" d="M3181.79 1317.21H2917.1c-6.76 0-12.91 4.74-15.8 12.17l-70.73 207.47c-2.91 7.41 1.58 15.95 8.32 15.95h261.34c8.75 0 16.78-6.16 20.52-15.82l69.36-203.82c2.88-7.42-1.57-15.95-8.32-15.95Z"/>
  <path stroke="#000" stroke-linecap="round" stroke-miterlimit="10" stroke-opacity=".2" stroke-width="5" d="M3181.79 1317.21H2917.1c-6.76 0-12.91 4.74-15.8 12.17l-70.73 207.47c-2.91 7.41 1.58 15.95 8.32 15.95h261.34c8.75 0 16.78-6.16 20.52-15.82l69.36-203.82c2.88-7.42-1.57-15.95-8.32-15.95Z"/>
  <path fill="#FFCFC9" d="m2628.86 1509.86-43.64 6.81c-5.5 13.34-18.47 28.49-21.24 29.96-3.01 1.56-18.62 9.98-18.62 9.98s-2.98-5.14-.46-9.63c1.66-2.92 11.87-7.92 10.7-12.02-1.18-4.09-7.28-3.61-9.99-2.41-6.47 2.92-18.1 10.19-16.86 21.03 1.07 9.15-7.34 10.02-7.34 10.02s-4.41-11.67-4.71-13.88c-.3-2.2 1.5-24.07 6.8-30.49 4.24-5.08 24.9-15.03 36.43-20.17l58.34-26.42 10.59 37.22Z"/>
  <path fill="#DBDAFF" d="M2816.96 1309.26s9.13 127.66-19.44 160.21c-28.58 32.55-125.27 51.55-169.7 41.44l-11.06-38.65c43.89-29.66 107.92-68.52 107.92-68.52s21.31-178.88 55.34-201.18c34.02-22.3 35.79 81.45 36.94 106.7Z"/>
  <path stroke="#fff" stroke-linecap="round" stroke-miterlimit="10" stroke-width="4" d="M2617.14 1473.27a88.89 88.89 0 0 1 10.09 36.67m-6.97-30.14 24.75-13.51m-22.16 20.43 15.71-4.94m-13.09 14.71 31.37-4.87m-29.61 12.53h15.41"/>
  <path fill="#E69900" d="M2736.09 2150h-118.81s-1.63-19.06 13.61-21.7c12.89-2.25 25.14-15.81 25.14-15.81s29.8 15.61 47.64-9.53 15.43-51.53 15.43-51.53c5.65 6.86 21.76 23.49 22.43 49.45.26 16.54-1.57 33.04-5.44 49.12Z"/>
  <path fill="#FAB6AD" d="M2606.32 1632.31c-19.85 2.7-62.93 38.29-38.64 108.47 24.3 70.18 118.41 289.56 117.52 309.89-1.2 27.15-29.17 61.82-29.17 61.82s29.8 15.61 47.64-9.53 15.42-51.53 15.42-51.53 15.36-169.18-11.24-307.54c-12.21-63.35-65.84-116.45-101.53-111.58Z"/>
  <path fill="#FFB000" d="M2828.37 2150h-118.82s-1.62-19.06 13.61-21.7c12.88-2.25 25.14-15.81 25.14-15.81s29.8 15.61 47.64-9.53 15.42-51.53 15.42-51.53c5.67 6.86 21.77 23.49 22.44 49.45.26 16.54-1.56 33.04-5.43 49.12Z"/>
  <path fill="#FFCFC9" d="M2698.6 1631.7c-16.06 11.97-32.38 38.89-8.08 109.08 24.31 70.19 88.57 289.61 86.95 309.89-1.62 20.28-29.17 61.82-29.17 61.82s29.8 15.61 47.64-9.53 15.42-51.53 15.42-51.53 34.38-222.65 21.25-307.54c-9.82-63.75-89.4-145.47-134.01-112.19Z"/>
  <path fill="#3ABEBE" d="M2990.43 1447.54s38.18 75.84 52.68 134.41c15.82 63.94-24.19 106.36-113.75 107.12-71.84.61-57.85 46.86-57.85 46.86s-33.69 18.41-70 0c-38.32-19.45-57.73-9.37-85.16 1.21-34.53 13.39-65.64-12.4-92.4-14.02-40.15-2.43-51.07 26.18-93.1 1.23 0 0-15.15-106.44 48.11-147.2 63.26-40.76 267.43-84.52 259.39-125.96l152.08-3.65Z"/>
  <path fill="#DBDAFF" d="M2780.02 1202.56c24.45-16.88 84.41-37.26 107.71-59.97l96.66-4.66c31.42 24.46 90.23 57.13 103.62 76.81l-65.19 127.57s-28.53 89.63-32.6 107.68c-4.07 18.04-105.97 21.57-154.87 3.5 0 0-14.59-79.73-19.22-84.41-4.62-4.67-29.69-18.6-25.01-52.98l-11.1-113.54Z"/>
  <path stroke="#fff" stroke-linecap="round" stroke-miterlimit="10" stroke-width="4" d="M2836.32 1452.52s-16.53-78.76-21.16-83.44c-4.63-4.67-28.69-18.47-25.01-52.98 1.84-17.34 16.12-47.29 16.12-47.29"/>
  <path fill="#FFCFC9" d="M2859.13 1520.63c-.52 2.99-3 12.64-12.97 17.44-11.67 5.58-13.56 6.33-23.76 11.94-8.14 4.48-13.77 14.84-17.37 19.17-8.07 9.72-14.35-19.67-12.25-25.7 9.39-14.84 28.99-34.03 44.27-43.26 4.52-2.49 9.2-4.68 14.02-6.55 12.47-4.86 34.28-12.64 58.41-21.13l10.69 37.3-61.04 10.79Z"/>
  <path fill="#DBDAFF" d="M2909.4 1472.3c43.89-29.66 117.69-59.78 117.69-59.78l-5.69-116.35c-1.36-27.74 8.85-54.99 28.73-74.39 17.75-17.31 38.89-24.36 50.7 20.42 0 0 39.1 168.36-.97 227.3-24.31 35.8-135.01 51.53-179.45 41.48l-11.01-38.68Z"/>
  <path stroke="#fff" stroke-linecap="round" stroke-miterlimit="10" stroke-width="4" d="M2909.4 1472.3c43.89-29.66 117.69-59.78 117.69-59.78l-4.27-70.21m-114.39 130.96a89.24 89.24 0 0 1 10.09 36.67m-6.97-30.14 24.74-13.51m-22.17 20.43 15.73-4.94m-13.09 14.71 31.36-4.87m-29.6 12.53h15.41"/>
  <path fill="#722D54" d="M3051.15 1071.17s-128.33 38.83-237.9 33.59c0 0-36.47-45.43-14.75-65.43 19.62-18.05 45.77-28.72 34.9-43.077-10.87-14.361-21.33-35.518 9.33-52.601 30.67-17.083 85.77-43.665 119.35-27.778 24.79 11.765 11.07 44.725 25.99 45.24 17.28.594 39.27 12.076 33.4 40.996-7.58 37.24 40.55 7.73 29.68 69.06Z"/>
  <path stroke="#722D54" stroke-miterlimit="10" stroke-width="3" d="M2799.64 1104.76s-42.48-43.13-11.85-69.3c20.27-17.31 45.78-24.83 34.91-39.188-10.87-14.361-21.33-35.517 9.33-52.6 30.66-17.083 86.49-36.548 119.36-29.742"/>
  <path fill="#FFCFC9" d="M2961.11 1035.46s-5.24 69.87 23.34 102.48c0 0-36.14 54.73-97.86 57.06-61.72 2.32 1.2-52.4 1.2-52.4s15.13-20.42 12.79-72.2l60.53-34.94Z"/>
  <path fill="#FAB6AD" d="M2960.71 1035.69c-8.6 22.65-29.44 67.16-61.64 71.36 1.63-12.15 2.13-24.42 1.5-36.66l60.14-34.7Z"/>
  <path fill="#FFCFC9" d="M2961.11 1035.46s-18.64 47.35-65.21 47.35c-8.15 0-39.36-31.18-37.06-81.67 2.31-50.487 56.85-51.888 56.85-51.888s-3.89 52.798 42.52 60.178c0 0 11.82-10.484 16.52-1.17 4.71 9.31-13.62 27.2-13.62 27.2Z"/>
  <path stroke="#722D54" stroke-miterlimit="10" stroke-width="3" d="M2915.69 948.31s-17.5 53.77 28.9 61.15"/>
  <path stroke="#fff" stroke-miterlimit="10" stroke-width="4" d="M2973.14 1054.87c7.52 0 13.61-6.09 13.61-13.61s-6.09-13.61-13.61-13.61-13.61 6.09-13.61 13.61 6.09 13.61 13.61 13.61Z"/>
  <path fill="#fff" stroke="#D8BAA3" stroke-linecap="round" stroke-miterlimit="10" stroke-width="5" d="M2983.32 1133.71c.97-.1 3.14 4.06 2.33 4.6-12.51 8.39-54.04 21.39-81.52 12.82-36.22-11.32-12.77-21.53-9.72-19.81 9.57 5.26 48.12 6.61 88.91 2.39Zm14.87-4.2s13.61-20.41 32.94-17.64c0 0-9.54 21.1-32.94 17.64Zm1.43 2.11s35.8-.14 49.27 26.02c0 0-33.06 5.68-49.27-26.02Z"/>
  <path fill="#fff" stroke="#D8BAA3" stroke-linecap="round" stroke-miterlimit="10" stroke-width="5" d="M2991.61 1139.95c4.03 0 7.29-3.27 7.29-7.3 0-4.02-3.26-7.29-7.29-7.29s-7.29 3.27-7.29 7.29c0 4.03 3.26 7.3 7.29 7.3Z"/>
  <path fill="#fff" d="M2792.82 1550.41h-264.61c-3.31 0-6.55-.95-9.34-2.72-2.8-1.77-5.03-4.3-6.45-7.29l-80.54-170.69a9.199 9.199 0 0 1-.86-4.5 9.14 9.14 0 0 1 1.41-4.35 9.09 9.09 0 0 1 3.33-3.13 9.16 9.16 0 0 1 4.43-1.14h261.35c4.3 0 8.51 1.22 12.15 3.52 3.63 2.31 6.54 5.6 8.37 9.49l79.08 167.69c.66 1.4.96 2.95.87 4.5a9.263 9.263 0 0 1-4.75 7.49 9.189 9.189 0 0 1-4.44 1.13Z"/>
  <path stroke="#154B77" stroke-miterlimit="10" stroke-width="6" d="M2792.82 1550.41h-264.61c-3.31 0-6.55-.95-9.34-2.72-2.8-1.77-5.03-4.3-6.45-7.29l-80.54-170.69a9.199 9.199 0 0 1-.86-4.5 9.14 9.14 0 0 1 1.41-4.35 9.09 9.09 0 0 1 3.33-3.13 9.16 9.16 0 0 1 4.43-1.14h261.35c4.3 0 8.51 1.22 12.15 3.52 3.63 2.31 6.54 5.6 8.37 9.49l79.08 167.69c.66 1.4.96 2.95.87 4.5a9.263 9.263 0 0 1-4.75 7.49 9.189 9.189 0 0 1-4.44 1.13Z"/>
  <path stroke="#000" stroke-miterlimit="10" stroke-opacity=".2" stroke-width="6" d="M2792.82 1550.41h-264.61c-3.31 0-6.55-.95-9.34-2.72-2.8-1.77-5.03-4.3-6.45-7.29l-80.54-170.69a9.199 9.199 0 0 1-.86-4.5 9.14 9.14 0 0 1 1.41-4.35 9.09 9.09 0 0 1 3.33-3.13 9.16 9.16 0 0 1 4.43-1.14h261.35c4.3 0 8.51 1.22 12.15 3.52 3.63 2.31 6.54 5.6 8.37 9.49l79.08 167.69c.66 1.4.96 2.95.87 4.5a9.263 9.263 0 0 1-4.75 7.49 9.189 9.189 0 0 1-4.44 1.13Z"/>
  <path stroke="#000" stroke-miterlimit="10" stroke-opacity=".2" stroke-width="6" d="M2792.82 1550.41h-264.61c-3.31 0-6.55-.95-9.34-2.72-2.8-1.77-5.03-4.3-6.45-7.29l-80.54-170.69a9.199 9.199 0 0 1-.86-4.5 9.14 9.14 0 0 1 1.41-4.35 9.09 9.09 0 0 1 3.33-3.13 9.16 9.16 0 0 1 4.43-1.14h261.35c4.3 0 8.51 1.22 12.15 3.52 3.63 2.31 6.54 5.6 8.37 9.49l79.08 167.69c.66 1.4.96 2.95.87 4.5a9.263 9.263 0 0 1-4.75 7.49 9.189 9.189 0 0 1-4.44 1.13Z"/>
  <path fill="#fff" d="M2941.29 1550.41h-422.05c-4.83 0-8.73 3.91-8.73 8.74v1.92c0 4.82 3.9 8.73 8.73 8.73h422.05c4.82 0 8.73-3.91 8.73-8.73v-1.92c0-4.83-3.91-8.74-8.73-8.74Z"/>
  <path stroke="#154B77" stroke-miterlimit="10" stroke-width="6" d="M2941.29 1550.41h-422.05c-4.83 0-8.73 3.91-8.73 8.74v1.92c0 4.82 3.9 8.73 8.73 8.73h422.05c4.82 0 8.73-3.91 8.73-8.73v-1.92c0-4.83-3.91-8.74-8.73-8.74Z"/>
  <path stroke="#000" stroke-miterlimit="10" stroke-opacity=".2" stroke-width="6" d="M2941.29 1550.41h-422.05c-4.83 0-8.73 3.91-8.73 8.74v1.92c0 4.82 3.9 8.73 8.73 8.73h422.05c4.82 0 8.73-3.91 8.73-8.73v-1.92c0-4.83-3.91-8.74-8.73-8.74Z"/>
  <path stroke="#000" stroke-miterlimit="10" stroke-opacity=".2" stroke-width="6" d="M2941.29 1550.41h-422.05c-4.83 0-8.73 3.91-8.73 8.74v1.92c0 4.82 3.9 8.73 8.73 8.73h422.05c4.82 0 8.73-3.91 8.73-8.73v-1.92c0-4.83-3.91-8.74-8.73-8.74Z"/>
  <g clip-path="url(#b)">
    <path fill="#1F161E" d="M3159.47 1973.65v-2.97l-7.12-8.92-16.33-20.07-17.51-21.23s-16.86-11.68-21.19-13.7c-15.79-7.32-31.35-12.91-49.93-12.91-11.43 0-54.14 1.73-54.23 8.92 0 10.68 59.81 51.08 103.68 70.7 19.12.18 62.63.18 62.63.18Z"/>
    <path fill="#FBDC8E" d="M3150.42 1973.65c-60.88-46.82-185.14-302.81-153.28-397.65 67.85 34.64 142.3 154.07 177.41 254.91 1.86 6.56 3.35 13.23 4.46 19.95l14.25 65.41 3.56 57.38h-46.4Z"/>
    <path fill="#73E5E2" d="M3191.98 1973.65c-20.54-16.71-27.1-66.18-27.28-84.64-.33-34.46 4.96-59.85 34.37-97.76 29.42-37.9 21.49-100.81 60.68-143.21 39.18-42.4 64.94-54.2 111.31-54.2 46.37 0 61.06 75.28 60.94 94.22-.53 76.35-48.59 87.14-77.86 123.62-21.28 26.46-22.95 48.1-29.39 60.47-34.61 66.57-62.63 91.72-83.41 101.5"/>
    <path stroke="#fff" stroke-linecap="round" stroke-linejoin="round" stroke-width=".4" d="M3203.2 1968.12c.59-130.31 137.7-326.03 167-355.37"/>
    <path stroke="#fff" stroke-linecap="round" stroke-linejoin="round" stroke-width=".4" d="M3210.71 1908.99c-15.17-16.56-28.97-63.51-26.89-75.7m-11.97 129.21c-21.49-38.23-123.45-224.23-161.59-361.26"/>
    <path fill="#B37361" d="M3241.34 1973.65h63.82L3251.73 2173h-142.87l-52.57-199.35h185.05Z"/>
    <path stroke="#fff" stroke-linecap="round" stroke-linejoin="round" stroke-width=".4" d="M3013.91 1906.85c31.13 2.14 70.32 3.57 98.1 22.44"/>
  </g>
  <path fill="#000" d="M1025.6 404.732c0-10.23-8.3-18.524-18.53-18.524-10.227 0-18.52 8.294-18.52 18.524v63.943c0 10.231 8.293 18.525 18.52 18.525 10.23 0 18.53-8.294 18.53-18.525v-63.943Z"/>
  <path fill="#FBDC8E" d="M1007.07 594.687c20.53 0 37.16-16.64 37.16-37.166 0-20.526-16.63-37.166-37.16-37.166-20.522 0-37.16 16.64-37.16 37.166 0 20.526 16.638 37.166 37.16 37.166Z"/>
  <path fill="#154B77" d="M1007.07 445.468a112.038 112.038 0 0 0-103.538 69.166A112.054 112.054 0 0 0 895 557.522h224.14a111.92 111.92 0 0 0-8.53-42.888 112.106 112.106 0 0 0-24.29-36.356 112.046 112.046 0 0 0-79.25-32.81Z"/>
  <path fill="#000" fill-opacity=".2" d="M1007.07 445.468a112.038 112.038 0 0 0-103.538 69.166A112.054 112.054 0 0 0 895 557.522h224.14a111.92 111.92 0 0 0-8.53-42.888 112.106 112.106 0 0 0-24.29-36.356 112.046 112.046 0 0 0-79.25-32.81Z"/>
  <path fill="#000" fill-opacity=".2" d="M1007.07 445.468a112.038 112.038 0 0 0-103.538 69.166A112.054 112.054 0 0 0 895 557.522h224.14a111.92 111.92 0 0 0-8.53-42.888 112.106 112.106 0 0 0-24.29-36.356 112.046 112.046 0 0 0-79.25-32.81Z"/>
  <path stroke="#000" stroke-linecap="round" stroke-linejoin="round" stroke-width="2" d="M1007.07 407.542V1"/>
  <path fill="#D8D8D8" d="M2774.82 638.117H2347.6c-1.99 0-3.6 1.611-3.6 3.599v2.224c0 1.988 1.61 3.6 3.6 3.6h427.22c1.99 0 3.6-1.612 3.6-3.6v-2.224a3.598 3.598 0 0 0-3.6-3.599Z"/>
  <path fill="#969696" d="M2528.06 451h-25.96a7.489 7.489 0 0 0-7.49 7.492v172.133a7.489 7.489 0 0 0 7.49 7.492h25.96c4.13 0 7.49-3.354 7.49-7.492V458.492a7.495 7.495 0 0 0-7.49-7.492Z"/>
  <path fill="#D8D8D8" d="M2549.8 494.868h-8.02c-3.44 0-6.23 2.79-6.23 6.233v130.783a6.232 6.232 0 0 0 6.23 6.233h8.02c3.44 0 6.23-2.791 6.23-6.233V501.101a6.232 6.232 0 0 0-6.23-6.233Z"/>
  <path fill="#969696" d="M2570.49 494.868h-8.43a6.03 6.03 0 0 0-6.03 6.028v131.193a6.03 6.03 0 0 0 6.03 6.028h8.43c3.32 0 6.02-2.699 6.02-6.028V500.896c0-3.329-2.7-6.028-6.02-6.028Z"/>
  <path fill="#D8D8D8" d="m2585.34 505.12-6.92 3.175c-3.23 1.483-4.64 5.306-3.16 8.537l54.39 118.483c1.48 3.231 5.31 4.648 8.54 3.165l6.91-3.175a6.444 6.444 0 0 0 3.17-8.537l-54.39-118.483a6.444 6.444 0 0 0-8.54-3.165Zm-70.28 85.647c6.32 0 11.45-5.123 11.45-11.442 0-6.32-5.13-11.443-11.45-11.443-6.32 0-11.44 5.123-11.44 11.443 0 6.319 5.12 11.442 11.44 11.442Zm10.36 6.848h-20.71a2.75 2.75 0 0 0-2.75 2.751 2.75 2.75 0 0 0 2.75 2.75h20.71a2.75 2.75 0 0 0 2.75-2.75 2.75 2.75 0 0 0-2.75-2.751Zm0 14.076h-20.71a2.75 2.75 0 0 0-2.75 2.751 2.75 2.75 0 0 0 2.75 2.751h20.71a2.75 2.75 0 0 0 2.75-2.751 2.75 2.75 0 0 0-2.75-2.751Z"/>
  <path fill="#969696" d="M2547.93 516.494a2.14 2.14 0 0 0-4.28 0v99.967c0 1.18.96 2.136 2.14 2.136 1.18 0 2.14-.956 2.14-2.136v-99.967Z"/>
  <path fill="#D8D8D8" d="M2458.06 642.829h-18.32a7.283 7.283 0 0 0-7.28 7.286 7.284 7.284 0 0 0 7.28 7.287h18.32c4.03 0 7.29-3.262 7.29-7.287a7.286 7.286 0 0 0-7.29-7.286Zm224.62 0h-18.32a7.286 7.286 0 0 0-7.29 7.286 7.286 7.286 0 0 0 7.29 7.287h18.32c4.02 0 7.28-3.262 7.28-7.287a7.283 7.283 0 0 0-7.28-7.286Z"/>
  <path fill="#FADB93" d="m1830.09 545.12-61.7-16.7-19.39 71.66 69.67 18.86 17.24-63.69-5.82-10.13Z" opacity=".57"/>
  <path fill="#78E5E1" d="m1819.13 547.069-2.17-.585a2.412 2.412 0 0 0-2.96 1.704l-3.51 12.945a2.43 2.43 0 0 0 1.71 2.968l2.16.585a2.423 2.423 0 0 0 2.97-1.704l3.5-12.945a2.417 2.417 0 0 0-1.7-2.968Zm-1.61 30.055-45.93-12.311-10.42 38.897 45.93 12.311 10.42-38.897Z"/>
  <path stroke="#000" stroke-miterlimit="10" stroke-width=".41" d="m1837.25 541.7-61.7-16.7-19.39 71.67 69.68 18.85 17.23-63.69-5.82-10.13Z"/>
  <path stroke="#000" stroke-miterlimit="10" stroke-width=".41" d="m1787.54 528.243 45.71 12.366-5.42 20.021a3.256 3.256 0 0 1-3.99 2.288l-39.43-10.669a3.26 3.26 0 0 1-1.97-1.519 3.27 3.27 0 0 1-.32-2.467l5.42-20.02Z"/>
  <path stroke="#000" stroke-miterlimit="10" stroke-width=".41" d="m1824.39 541.168-2.17-.585a2.408 2.408 0 0 0-2.96 1.704l-3.51 12.944a2.423 2.423 0 0 0 1.71 2.968l2.16.585a2.422 2.422 0 0 0 2.97-1.704l3.5-12.944a2.417 2.417 0 0 0-1.7-2.968Zm-.07 32.397-45.7-12.367-10.47 38.708 45.7 12.367 10.47-38.708Z"/>
  <path fill="#B27363" d="M1875 747.86h-251V920h251V747.86Z"/>
  <path fill="#98574C" d="M1875 747.86h-251l45.69-38.86h159.62l45.69 38.86Zm-98.79 29.225h-53.42c-3.73 0-6.76 3.02-6.76 6.745s3.03 6.744 6.76 6.744h53.42c3.73 0 6.76-3.019 6.76-6.744 0-3.725-3.03-6.745-6.76-6.745Z"/>
  <path stroke="#B27363" stroke-miterlimit="10" stroke-width="20" d="M1749.82 709v39.823"/>
  <path fill="#98574C" d="M1766.23 892.06h-33.46v27.619h33.46V892.06Z"/>
  <path fill="#FADB93" d="M1812.25 827.186h-125.5v34.684h125.5v-34.684Z"/>
  <path stroke="#B27363" stroke-miterlimit="10" stroke-width="9" d="M1701.55 838.908h95.9m-95.9 11.24h95.9"/>
  <defs>
    <clipPath id="a">
      <path fill="#fff" d="M0 0h440v1057H0z" transform="translate(1904 911)"/>
    </clipPath>
    <clipPath id="b">
      <path fill="#fff" d="M0 0h440v597H0z" transform="translate(2992 1576)"/>
    </clipPath>
  </defs>
</svg>
