<svg xmlns="http://www.w3.org/2000/svg" width="262" height="43" fill="none" viewBox="0 0 262 43">
  <path fill="#3ABEBE" d="M55.297 16.703 52.32 31.57c-.379 1.916-.568 3.417-.568 4.503 0 1.131.477 2.014 1.432 2.647-1.652.513-2.94.77-3.864.77-1.546 0-2.319-.62-2.319-1.856 0-1.373.455-3.809 1.364-7.309l5.024-19.278-.932-2.85c-1.061-3.183-2.092-5.122-3.092-5.816 1.44-.92 2.72-1.38 3.842-1.38.833 0 1.546.656 2.137 1.969.606 1.297 1.705 4.615 3.296 9.955.318 1.071.583 1.916.795 2.535l.41 1.131c2.303 6.682 4.311 10.024 6.024 10.024 1.864 0 4.455-2.7 7.774-8.1 3.334-5.416 5.145-9.866 5.433-13.35 1.682-.559 2.925-.838 3.728-.838 1.485 0 2.228.815 2.228 2.444 0 .543-.175 2.051-.523 4.525-.333 2.248-.568 4.05-.705 5.408l-1.568 14.753a29.908 29.908 0 0 0-.16 3.032c0 3.002.614 4.872 1.842 5.611-1.561 1.086-2.895 1.63-4 1.63-1.804 0-2.706-1.864-2.706-5.59 0-1.493.114-3.318.34-5.475L79.53 11.95c-1.804 5.4-4.13 10.002-6.98 13.803-2.848 3.786-5.394 5.68-7.637 5.68-1.758 0-3.493-1.306-5.206-3.915-1.712-2.625-3.182-6.23-4.41-10.816ZM91.01 30.754c0 2.46.674 4.39 2.022 5.793 1.364 1.403 3.244 2.104 5.638 2.104 2.122 0 3.963-.633 5.524-1.9 1.561-1.268 2.341-2.753 2.341-4.458 0-1.825-1.72-4.337-5.16-7.535l-2.5-2.308c-3.198-2.956-4.797-5.679-4.797-8.168 0-2.896 1.137-5.28 3.41-7.15s5.168-2.806 8.684-2.806c1.864 0 3.372.287 4.523.86 1.152.558 1.728 1.29 1.728 2.195 0 .89-.409 1.923-1.228 3.1-1.318-2.535-3.462-3.802-6.433-3.802-1.849 0-3.41.574-4.683 1.72-1.257 1.131-1.886 2.534-1.886 4.209 0 1.116.204 1.968.614 2.556.424.589 1.72 1.871 3.887 3.847l2.046 1.878c3.728 3.454 5.592 6.554 5.592 9.3 0 3.198-1.273 5.853-3.819 7.964-2.546 2.097-5.752 3.146-9.616 3.146-2.592 0-4.736-.604-6.433-1.81-1.682-1.207-2.523-2.73-2.523-4.571 0-1.252 1.022-2.64 3.068-4.164Zm31.324-3.846c.864-2.655 2.251-3.983 4.16-3.983.364 0 .743.023 1.137.068l2.478.272c.485.045.954.068 1.409.068 1.212 0 2.084-.332 2.614-.996-.454 2.942-1.515 4.412-3.182 4.412-.379 0-.849-.03-1.41-.09l-1.682-.204c-1.182-.15-2.099-.226-2.751-.226-.939 0-1.864.226-2.773.679Zm26.369-.136-2 9.933c-.288 1.433-.432 2.361-.432 2.783 0 .423.099.875.296 1.358-1.561.77-2.963 1.154-4.206 1.154-.788 0-1.182-.317-1.182-.95 0-.332.152-1.275.455-2.829l2.387-11.856c-3.835-.86-5.752-2.127-5.752-3.801 0-.348.076-.793.228-1.335 1.636 1.342 3.622 2.315 5.956 2.918l1.568-7.829c.258-1.282.386-2.194.386-2.737 0-.528-.181-1.011-.545-1.448 2.015-.755 3.417-1.132 4.205-1.132.94 0 1.41.543 1.41 1.63 0 .256-.25 1.576-.75 3.959l-1.592 7.965c4.365 0 7.934-1.071 10.707-3.213 2.773-2.142 4.16-4.888 4.16-8.237 0-1.84-.727-3.318-2.182-4.434-1.44-1.132-3.349-1.697-5.729-1.697-7.092 0-12.783 2.956-17.071 8.87-.364-.936-.546-1.668-.546-2.195 0-2.278 2.046-4.398 6.138-6.359 4.107-1.976 8.547-2.964 13.321-2.964 7.244 0 10.866 2.655 10.866 7.965 0 3.877-1.887 7.263-5.661 10.16-3.758 2.896-8.153 4.344-13.184 4.344l-1.251-.023Zm46.965 6.946c-.5 1.479-1.091 2.557-1.773 3.236-.682.679-2.41 1.267-5.183 1.765-2.758.513-5.676.77-8.752.77-4.834 0-7.251-1.645-7.251-4.933 0-.92.257-2.663.772-5.227l4.433-22.22c.258-1.282.387-2.202.387-2.76 0-.513-.182-.988-.546-1.426 2.016-.754 3.417-1.131 4.205-1.131.94 0 1.41.535 1.41 1.606 0 .272-.25 1.6-.75 3.983l-3.956 19.844c-.576 2.85-.863 4.834-.863 5.95 0 1.886 2.098 2.829 6.296 2.829 3.744 0 7.6-.762 11.571-2.285Zm26.756-5.136c-4.562 6.532-9.04 9.798-13.435 9.798-2.379 0-4.342-.86-5.888-2.58-1.545-1.734-2.318-3.93-2.318-6.584 0-5.325 2.076-12.392 6.228-21.202-1.258.242-2.425.362-3.5.362-1.41 0-2.448-.347-3.115-1.04-.667-.71-1.129-1.931-1.386-3.666 1.136.89 2.606 1.335 4.41 1.335 1.03 0 4.47-.264 10.32-.792-5.35 10.408-8.024 18.35-8.024 23.826 0 1.961.484 3.568 1.454 4.82.985 1.252 2.243 1.878 3.774 1.878 2.152 0 4.281-1.049 6.388-3.145 2.121-2.112 4.114-5.167 5.978-9.164 1.334-7.347 2.516-11.864 3.546-13.554 1.046-1.69 3.145-2.534 6.297-2.534-1.379 1.765-2.743 5.453-4.092 11.064-1.348 5.597-2.023 10.379-2.023 14.346 0 3.123.955 4.684 2.864 4.684 1.198 0 2.607-.641 4.229-1.923.06.361.091.633.091.814 0 1.026-.622 1.976-1.864 2.851-1.243.875-2.592 1.312-4.047 1.312-4.076 0-6.115-2.58-6.115-7.738 0-.724.076-1.78.228-3.168Zm17.162 2.172c0 2.46.675 4.39 2.024 5.793 1.363 1.403 3.243 2.104 5.637 2.104 2.122 0 3.963-.633 5.524-1.9 1.561-1.268 2.341-2.753 2.341-4.458 0-1.825-1.72-4.337-5.16-7.535l-2.5-2.308c-3.198-2.956-4.797-5.679-4.797-8.168 0-2.896 1.137-5.28 3.41-7.15s5.168-2.806 8.684-2.806c1.864 0 3.372.287 4.523.86 1.152.558 1.728 1.29 1.728 2.195 0 .89-.409 1.923-1.228 3.1-1.318-2.535-3.462-3.802-6.433-3.802-1.849 0-3.41.574-4.683 1.72-1.257 1.131-1.886 2.534-1.886 4.209 0 1.116.204 1.968.613 2.556.425.589 1.721 1.871 3.888 3.847l2.046 1.878c3.728 3.454 5.592 6.554 5.592 9.3 0 3.198-1.273 5.853-3.819 7.964-2.546 2.097-5.752 3.146-9.616 3.146-2.591 0-4.736-.604-6.433-1.81-1.682-1.207-2.523-2.73-2.523-4.571 0-1.252 1.022-2.64 3.068-4.164Z"/>
  <path fill="#154B77" d="M0 6h11.268v11.421H0z"/>
  <path fill="#4FC4E7" d="M0 25.579h11.268V37H0zM21.732 6H33v11.421H21.732z"/>
  <path fill="#E0F5FB" d="M21.732 25.579H33V37H21.732z"/>
  <path fill="#3ABEBE" fill-rule="evenodd" d="M83.012 40.683c-1.178.697-2.21 1.045-3.096 1.045-1.803 0-2.705-1.863-2.705-5.588 0-1.494.114-3.319.34-5.476L79.53 11.95a60.2 60.2 0 0 1-1.407 3.794c-1.558 3.794-3.415 7.13-5.572 10.009-2.85 3.786-5.395 5.68-7.638 5.68-1.758 0-3.493-1.306-5.206-3.915-1.442-2.21-2.712-5.116-3.81-8.717a63.398 63.398 0 0 1-.6-2.099L52.32 31.57c-.379 1.916-.568 3.417-.568 4.503 0 .72.194 1.34.58 1.858.222.296.505.559.852.79-.416.128-.809.241-1.179.338-1.099.287-1.994.43-2.685.43-1.546 0-2.319-.618-2.319-1.855 0-1.373.455-3.809 1.364-7.309l5.024-19.278-.932-2.85c-.805-2.414-1.591-4.111-2.36-5.094a3.478 3.478 0 0 0-.732-.722c.316-.202.624-.381.925-.539C51.359 1.281 52.33 1 53.206 1c.833 0 1.546.656 2.137 1.969.606 1.297 1.705 4.615 3.296 9.955.318 1.071.583 1.916.795 2.535l.41 1.131c2.303 6.682 4.311 10.024 6.024 10.024 1.864 0 4.455-2.7 7.774-8.1 3.334-5.416 5.145-9.866 5.433-13.35 1.682-.559 2.925-.838 3.728-.838 1.485 0 2.228.815 2.228 2.444 0 .543-.175 2.051-.523 4.525-.333 2.248-.568 4.05-.705 5.408l-1.568 14.753a29.908 29.908 0 0 0-.16 3.032c0 2.307.363 3.945 1.088 4.916.218.292.47.524.754.695-.31.217-.612.411-.905.584ZM60.378 15.126l.409 1.13.002.008c1.144 3.32 2.195 5.748 3.145 7.329.476.792.9 1.325 1.262 1.65.365.328.583.37.672.37.489 0 1.347-.39 2.62-1.717 1.224-1.275 2.658-3.231 4.302-5.906 3.309-5.374 5.02-9.662 5.288-12.909l.055-.659.627-.208c1.691-.56 3.066-.888 4.043-.888.922 0 1.79.257 2.41.937.604.663.818 1.56.818 2.507 0 .63-.189 2.223-.533 4.665v.007c-.333 2.24-.566 4.026-.7 5.361v.006L83.23 31.557v.003a28.916 28.916 0 0 0-.154 2.928c0 1.444.149 2.546.41 3.342.26.793.604 1.206.947 1.413l1.322.796-1.267.881c-1.621 1.128-3.161 1.808-4.572 1.808-.633 0-1.23-.166-1.75-.525-.514-.354-.897-.854-1.179-1.436-.55-1.136-.776-2.716-.776-4.627 0-1.54.117-3.403.347-5.58l1.224-11.584c-1.302 2.712-2.778 5.172-4.43 7.378l-.002.001c-1.457 1.936-2.871 3.437-4.249 4.46-1.376 1.024-2.779 1.618-4.188 1.618-2.29 0-4.286-1.69-6.042-4.366l-.001-.002c-1.266-1.94-2.388-4.363-3.376-7.255L53.3 31.763v.001c-.374 1.893-.549 3.32-.549 4.308 0 .79.305 1.363.985 1.814l1.754 1.164-2.01.624c-1.68.522-3.084.814-4.161.814-.88 0-1.725-.171-2.364-.683-.682-.545-.955-1.333-.955-2.172 0-1.517.49-4.07 1.396-7.56l4.95-18.995-.84-2.57c-.52-1.561-1.023-2.783-1.502-3.684-.491-.925-.908-1.412-1.21-1.622l-1.233-.856 1.265-.808C50.348.565 51.818 0 53.206 0c1.458 0 2.418 1.162 3.046 2.552.645 1.383 1.764 4.78 3.345 10.087.316 1.06.575 1.889.78 2.487Zm31.631 13.637v1.991c0 2.27.618 3.927 1.743 5.098 1.135 1.166 2.73 1.8 4.918 1.8 1.906 0 3.521-.564 4.894-1.678 1.374-1.115 1.971-2.333 1.971-3.681 0-.616-.3-1.498-1.115-2.688-.802-1.17-2.033-2.54-3.724-4.113l-.002-.001-2.498-2.306c-3.258-3.013-5.118-5.986-5.118-8.903 0-3.2 1.275-5.865 3.775-7.922 2.485-2.045 5.618-3.034 9.319-3.034 1.952 0 3.627.298 4.964.962 1.33.646 2.287 1.652 2.287 3.093 0 1.184-.537 2.42-1.407 3.67l-.944 1.359-.764-1.468c-.586-1.126-1.33-1.926-2.218-2.451-.891-.527-1.987-.812-3.328-.812-1.623 0-2.939.496-4.013 1.463-1.05.944-1.556 2.078-1.556 3.466 0 1.01.188 1.626.43 1.979.16.22.534.633 1.177 1.27a90.67 90.67 0 0 0 2.567 2.415l.003.002 2.049 1.881c3.774 3.497 5.913 6.85 5.913 10.034 0 3.507-1.415 6.44-4.181 8.734l-.003.002c-2.754 2.27-6.196 3.374-10.251 3.374-2.748 0-5.109-.642-7.013-1.996l-.003-.002c-1.906-1.367-2.94-3.177-2.94-5.383 0-.907.37-1.771.962-2.573.59-.802 1.441-1.597 2.51-2.393l1.596-1.19Zm6.797-13.599c-.409-.588-.613-1.44-.613-2.556 0-1.675.629-3.078 1.886-4.209 1.273-1.146 2.834-1.72 4.683-1.72 2.574 0 4.528.952 5.862 2.855.205.293.396.609.571.947a9.73 9.73 0 0 0 .602-.974c.417-.782.626-1.49.626-2.126 0-.905-.576-1.637-1.728-2.195-1.151-.573-2.659-.86-4.523-.86-3.516 0-6.41.935-8.684 2.806-2.273 1.87-3.41 4.254-3.41 7.15 0 2.489 1.599 5.212 4.797 8.168l2.5 2.308c3.44 3.198 5.16 5.71 5.16 7.535 0 1.705-.78 3.19-2.341 4.458-1.561 1.267-3.402 1.9-5.524 1.9-2.394 0-4.274-.701-5.638-2.104-1.117-1.162-1.771-2.687-1.963-4.573-.04-.391-.06-.798-.06-1.22-.357.266-.683.528-.977.786-1.394 1.218-2.091 2.344-2.091 3.378 0 1.84.84 3.364 2.523 4.57 1.697 1.207 3.841 1.81 6.433 1.81 3.864 0 7.07-1.048 9.616-3.145 2.546-2.111 3.819-4.766 3.819-7.964 0-2.746-1.864-5.846-5.592-9.3l-2.046-1.878c-2.167-1.976-3.463-3.258-3.888-3.846Zm21.84 13.701.737-2.267c.462-1.418 1.093-2.581 1.948-3.4a4.45 4.45 0 0 1 3.163-1.273 10.976 10.976 0 0 1 1.251.075l2.464.27c.454.042.89.063 1.309.063 1.044 0 1.563-.283 1.833-.62l2.343-2.931-.574 3.708c-.237 1.538-.65 2.821-1.313 3.741-.7.97-1.671 1.518-2.857 1.518-.428 0-.936-.033-1.517-.096l-.013-.001-1.689-.205c-1.168-.149-2.035-.218-2.624-.218-.772 0-1.545.185-2.327.574l-2.134 1.062Zm9.463-5.6-2.478-.272a9.96 9.96 0 0 0-1.137-.067c-1.568 0-2.783.894-3.646 2.684-.188.39-.359.823-.514 1.298a6.69 6.69 0 0 1 1.24-.475 5.881 5.881 0 0 1 1.533-.204c.652 0 1.569.076 2.751.226l1.682.204c.561.06 1.031.09 1.41.09 1.35 0 2.302-.964 2.857-2.894.13-.453.239-.959.325-1.518-.288.361-.678.624-1.168.789-.411.138-.893.207-1.446.207-.455 0-.924-.023-1.409-.068Zm16.736-11.488c1.495-.517 2.57-.776 3.222-.776.94 0 1.41.543 1.41 1.63 0 .256-.25 1.576-.75 3.959l-1.592 7.965c.347 0 .688-.007 1.024-.02 3.902-.157 7.13-1.221 9.683-3.193 2.773-2.142 4.16-4.888 4.16-8.237 0-1.84-.727-3.318-2.182-4.434-1.44-1.132-3.349-1.697-5.729-1.697-6.702 0-12.153 2.64-16.351 7.92a25.17 25.17 0 0 0-.72.95 10.972 10.972 0 0 1-.386-1.158 4.179 4.179 0 0 1-.16-1.037c0-2.278 2.046-4.398 6.138-6.359 4.107-1.976 8.547-2.964 13.321-2.964 7.244 0 10.866 2.655 10.866 7.965 0 3.877-1.887 7.263-5.661 10.16-3.758 2.896-8.153 4.344-13.184 4.344l-1.251-.023-2 9.933c-.288 1.433-.432 2.361-.432 2.783 0 .423.099.875.296 1.358-1.561.77-2.963 1.154-4.206 1.154-.788 0-1.182-.317-1.182-.95 0-.332.152-1.275.455-2.829l2.387-11.856c-3.835-.86-5.752-2.127-5.752-3.801 0-.074.004-.151.01-.233.026-.306.098-.674.218-1.102.278.228.567.446.866.653 1.209.838 2.584 1.501 4.125 1.989.315.1.636.192.965.276l1.568-7.829c.258-1.282.386-2.194.386-2.737 0-.192-.024-.378-.072-.558a2.318 2.318 0 0 0-.473-.89c.346-.13.674-.248.983-.355Zm-3.159 11.107 1.355-6.762c.257-1.282.366-2.108.366-2.541 0-.276-.087-.536-.314-.81l-.816-.98c-1.622 1.24-3.104 2.786-4.448 4.64l-1.077 1.484-.664-1.71c-.376-.965-.614-1.838-.614-2.556 0-1.468.667-2.804 1.815-3.993 1.138-1.178 2.789-2.26 4.89-3.267 4.248-2.044 8.837-3.063 13.754-3.063 3.714 0 6.681.676 8.74 2.185 2.117 1.551 3.126 3.872 3.126 6.78 0 4.258-2.094 7.914-6.051 10.952-3.944 3.04-8.557 4.552-13.794 4.552h-.009l-.426-.008-1.836 9.115c-.293 1.46-.412 2.283-.412 2.586 0 .267.062.59.221.98l.353.863-.836.412c-1.647.812-3.203 1.257-4.648 1.257-.502 0-1.063-.096-1.513-.458-.492-.395-.669-.957-.669-1.492 0-.259.052-.654.126-1.115.079-.487.195-1.123.347-1.905l.001-.006 2.198-10.915c-1.526-.402-2.773-.896-3.695-1.505-1.124-.743-1.887-1.75-1.887-3.04 0-.477.102-1.021.265-1.604l.412-1.477 1.185.972c1.272 1.044 2.786 1.857 4.555 2.429Zm.947-11.36c3.258-2.374 7.07-3.55 11.458-3.55 2.223 0 3.894.527 5.111 1.483l.009.007c1.207.926 1.791 2.11 1.791 3.641 0 3.023-1.23 5.482-3.771 7.445-2.305 1.78-5.242 2.791-8.87 2.974l1.344-6.729.001-.004c.25-1.192.439-2.124.566-2.792.063-.335.112-.61.146-.82.028-.182.059-.392.059-.549 0-.664-.141-1.35-.596-1.876-.48-.554-1.149-.753-1.814-.753-.526 0-1.175.122-1.902.317-.742.2-1.629.494-2.654.878l-.878.329Zm52.665 20.498-.683 2.017c-.522 1.544-1.176 2.789-2.015 3.624-.507.505-1.289.881-2.19 1.188-.929.316-2.107.598-3.519.852-2.823.525-5.8.785-8.931.785-2.499 0-4.55-.419-6.001-1.406-1.52-1.034-2.25-2.6-2.25-4.526 0-1.035.279-2.872.792-5.424l4.433-22.218v-.002c.257-1.28.367-2.114.367-2.563 0-.254-.083-.508-.315-.786l-.9-1.083 1.319-.493a30.08 30.08 0 0 1 2.653-.878c.728-.196 1.376-.317 1.902-.317.661 0 1.329.194 1.809.742.459.523.601 1.205.601 1.864 0 .159-.03.37-.059.557-.034.214-.083.492-.146.828-.127.673-.315 1.606-.565 2.797l-.002.006-3.953 19.834v.003c-.578 2.857-.844 4.75-.844 5.753 0 .272.071.472.196.641.134.18.372.381.787.568.855.383 2.258.619 4.313.619 3.606 0 7.341-.733 11.213-2.22l1.988-.762ZM182.62 7.381c.5-2.384.75-3.711.75-3.983 0-1.07-.47-1.606-1.41-1.606-.652 0-1.726.259-3.221.776-.31.107-.638.226-.984.355.234.281.392.578.476.89.046.174.07.352.07.536 0 .558-.129 1.478-.387 2.76l-4.433 22.22c-.515 2.564-.772 4.307-.772 5.227 0 3.288 2.417 4.932 7.251 4.932 3.076 0 5.994-.256 8.752-.769 2.773-.498 4.501-1.086 5.183-1.765.473-.47.902-1.133 1.287-1.989.171-.378.333-.793.486-1.247-.412.159-.823.308-1.232.45-3.538 1.224-6.984 1.836-10.339 1.836-4.198 0-6.296-.943-6.296-2.828 0-1.117.287-3.1.863-5.951L182.62 7.38Zm51.57 28.339c-.14.876-.751 1.694-1.832 2.456-1.243.875-2.592 1.312-4.047 1.312-4.076 0-6.115-2.58-6.115-7.738 0-.334.016-.74.049-1.215.037-.555.097-1.206.179-1.953a50.45 50.45 0 0 1-1.155 1.587c-4.163 5.474-8.257 8.21-12.28 8.21-2.379 0-4.342-.86-5.888-2.579-1.545-1.734-2.318-3.93-2.318-6.584 0-5.1 1.904-11.799 5.713-20.095.168-.366.34-.735.515-1.107-.408.079-.807.144-1.196.197-.81.11-1.578.165-2.304.165-1.41 0-2.448-.347-3.115-1.04-.474-.504-.844-1.268-1.112-2.29a13.09 13.09 0 0 1-.274-1.376 5.68 5.68 0 0 0 1.14.693c.93.428 2.019.642 3.27.642.959 0 4.007-.229 9.143-.686l1.177-.106c-.182.354-.36.704-.536 1.052-4.992 9.893-7.488 17.485-7.488 22.774 0 1.961.484 3.568 1.454 4.82.985 1.252 2.243 1.878 3.774 1.878 2.152 0 4.281-1.049 6.388-3.145 2.121-2.112 4.114-5.167 5.978-9.164 1.334-7.347 2.516-11.864 3.546-13.554.9-1.454 2.581-2.282 5.041-2.485a15.23 15.23 0 0 1 1.256-.049 8.758 8.758 0 0 0-.672 1.014c-1.15 2.002-2.29 5.352-3.42 10.05-1.348 5.597-2.023 10.379-2.023 14.346 0 3.123.955 4.684 2.864 4.684.966 0 2.07-.417 3.312-1.252.297-.2.603-.424.917-.672.06.363.091.634.091.815 0 .133-.011.265-.032.395Zm-26.231-3.476c.804 1.02 1.777 1.493 2.985 1.493 1.8 0 3.69-.871 5.682-2.854 1.989-1.98 3.904-4.883 5.723-8.762.661-3.626 1.287-6.577 1.881-8.844.591-2.26 1.173-3.941 1.773-4.924l.003-.005c1.317-2.128 3.862-3.008 7.147-3.008h2.051l-1.263 1.616c-.595.762-1.238 2.012-1.907 3.82-.664 1.795-1.331 4.079-2 6.862-1.338 5.551-1.996 10.25-1.996 14.112 0 1.492.234 2.443.569 2.991.287.468.671.693 1.295.693.86 0 2.048-.474 3.608-1.708l1.328-1.05.279 1.67c.062.372.105.711.105.98 0 1.486-.915 2.7-2.289 3.668-1.403.988-2.951 1.494-4.622 1.494-2.263 0-4.117-.727-5.371-2.314-1.199-1.518-1.727-3.67-1.743-6.297-3.958 4.861-8.02 7.503-12.208 7.503-2.654 0-4.89-.974-6.631-2.911l-.003-.004c-1.733-1.944-2.572-4.386-2.572-7.25 0-5.19 1.884-11.853 5.543-19.938a17.4 17.4 0 0 1-1.815.1c-1.555 0-2.908-.383-3.836-1.349l-.007-.007c-.88-.936-1.381-2.409-1.648-4.204l-.368-2.48 1.974 1.546c.921.72 2.157 1.122 3.794 1.122.973 0 4.354-.258 10.23-.788l1.81-.163-.831 1.616c-5.341 10.393-7.913 18.15-7.913 23.37 0 1.791.44 3.166 1.243 4.204Zm32.627-3.481v1.991c0 2.271.618 3.928 1.743 5.099 1.135 1.165 2.731 1.798 4.918 1.798 1.906 0 3.521-.563 4.894-1.677 1.374-1.115 1.971-2.333 1.971-3.681 0-.616-.3-1.498-1.115-2.688-.802-1.17-2.033-2.54-3.724-4.113l-.002-.001-2.498-2.306c-3.258-3.013-5.118-5.986-5.118-8.903 0-3.2 1.275-5.865 3.775-7.922 2.485-2.045 5.618-3.034 9.319-3.034 1.952 0 3.627.298 4.964.962 1.33.646 2.287 1.652 2.287 3.093 0 1.184-.537 2.42-1.407 3.67l-.944 1.359-.764-1.468c-.586-1.126-1.33-1.926-2.218-2.451-.891-.527-1.987-.812-3.328-.812-1.623 0-2.939.496-4.013 1.463-1.05.944-1.556 2.078-1.556 3.466 0 1.01.188 1.627.43 1.979.161.22.534.633 1.177 1.27a90.67 90.67 0 0 0 2.567 2.415l.003.002 2.049 1.881c3.774 3.497 5.913 6.85 5.913 10.034 0 3.507-1.415 6.44-4.181 8.734l-.003.002c-2.754 2.27-6.196 3.374-10.251 3.374-2.748 0-5.109-.642-7.013-1.996l-.003-.002c-1.906-1.367-2.94-3.177-2.94-5.383 0-.907.37-1.771.962-2.573.591-.802 1.441-1.597 2.509-2.393l1.597-1.19Zm6.797-13.599c-.409-.588-.613-1.44-.613-2.556 0-1.675.629-3.078 1.886-4.209 1.273-1.146 2.834-1.72 4.683-1.72 2.574 0 4.528.952 5.862 2.855.205.293.396.609.571.947a9.73 9.73 0 0 0 .602-.974c.417-.782.626-1.49.626-2.126 0-.905-.576-1.637-1.728-2.195-1.151-.573-2.659-.86-4.523-.86-3.516 0-6.411.935-8.684 2.806-2.273 1.87-3.41 4.254-3.41 7.15 0 2.489 1.599 5.212 4.797 8.168l2.5 2.308c3.44 3.198 5.16 5.71 5.16 7.535 0 1.705-.78 3.19-2.341 4.458-1.561 1.267-3.402 1.9-5.524 1.9-2.394 0-4.274-.701-5.637-2.104-1.118-1.162-1.772-2.687-1.964-4.573-.04-.391-.06-.798-.06-1.22a15.86 15.86 0 0 0-.977.786c-1.394 1.218-2.091 2.344-2.091 3.378 0 1.84.841 3.364 2.523 4.57 1.697 1.207 3.842 1.81 6.433 1.81 3.864 0 7.07-1.048 9.616-3.145 2.546-2.111 3.819-4.766 3.819-7.964 0-2.746-1.864-5.846-5.592-9.3l-2.046-1.878c-2.167-1.976-3.463-3.258-3.888-3.846Z" clip-rule="evenodd"/>
</svg>



